<?xml version="1.0" encoding="UTF-8" standalone="no"?>
<svg
   xmlns:dc="http://purl.org/dc/elements/1.1/"
   xmlns:cc="http://creativecommons.org/ns#"
   xmlns:rdf="http://www.w3.org/1999/02/22-rdf-syntax-ns#"
   xmlns:svg="http://www.w3.org/2000/svg"
   xmlns="http://www.w3.org/2000/svg"
   id="svg120"
   version="1.1"
   viewBox="0 0 0.525635 0.714742"
   clip-rule="evenodd"
   fill-rule="evenodd"
   image-rendering="optimizeQuality"
   text-rendering="geometricPrecision"
   shape-rendering="geometricPrecision"
   height="31.5466mm"
   width="23.2mm"
   xml:space="preserve"><metadata
     id="metadata126"><rdf:RDF><cc:Work
         rdf:about=""><dc:format>image/svg+xml</dc:format><dc:type
           rdf:resource="http://purl.org/dc/dcmitype/StillImage" /><dc:title></dc:title></cc:Work></rdf:RDF></metadata><defs
     id="defs124" /><g
     id="图层_x0020_1"><metadata
       id="CorelCorpID_0Corel-Layer" /><path
       id="path89"
       d="M0.0543761 0.0167614l0.416883 0c0.0286585,0 0.0521104,0.0227836 0.0521104,0.0506218l0 0.594478c0,0.0278405 -0.0234519,0.0506151 -0.0521104,0.0506151l-0.416883 0c-0.0286585,0 -0.0521104,-0.0227745 -0.0521104,-0.0506151l0 -0.594478c0,-0.0278383 0.0234519,-0.0506218 0.0521104,-0.0506218zm0.034769 0.385021c0.0280195,0 0.050751,0.0227247 0.050751,0.0507442 0,0.0280195 -0.0227315,0.0507487 -0.050751,0.0507487 -0.0280195,0 -0.0507419,-0.0227292 -0.0507419,-0.0507487 0,-0.0280195 0.0227224,-0.0507442 0.0507419,-0.0507442zm0.347347 0c0.0280195,0 0.0507419,0.0227247 0.0507419,0.0507442 0,0.0280195 -0.0227224,0.0507487 -0.0507419,0.0507487 -0.0280218,0 -0.050751,-0.0227292 -0.050751,-0.0507487 0,-0.0280195 0.0227292,-0.0507442 0.050751,-0.0507442z"
       stroke-linejoin="round"
       stroke-linecap="round"
       stroke-width="0.00453134"
       stroke="#1F1A17"
       fill="#F8F3EA" /><g
       id="_251358648"><path
         d="M0.00226567 0.382406l0.0932867 0c0,0 0.0594806,0.00407141 0.0633028,0.069914 -0.00382218,0.0658426 -0.0633028,0.069914 -0.0633028,0.069914l-0.0932867 0 0 -0.069914 0 -0.069914z"
         stroke-width="0.00453134"
         stroke="#1F1A17"
         fill="#F8F3EA"
         id="_251358744" /><path
         d="M0.52337 0.382406l-0.0932867 0c0,0 -0.0594806,0.00407141 -0.0633028,0.069914 0.00382218,0.0658426 0.0633028,0.069914 0.0633028,0.069914l0.0932867 0 0 -0.069914 0 -0.069914z"
         stroke-width="0.00453134"
         stroke="#1F1A17"
         fill="#F8F3EA"
         id="_251358768" /><circle
         r="0.0507465"
         cy="0.452523"
         cx="0.0891446"
         stroke-width="0.00453134"
         stroke="#1F1A17"
         fill="#ACB192"
         id="_251358792" /><circle
         r="0.0507465"
         cy="0.452523"
         cx="0.43649"
         stroke-width="0.00453134"
         stroke="#1F1A17"
         fill="#ACB192"
         id="_251359056" /></g><g
       id="_251358096"><rect
         height="0.141839"
         width="0.227576"
         y="0.570627"
         x="0.149031"
         stroke-linejoin="round"
         stroke-linecap="round"
         stroke-width="0.00453134"
         stroke="#1F1A17"
         fill="none"
         id="_251358696" /><rect
         height="0.141839"
         width="0.0390823"
         y="0.570627"
         x="0.149029"
         stroke-linejoin="round"
         stroke-linecap="round"
         stroke-width="0.00453134"
         stroke="#1F1A17"
         fill="#1F1A17"
         id="_251358024" /><rect
         height="0.141839"
         width="0.0390823"
         y="0.570627"
         x="0.337523"
         stroke-linejoin="round"
         stroke-linecap="round"
         stroke-width="0.00453134"
         stroke="#1F1A17"
         fill="#1F1A17"
         id="_251358504" /><rect
         height="0.0530455"
         width="0.14941"
         y="0.570626"
         x="0.188113"
         stroke-linejoin="round"
         stroke-linecap="round"
         stroke-width="0.00453134"
         stroke="#1F1A17"
         fill="#383431"
         id="_251358312" /><rect
         height="0.061059"
         width="0.14941"
         y="0.623671"
         x="0.188113"
         stroke-linejoin="round"
         stroke-linecap="round"
         stroke-width="0.00453134"
         stroke="#1F1A17"
         fill="#1F1A17"
         id="_251358456" /><rect
         height="0.0222428"
         width="0.0621903"
         y="0.601428"
         x="0.231722"
         stroke-linejoin="round"
         stroke-linecap="round"
         stroke-width="0.00453134"
         stroke="#1F1A17"
         fill="#4D4948"
         id="_251358288" /><g
         id="g106"><rect
           height="0.0473126"
           width="0.011818"
           y="0.623671"
           x="0.210205"
           stroke-linejoin="round"
           stroke-linecap="round"
           stroke-width="0.00453134"
           stroke="#1F1A17"
           fill="#DEDEDD"
           id="_251358240" /><rect
           height="0.0473126"
           width="0.011818"
           y="0.623671"
           x="0.24134"
           stroke-linejoin="round"
           stroke-linecap="round"
           stroke-width="0.00453134"
           stroke="#1F1A17"
           fill="#DEDEDD"
           id="_251358600" /><rect
           height="0.0473126"
           width="0.011818"
           y="0.623671"
           x="0.272476"
           stroke-linejoin="round"
           stroke-linecap="round"
           stroke-width="0.00453134"
           stroke="#1F1A17"
           fill="#DEDEDD"
           id="_251358216" /><rect
           height="0.0473126"
           width="0.011818"
           y="0.623671"
           x="0.303611"
           stroke-linejoin="round"
           stroke-linecap="round"
           stroke-width="0.00453134"
           stroke="#1F1A17"
           fill="#DEDEDD"
           id="_251358144" /></g></g><g
       id="_246585032"><rect
         height="0.0704075"
         width="0.38333"
         y="0.00226567"
         x="0.0711533"
         stroke-width="0.00453134"
         stroke="#1F1A17"
         fill="#DB7835"
         id="_246584888" /><rect
         height="0.0704075"
         width="0.38333"
         y="0.18499"
         x="0.0711533"
         stroke-width="0.00453134"
         stroke="#1F1A17"
         fill="#DB7835"
         id="_246584768" /><rect
         height="0.112317"
         width="0.369919"
         y="0.0726732"
         x="0.0778588"
         stroke-width="0.00453134"
         stroke="#1F1A17"
         fill="#DB7835"
         id="_246585224" /><g
         id="g116"><rect
           height="0.0279389"
           width="0.0698488"
           y="0.211254"
           x="0.0862407"
           stroke-width="0.00453134"
           stroke="#1F1A17"
           fill="#AF6730"
           id="_246585152" /><rect
           height="0.0279389"
           width="0.0698488"
           y="0.211254"
           x="0.180676"
           stroke-width="0.00453134"
           stroke="#1F1A17"
           fill="#AF6730"
           id="_246584864" /><rect
           height="0.0279389"
           width="0.0698488"
           y="0.211254"
           x="0.275112"
           stroke-width="0.00453134"
           stroke="#1F1A17"
           fill="#AF6730"
           id="_246585296" /><rect
           height="0.0279389"
           width="0.0698488"
           y="0.211254"
           x="0.369547"
           stroke-width="0.00453134"
           stroke="#1F1A17"
           fill="#AF6730"
           id="_246584912" /></g></g></g></svg>