<?xml version="1.0" encoding="UTF-8" standalone="no"?>
<svg
   xmlns:dc="http://purl.org/dc/elements/1.1/"
   xmlns:cc="http://creativecommons.org/ns#"
   xmlns:rdf="http://www.w3.org/1999/02/22-rdf-syntax-ns#"
   xmlns:svg="http://www.w3.org/2000/svg"
   xmlns="http://www.w3.org/2000/svg"
   id="svg269"
   version="1.1"
   viewBox="0 0 1.31599 1.80127"
   clip-rule="evenodd"
   fill-rule="evenodd"
   image-rendering="optimizeQuality"
   text-rendering="geometricPrecision"
   shape-rendering="geometricPrecision"
   height="31.7552mm"
   width="23.2mm"
   xml:space="preserve"><metadata
     id="metadata275"><rdf:RDF><cc:Work
         rdf:about=""><dc:format>image/svg+xml</dc:format><dc:type
           rdf:resource="http://purl.org/dc/dcmitype/StillImage" /><dc:title></dc:title></cc:Work></rdf:RDF></metadata><defs
     id="defs273" /><g
     id="图层_x0020_1"><metadata
       id="CorelCorpID_0Corel-Layer" /><path
       id="path232"
       d="M0.136137 0.0537967l1.04371 0c0.0717497,0 0.130464,0.0570413 0.130464,0.126738l0 1.48834c0,0.069702 -0.0587146,0.126721 -0.130464,0.126721l-1.04371 0c-0.0717497,0 -0.130464,-0.0570186 -0.130464,-0.126721l0 -1.48834c0,-0.0696963 0.0587146,-0.126738 0.130464,-0.126738zm0.0870481 0.963944c0.0701501,0 0.127061,0.0568938 0.127061,0.127044 0,0.0701501 -0.0569108,0.127055 -0.127061,0.127055 -0.0701501,0 -0.127038,-0.0569051 -0.127038,-0.127055 0,-0.0701501 0.0568881,-0.127044 0.127038,-0.127044zm0.869624 0c0.0701501,0 0.127038,0.0568938 0.127038,0.127044 0,0.0701501 -0.0568881,0.127055 -0.127038,0.127055 -0.0701558,0 -0.127061,-0.0569051 -0.127061,-0.127055 0,-0.0701501 0.0569051,-0.127044 0.127061,-0.127044z"
       stroke-linejoin="round"
       stroke-linecap="round"
       stroke-width="0.0113447"
       stroke="#1F1A17"
       fill="#F8F3EA" /><g
       id="_296376424"><path
         d="M0.00567236 0.969231l0.233554 0c0,0 0.148917,0.0101932 0.158486,0.175038 -0.00956928,0.164845 -0.158486,0.175038 -0.158486,0.175038l-0.233554 0 0 -0.175038 0 -0.175038z"
         stroke-width="0.0113447"
         stroke="#1F1A17"
         fill="#F8F3EA"
         id="_296377528" /><path
         d="M1.31032 0.969231l-0.233554 0c0,0 -0.148917,0.0101932 -0.158486,0.175038 0.00956928,0.164845 0.158486,0.175038 0.158486,0.175038l0.233554 0 0 -0.175038 0 -0.175038z"
         stroke-width="0.0113447"
         stroke="#1F1A17"
         fill="#F8F3EA"
         id="_296377408" /><circle
         r="0.12705"
         cy="1.14478"
         cx="0.223184"
         stroke-width="0.0113447"
         stroke="#1F1A17"
         fill="#ACB192"
         id="_296376544" /><circle
         r="0.12705"
         cy="1.14478"
         cx="1.0928"
         stroke-width="0.0113447"
         stroke="#1F1A17"
         fill="#ACB192"
         id="_296376472" /></g><g
       id="_296376160"><rect
         height="0.355109"
         width="0.569762"
         y="1.44046"
         x="0.373116"
         stroke-linejoin="round"
         stroke-linecap="round"
         stroke-width="0.0113447"
         stroke="#1F1A17"
         fill="none"
         id="_296376976" /><rect
         height="0.355109"
         width="0.097847"
         y="1.44046"
         x="0.373112"
         stroke-linejoin="round"
         stroke-linecap="round"
         stroke-width="0.0113447"
         stroke="#1F1A17"
         fill="#1F1A17"
         id="_296377000" /><rect
         height="0.355109"
         width="0.097847"
         y="1.44046"
         x="0.845027"
         stroke-linejoin="round"
         stroke-linecap="round"
         stroke-width="0.0113447"
         stroke="#1F1A17"
         fill="#1F1A17"
         id="_296376664" /><rect
         height="0.132806"
         width="0.374066"
         y="1.44046"
         x="0.470962"
         stroke-linejoin="round"
         stroke-linecap="round"
         stroke-width="0.0113447"
         stroke="#1F1A17"
         fill="#383431"
         id="_296377144" /><rect
         height="0.152868"
         width="0.374066"
         y="1.57326"
         x="0.470962"
         stroke-linejoin="round"
         stroke-linecap="round"
         stroke-width="0.0113447"
         stroke="#1F1A17"
         fill="#1F1A17"
         id="_296376568" /><rect
         height="0.0556875"
         width="0.155701"
         y="1.51758"
         x="0.580143"
         stroke-linejoin="round"
         stroke-linecap="round"
         stroke-width="0.0113447"
         stroke="#1F1A17"
         fill="#4D4948"
         id="_296377120" /><g
         id="g249"><rect
           height="0.118452"
           width="0.0295877"
           y="1.57326"
           x="0.526271"
           stroke-linejoin="round"
           stroke-linecap="round"
           stroke-width="0.0113447"
           stroke="#1F1A17"
           fill="#DEDEDD"
           id="_296377096" /><rect
           height="0.118452"
           width="0.0295877"
           y="1.57326"
           x="0.604223"
           stroke-linejoin="round"
           stroke-linecap="round"
           stroke-width="0.0113447"
           stroke="#1F1A17"
           fill="#DEDEDD"
           id="_296376616" /><rect
           height="0.118452"
           width="0.0295877"
           y="1.57326"
           x="0.682174"
           stroke-linejoin="round"
           stroke-linecap="round"
           stroke-width="0.0113447"
           stroke="#1F1A17"
           fill="#DEDEDD"
           id="_296376784" /><rect
           height="0.118452"
           width="0.0295877"
           y="1.57326"
           x="0.760125"
           stroke-linejoin="round"
           stroke-linecap="round"
           stroke-width="0.0113447"
           stroke="#1F1A17"
           fill="#DEDEDD"
           id="_296375656" /></g></g><rect
       id="rect252"
       height="0.611861"
       width="0.524759"
       y="0.00567236"
       x="0.395618"
       stroke-width="0.0113447"
       stroke="#1F1A17"
       fill="#DB7835" /><rect
       id="rect254"
       height="0.198189"
       width="0.524759"
       y="0.00567236"
       x="0.395618"
       stroke-width="0.0113447"
       stroke="#1F1A17"
       fill="#DB7835" /><path
       id="path256"
       d="M0.589761 0.770131l0.0204942 0.137668 -0.0366605 0 -0.00176978 -0.0247599 -0.0128592 0 -0.00212146 0.0247599 -0.0370632 0 0.0181969 -0.137668 0.051783 0zm-0.0189514 0.0885286c-0.00183217,-0.0155877 -0.00363031,-0.0348623 -0.00545681,-0.0577617 -0.00363031,0.0263254 -0.00589359,0.0455718 -0.00679549,0.0577617l0.0122523 0zm0.0455661 -0.0885286l0.0267906 0c0.0173007,0 0.0289688,0.000782786 0.0350609,0.00238239 0.00609779,0.00159393 0.0107378,0.00418053 0.013903,0.00780517 0.00319354,0.00363031 0.00516752,0.00769172 0.00597867,0.0121332 0.000782786,0.00444146 0.0011912,0.0131769 0.0011912,0.0262404l0 0.0482094c0,0.0123658 -0.000578581,0.0206077 -0.00176978,0.0247882 -0.00116283,0.00415217 -0.00316518,0.0074308 -0.00606943,0.00977915 -0.00289858,0.00235403 -0.00647217,0.003982 -0.0107094,0.00493496 -0.00426562,0.000930268 -0.0106527,0.0013954 -0.0192123,0.0013954l-0.0451634 0 0 -0.137668zm0.0358153 0.0235403l0 0.0905593c0.00513916,0 0.0083327,-0.00101535 0.0095239,-0.00307442 0.00118552,-0.0020931 0.00176978,-0.00772576 0.00176978,-0.0168923l0 -0.0534961c0,-0.0062396 -0.000204205,-0.0102159 -0.000584253,-0.0119857 -0.000402738,-0.00174142 -0.00130464,-0.00305173 -0.00272841,-0.00386288 -0.00141809,-0.000811148 -0.00408977,-0.00124792 -0.00798102,-0.00124792zm0.144027 0.0364846l-0.0357926 0 0 -0.0239771c0,-0.00696566 -0.000402738,-0.0113164 -0.00115716,-0.0130578 -0.000754424,-0.00171305 -0.00243912,-0.0025866 -0.00505408,-0.0025866 -0.0029553,0 -0.00481584,0.00104939 -0.00562698,0.00313682 -0.000782786,0.00211579 -0.0011912,0.00664801 -0.0011912,0.0136137l0 0.0639446c0,0.00670473 0.00040841,0.0110554 0.0011912,0.0130861 0.000811148,0.00206474 0.00258093,0.00308009 0.00536606,0.00308009 0.00267168,0 0.0044131,-0.00101535 0.00522425,-0.00308009 0.00081682,-0.00203071 0.00124792,-0.00681818 0.00124792,-0.0143681l0 -0.0172383 0.0357926 0 0 0.00533769c0,0.0142263 -0.00101535,0.0243288 -0.0030177,0.0302734 -0.00200234,0.00595031 -0.00647784,0.0111802 -0.0133527,0.0156501 -0.00688058,0.00446982 -0.0153834,0.0067331 -0.0254576,0.0067331 -0.0105052,0 -0.0191556,-0.00191726 -0.0259454,-0.00571774 -0.00679549,-0.00380616 -0.011322,-0.00905876 -0.0135286,-0.0157635 -0.00220655,-0.0067331 -0.00330699,-0.0168356 -0.00330699,-0.0303301l0 -0.0402c0,-0.00992664 0.000346014,-0.0173574 0.00101535,-0.0223207 0.000697701,-0.00496332 0.00270004,-0.00975079 0.00609212,-0.0143397 0.00336938,-0.00458327 0.00804341,-0.00821358 0.0140221,-0.0108569 0.00597867,-0.00260929 0.0128592,-0.00394796 0.0206077,-0.00394796 0.0105676,0 0.0192747,0.00206474 0.0261212,0.00612615 0.00685221,0.00409545 0.0113504,0.00917221 0.0135286,0.01527 0.00214415,0.00609212 0.0032219,0.015582 0.0032219,0.0284412l0 0.0130918z"
       fill-rule="nonzero"
       fill="#C2C0A9" /><rect
       id="rect258"
       height="0.21809"
       width="0.262379"
       y="0.399443"
       x="0.657997"
       stroke-width="0.0113447"
       stroke="#1F1A17"
       fill="#2E2C2C" /><rect
       id="rect260"
       height="0.21809"
       width="0.262379"
       y="0.399443"
       x="0.395618"
       stroke-width="0.0113447"
       stroke="#1F1A17"
       fill="#9C2829" /><polygon
       id="polygon262"
       points="0.851745,0.489604 0.851745,0.527365 0.72663,0.527365 0.72663,0.489604 "
       fill-rule="nonzero"
       fill="white" /><polygon
       id="polygon264"
       points="0.470386,0.492202 0.512373,0.492202 0.512373,0.443857 0.540956,0.443857 0.540956,0.492202 0.583232,0.492202 0.583232,0.524994 0.540956,0.524994 0.540956,0.573113 0.512373,0.573113 0.512373,0.524994 0.470386,0.524994 "
       fill-rule="nonzero"
       fill="white" /><polygon
       id="polygon266"
       points="0.658,0.734282 0.699981,0.702375 0.741962,0.670473 0.658,0.670473 0.574032,0.670473 0.616013,0.702375 "
       stroke-linejoin="round"
       stroke-linecap="round"
       stroke-width="0.0113447"
       stroke="#C1BFA8"
       fill="#C2C0A9" /></g></svg>