<?xml version="1.0" encoding="UTF-8" standalone="no"?>
<svg
   xmlns:dc="http://purl.org/dc/elements/1.1/"
   xmlns:cc="http://creativecommons.org/ns#"
   xmlns:rdf="http://www.w3.org/1999/02/22-rdf-syntax-ns#"
   xmlns:svg="http://www.w3.org/2000/svg"
   xmlns="http://www.w3.org/2000/svg"
   id="svg506"
   version="1.1"
   viewBox="0 0 1.3351 1.77857"
   clip-rule="evenodd"
   fill-rule="evenodd"
   image-rendering="optimizeQuality"
   text-rendering="geometricPrecision"
   shape-rendering="geometricPrecision"
   height="30.9062mm"
   width="23.2mm"
   xml:space="preserve"><metadata
     id="metadata512"><rdf:RDF><cc:Work
         rdf:about=""><dc:format>image/svg+xml</dc:format><dc:type
           rdf:resource="http://purl.org/dc/dcmitype/StillImage" /><dc:title></dc:title></cc:Work></rdf:RDF></metadata><defs
     id="defs510" /><g
     id="图层_x0020_1"><metadata
       id="CorelCorpID_0Corel-Layer" /><g
       id="_297582632"><rect
         style="fill:#f8f3ea;stroke:#1f1a17;stroke-width:0.0115095;stroke-linecap:round;stroke-linejoin:round"
         ry="0.16579907"
         rx="0.16579907"
         height="1.7670701"
         width="1.32359"
         y="0.00575295"
         x="0.00575674"
         id="_297585584" /><rect
         height="0.740589"
         width="0.595321"
         y="0.112428"
         x="0.369891"
         stroke-linejoin="round"
         stroke-linecap="round"
         stroke-width="0.0115095"
         stroke="#1F1A17"
         fill="#4D4948"
         id="_297585680" /><rect
         height="0.680155"
         width="0.595321"
         y="0.112428"
         x="0.369891"
         stroke-linejoin="round"
         stroke-linecap="round"
         stroke-width="0.0115095"
         stroke="#1F1A17"
         fill="#DEDEDD"
         id="_297584840" /><path
         d="M0.00575474 0.934472l0.236946 0c0,0 0.151079,0.0103413 0.160787,0.177574 -0.00970825,0.167233 -0.160787,0.177574 -0.160787,0.177574l-0.236946 0 0 -0.177574 0 -0.177574z"
         stroke-linejoin="round"
         stroke-linecap="round"
         stroke-width="0.0115095"
         stroke="#1F1A17"
         fill="none"
         id="_297585344" /><path
         d="M1.32935 0.934472l-0.23694 0c0,0 -0.151085,0.0103413 -0.160787,0.177574 0.00970249,0.167233 0.160787,0.177574 0.160787,0.177574l0.23694 0 0 -0.177574 0 -0.177574z"
         stroke-linejoin="round"
         stroke-linecap="round"
         stroke-width="0.0115095"
         stroke="#1F1A17"
         fill="none"
         id="_297585248" /><g
         id="g461"><circle
           r="0.128895"
           cy="1.11256"
           cx="0.226426"
           stroke-linejoin="round"
           stroke-linecap="round"
           stroke-width="0.0115095"
           stroke="#1F1A17"
           fill="#ACB192"
           id="_297584696" /><circle
           r="0.128895"
           cy="1.11256"
           cx="1.10868"
           stroke-linejoin="round"
           stroke-linecap="round"
           stroke-width="0.0115095"
           stroke="#1F1A17"
           fill="#ACB192"
           id="_297585080" /></g><g
         id="g475"><rect
           height="0.360259"
           width="0.578027"
           y="1.41253"
           x="0.378545"
           stroke-linejoin="round"
           stroke-linecap="round"
           stroke-width="0.0115095"
           stroke="#1F1A17"
           fill="none"
           id="_297585056" /><rect
           height="0.360259"
           width="0.0992664"
           y="1.41253"
           x="0.378541"
           stroke-linejoin="round"
           stroke-linecap="round"
           stroke-width="0.0115095"
           stroke="#1F1A17"
           fill="#1F1A17"
           id="_297584984" /><rect
           height="0.360259"
           width="0.0992664"
           y="1.41253"
           x="0.857302"
           stroke-linejoin="round"
           stroke-linecap="round"
           stroke-width="0.0115095"
           stroke="#1F1A17"
           fill="#1F1A17"
           id="_297585224" /><rect
           height="0.134732"
           width="0.379492"
           y="1.41253"
           x="0.47781"
           stroke-linejoin="round"
           stroke-linecap="round"
           stroke-width="0.0115095"
           stroke="#1F1A17"
           fill="#383431"
           id="_297585200" /><rect
           height="0.155085"
           width="0.379492"
           y="1.54726"
           x="0.47781"
           stroke-linejoin="round"
           stroke-linecap="round"
           stroke-width="0.0115095"
           stroke="#1F1A17"
           fill="#1F1A17"
           id="_297584768" /><rect
           height="0.0564951"
           width="0.157959"
           y="1.49077"
           x="0.588575"
           stroke-linejoin="round"
           stroke-linecap="round"
           stroke-width="0.0115095"
           stroke="#1F1A17"
           fill="#4D4948"
           id="_297584192" /><g
           id="g473"><rect
             height="0.12017"
             width="0.0300169"
             y="1.54726"
             x="0.533922"
             stroke-linejoin="round"
             stroke-linecap="round"
             stroke-width="0.0115095"
             stroke="#1F1A17"
             fill="#DEDEDD"
             id="_297584336" /><rect
             height="0.12017"
             width="0.0300169"
             y="1.54726"
             x="0.613004"
             stroke-linejoin="round"
             stroke-linecap="round"
             stroke-width="0.0115095"
             stroke="#1F1A17"
             fill="#DEDEDD"
             id="_297584024" /><rect
             height="0.12017"
             width="0.0300169"
             y="1.54726"
             x="0.692086"
             stroke-linejoin="round"
             stroke-linecap="round"
             stroke-width="0.0115095"
             stroke="#1F1A17"
             fill="#DEDEDD"
             id="_297583976" /><rect
             height="0.12017"
             width="0.0300169"
             y="1.54726"
             x="0.771168"
             stroke-linejoin="round"
             stroke-linecap="round"
             stroke-width="0.0115095"
             stroke="#1F1A17"
             fill="#DEDEDD"
             id="_297584504" /></g></g><g
         id="g480"><rect
           height="0.0604345"
           width="0.149919"
           y="0.792583"
           x="0.420167"
           stroke-linejoin="round"
           stroke-linecap="round"
           stroke-width="0.0115095"
           stroke="#1F1A17"
           fill="#4BAAD7"
           id="_297584600" /><rect
           height="0.0604345"
           width="0.149919"
           y="0.792583"
           x="0.765014"
           stroke-linejoin="round"
           stroke-linecap="round"
           stroke-width="0.0115095"
           stroke="#1F1A17"
           fill="#4BAAD7"
           id="_297584288" /><rect
           height="0.0424465"
           width="0.194928"
           y="0.810571"
           x="0.570086"
           stroke-linejoin="round"
           stroke-linecap="round"
           stroke-width="0.0115095"
           stroke="#1F1A17"
           fill="#4BAAD7"
           id="_297584456" /></g><circle
         r="0.0306257"
         cy="0.714326"
         cx="0.894535"
         stroke-linejoin="round"
         stroke-linecap="round"
         stroke-width="0.0115095"
         stroke="#1F1A17"
         fill="#4BAAD7"
         id="_297584624" /><circle
         r="0.0306257"
         cy="0.180765"
         cx="0.427846"
         stroke-linejoin="round"
         stroke-linecap="round"
         stroke-width="0.0115095"
         stroke="#1F1A17"
         fill="#4BAAD7"
         id="_297584216" /><path
         d="M0.713013 0.149462l0.0359729 0.00719343c0.00216954,0.000431606 0.00326294,0.00252633 0.00314784,0.00471889l-0.000966797 0.0188986c-0.00010934,0.00220407 -0.00255511,0.00357945 -0.00471889,0.00314784l-0.0413823 -0.00826956c-0.00215803,-0.000431606 -0.00389021,-0.00264143 -0.00314784,-0.00472464l0.00637625 -0.0178167c0.000742362,-0.00207746 0.00255511,-0.00357945 0.00471889,-0.00314784z"
         stroke-width="0.0115095"
         stroke="#1F1A17"
         fill="#1F1A17"
         id="_297583760" /><path
         d="M0.810262 0.184019l0.0310699 0.0195028c0.00187029,0.00117397 0.00215227,0.0035219 0.00126604,0.00553031l-0.00761352 0.0173218c-0.00088623,0.00201991 -0.00366577,0.00244001 -0.00553606,0.00126604l-0.0357427 -0.022432c-0.00186454,-0.00116821 -0.00269897,-0.00384992 -0.00126604,-0.00553031l0.0122921 -0.0143926c0.00143293,-0.00167463 0.00366002,-0.00244001 0.00553031,-0.00126604z"
         stroke-width="0.0115095"
         stroke="#1F1A17"
         fill="#1F1A17"
         id="_297583640" /><path
         d="M0.888889 0.250866l0.0221212 0.0292629c0.00132935,0.00176095 0.000759626,0.00405709 -0.000782645,0.00562238l-0.0132704 0.0134891c-0.00154803,0.00157104 -0.00429304,0.000978306 -0.00562238,-0.000782645l-0.0254475 -0.0336652c-0.00132359,-0.0017552 -0.00115095,-0.00456351 0.000782645,-0.00562238l0.0166024 -0.00908674c0.00193359,-0.00105887 0.00428728,-0.000984061 0.00561663,0.000782645z"
         stroke-width="0.0115095"
         stroke="#1F1A17"
         fill="#1F1A17"
         id="_297583472" /><path
         d="M0.938685 0.341296l0.010278 0.0352133c0.000621512,0.0021235 -0.000730852,0.00406285 -0.00272775,0.00497785l-0.0171952 0.00789551c-0.00200265,0.000920759 -0.00436209,-0.000610003 -0.00497785,-0.00272775l-0.011826 -0.0405076c-0.000615757,-0.00211199 0.000540946,-0.00467285 0.00272775,-0.00497785l0.0187432 -0.00260114c0.0021868,-0.000299247 0.00435634,0.000610003 0.00497785,0.00272775z"
         stroke-width="0.0115095"
         stroke="#1F1A17"
         fill="#1F1A17"
         id="_297583592" /><path
         d="M0.953083 0.443501l-0.00289464 0.0365714c-0.000172642,0.00220407 -0.0021235,0.00353341 -0.00431606,0.00368303l-0.0188813 0.0012718c-0.00219831,0.000149623 -0.00385568,-0.00211774 -0.00368303,-0.00431606l0.003332 -0.0420672c0.000172642,-0.00219256 0.00216378,-0.00417794 0.00431606,-0.00368303l0.0184439 0.00422398c0.00215227,0.000494908 0.00386143,0.00211774 0.00368303,0.00431606z"
         stroke-width="0.0115095"
         stroke="#1F1A17"
         fill="#1F1A17"
         id="_297583736" /><path
         d="M0.930237 0.544168l-0.0156989 0.0331588c-0.000943778,0.00199114 -0.00323992,0.00254935 -0.0053404,0.00190482l-0.0181044 -0.0055188c-0.00210624,-0.000638776 -0.00285435,-0.00334926 -0.00191057,-0.0053404l0.0180584 -0.0381424c0.000943778,-0.00199114 0.00350464,-0.00313633 0.0053404,-0.00191057l0.015745 0.0105024c0.00183576,0.00123151 0.00285435,0.00334926 0.00191057,0.00534616z"
         stroke-width="0.0115095"
         stroke="#1F1A17"
         fill="#1F1A17"
         id="_297583256" /><path
         d="M0.873138 0.630144l-0.0264488 0.0254187c-0.00159406,0.00153076 -0.00393624,0.00123151 -0.00567418,-0.000115095l-0.0149623 -0.0115901c-0.00174369,-0.00134661 -0.00147897,-0.00414341 0.000115095,-0.00566842l0.0304253 -0.0292456c0.00158831,-0.00151925 0.00439087,-0.00168038 0.00567418,0.000115095l0.0109858 0.0154112c0.00127755,0.00179548 0.00147897,0.00414341 -0.000115095,0.00567418z"
         stroke-width="0.0115095"
         stroke="#1F1A17"
         fill="#1F1A17"
         id="_297583112" /><path
         d="M0.789217 0.690235l-0.0337516 0.0143638c-0.00203718,0.000863211 -0.0041204,-0.000247454 -0.00526559,-0.0021235l-0.00986938 -0.0161421c-0.00115095,-0.0018818 9.20759e-005,-0.00440238 0.00211774,-0.00526559l0.038833 -0.0165276c0.00202567,-0.000857457 0.00470162,-1.15095e-005 0.00525983,0.0021235l0.00479945 0.0183058c0.00055821,0.00213501 -9.20759e-005,0.00439662 -0.0021235,0.00526559z"
         stroke-width="0.0115095"
         stroke="#1F1A17"
         fill="#1F1A17"
         id="_297583184" /><path
         d="M0.689424 0.716598l-0.0366577 0.00143869c-0.00220407,8.63211e-005 -0.00375785,-0.00169189 -0.00416643,-0.00384992l-0.00348737 -0.0186051c-0.000408587,-0.00216378 0.00164586,-0.00408011 0.00384992,-0.00416643l0.0421707 -0.00165161c0.00219831,-8.63211e-005 0.00440238,0.00165737 0.00416643,0.00384992l-0.00202567 0.018818c-0.000235944,0.00219256 -0.0016401,0.00408011 -0.00384992,0.00416643z"
         stroke-width="0.0115095"
         stroke="#1F1A17"
         fill="#1F1A17"
         id="_297583424" /><path
         d="M0.586776 0.705796l-0.0347759 -0.0116764c-0.00209473,-0.000702079 -0.00291765,-0.00291765 -0.00252633,-0.00508144l0.00334351 -0.0186281c0.000385568,-0.00216954 0.00298671,-0.00322841 0.00507568,-0.00252633l0.040007 0.0134316c0.00208897,0.000702079 0.00352766,0.00311332 0.00252633,0.00508144l-0.00856881 0.0168729c-0.00100133,0.00196237 -0.00298671,0.00322841 -0.00508144,0.00252633z"
         stroke-width="0.0115095"
         stroke="#1F1A17"
         fill="#1F1A17"
         id="_297583136" /><path
         d="M0.494655 0.659234l-0.0283594 -0.0232664c-0.00170916,-0.0013984 -0.00169189,-0.0037636 -0.00055821,-0.0056454l0.00974278 -0.0162226c0.00113368,-0.00189331 0.003942,-0.00195661 0.0056454,-0.00055821l0.0326294 0.0267653c0.00169765,0.00139265 0.00219256,0.00416068 0.00055821,0.0056454l-0.014007 0.0127237c-0.00163435,0.00148472 -0.003942,0.00196237 -0.00565116,0.00055821z"
         stroke-width="0.0115095"
         stroke="#1F1A17"
         fill="#1F1A17"
         id="_297583832" /><path
         d="M0.425086 0.58299l-0.018254 -0.0318237c-0.00109916,-0.00191057 -0.000235944,-0.00411464 0.00148472,-0.00547276l0.0148703 -0.0117051c0.00173218,-0.00136387 0.00437936,-0.000431606 0.00547851,0.00148472l0.0209933 0.0366059c0.0010934,0.00191057 0.000569719,0.0046671 -0.00148472,0.00547851l-0.0176153 0.0069172c-0.00205444,0.000811419 -0.0043736,0.000431606 -0.00547276,-0.00148472z"
         stroke-width="0.0115095"
         stroke="#1F1A17"
         fill="#1F1A17"
         id="_297582560" /><path
         d="M0.387127 0.487007l-0.00575474 -0.0362261c-0.000345285,-0.00218105 0.00123727,-0.00393624 0.003332,-0.00459228l0.0180584 -0.00566267c0.00210624,-0.000661795 0.004247,0.0011567 0.00459228,0.003332l0.00661795 0.0416758c0.000345285,0.00217529 -0.00112217,0.00456927 -0.003332,0.00459228l-0.0189216 0.00021868c-0.00220982,2.3019e-005 -0.004247,-0.0011567 -0.00459228,-0.00333775z"
         stroke-width="0.0115095"
         stroke="#1F1A17"
         fill="#1F1A17"
         id="_297582440" /><path
         d="M0.38574 0.383801l0.00748692 -0.0359096c0.000454625,-0.00216378 0.00255511,-0.00323992 0.00474766,-0.00310756l0.0188928 0.00112217c0.00219831,0.000126604 0.00355643,0.00258388 0.00310756,0.00474191l-0.00861485 0.0413133c-0.00044887,0.00215227 -0.00267595,0.00387294 -0.00474766,0.00310756l-0.0177649 -0.00652012c-0.00207171,-0.000759626 -0.00355643,-0.00258388 -0.00310756,-0.00474766z"
         stroke-width="0.0115095"
         stroke="#1F1A17"
         fill="#1F1A17"
         id="_297583016" /><path
         d="M0.421103 0.286834l0.019756 -0.0309087c0.00119123,-0.00186454 0.00353917,-0.0021235 0.00554182,-0.00122001l0.0172585 0.00775739c0.00201416,0.000903494 0.00241124,0.00368303 0.00122001,0.00554182l-0.0227255 0.0355585c-0.00118548,0.00185303 -0.00387294,0.00266445 -0.00554182,0.00122001l-0.014289 -0.0124072c-0.00166888,-0.00145019 -0.00241124,-0.00368303 -0.00122001,-0.00554182z"
         stroke-width="0.0115095"
         stroke="#1F1A17"
         fill="#1F1A17"
         id="_297582800" /><path
         d="M0.488601 0.208748l0.029447 -0.0218795c0.00177246,-0.00131208 0.00406285,-0.000725097 0.00561663,0.000828683l0.0133798 0.0133855c0.00155954,0.00155954 0.000938023,0.00429879 -0.000828683,0.00561663l-0.0338782 0.0251655c-0.00176671,0.00131208 -0.00456927,0.00111642 -0.00561087,-0.000828683l-0.00895438 -0.0166772c-0.00104161,-0.0019451 -0.000943778,-0.00429304 0.000828683,-0.00561087z"
         stroke-width="0.0115095"
         stroke="#1F1A17"
         fill="#1F1A17"
         id="_297582416" /><path
         d="M0.579433 0.159729l0.0352996 -0.00999023c0.0021235,-0.000598493 0.00405709,0.000765381 0.00495483,0.00276803l0.00775164 0.0172642c0.000903494,0.0020084 -0.000644531,0.00435058 -0.00276803,0.00495483l-0.0406055 0.0114922c-0.00211774,0.000598493 -0.0046671,-0.000581229 -0.00494908,-0.00276803l-0.00245152 -0.0187662c-0.000281982,-0.0021868 0.000644531,-0.00435058 0.00276803,-0.00495483z"
         stroke-width="0.0115095"
         stroke="#1F1A17"
         fill="#1F1A17"
         id="_297582536" /><circle
         r="0.269176"
         cy="0.431798"
         cx="0.667553"
         stroke-linejoin="round"
         stroke-linecap="round"
         stroke-width="0.0115095"
         stroke="#1F1A17"
         fill="#283236"
         id="_297582920" /><circle
         r="0.22661"
         cy="0.431624"
         cx="0.667553"
         stroke-linejoin="round"
         stroke-linecap="round"
         stroke-width="0.0115095"
         stroke="#1F1A17"
         fill="#4BAAD7"
         id="_297582344" /><rect
         ry="0.0446913"
         rx="0.0446913"
         height="0.118927"
         width="0.0550745"
         y="0.186593"
         x="0.640021"
         stroke-width="0.0115095"
         stroke="#1F1A17"
         fill="#283236"
         id="_297582896" /></g></g></svg>