<?xml version="1.0" encoding="UTF-8" standalone="no"?>
<svg
   xmlns:dc="http://purl.org/dc/elements/1.1/"
   xmlns:cc="http://creativecommons.org/ns#"
   xmlns:rdf="http://www.w3.org/1999/02/22-rdf-syntax-ns#"
   xmlns:svg="http://www.w3.org/2000/svg"
   xmlns="http://www.w3.org/2000/svg"
   id="svg29"
   version="1.1"
   viewBox="0 0 0.478946 0.638047"
   clip-rule="evenodd"
   fill-rule="evenodd"
   image-rendering="optimizeQuality"
   text-rendering="geometricPrecision"
   shape-rendering="geometricPrecision"
   height="30.9068mm"
   width="23.2mm"
   xml:space="preserve"><metadata
     id="metadata35"><rdf:RDF><cc:Work
         rdf:about=""><dc:format>image/svg+xml</dc:format><dc:type
           rdf:resource="http://purl.org/dc/dcmitype/StillImage" /><dc:title></dc:title></cc:Work></rdf:RDF></metadata><defs
     id="defs33" /><g
     id="图层_x0020_1"><metadata
       id="CorelCorpID_0Corel-Layer" /><path
       id="path3"
       d="M0.0495462 0.00206442l0.379854 0c0.0261129,0 0.0474818,0.0207599 0.0474818,0.0461254l0 0.541674c0,0.0253676 -0.0213689,0.0461192 -0.0474818,0.0461192l-0.379854 0c-0.0261129,0 -0.0474818,-0.0207516 -0.0474818,-0.0461192l0 -0.541674c0,-0.0253656 0.0213689,-0.0461254 0.0474818,-0.0461254zm0.0316807 0.350822c0.0255307,0 0.0462431,0.0207062 0.0462431,0.0462369 0,0.0255307 -0.0207124,0.046241 -0.0462431,0.046241 -0.0255307,0 -0.0462348,-0.0207103 -0.0462348,-0.046241 0,-0.0255307 0.0207041,-0.0462369 0.0462348,-0.0462369zm0.316495 0c0.0255307,0 0.0462348,0.0207062 0.0462348,0.0462369 0,0.0255307 -0.0207041,0.046241 -0.0462348,0.046241 -0.0255328,0 -0.0462431,-0.0207103 -0.0462431,-0.046241 0,-0.0255307 0.0207103,-0.0462369 0.0462431,-0.0462369z"
       stroke-linejoin="round"
       stroke-linecap="round"
       stroke-width="0.00412885"
       stroke="#1F1A17"
       fill="#F8F3EA" /><g
       id="_246584048"><path
         d="M0.00206442 0.335232l0.0850006 0c0,0 0.0541973,0.00370977 0.05768,0.063704 -0.00348268,0.0599942 -0.05768,0.063704 -0.05768,0.063704l-0.0850006 0 0 -0.063704 0 -0.063704z"
         stroke-width="0.00412885"
         stroke="#1F1A17"
         fill="#F8F3EA"
         id="_246584096" /><path
         d="M0.476882 0.335232l-0.0850006 0c0,0 -0.0541973,0.00370977 -0.05768,0.063704 0.00348268,0.0599942 0.05768,0.063704 0.05768,0.063704l0.0850006 0 0 -0.063704 0 -0.063704z"
         stroke-width="0.00412885"
         stroke="#1F1A17"
         fill="#F8F3EA"
         id="_246584216" /><circle
         r="0.0462391"
         cy="0.39912"
         cx="0.0812264"
         stroke-width="0.00412885"
         stroke="#1F1A17"
         fill="#ACB192"
         id="_246584336" /><circle
         r="0.0462391"
         cy="0.39912"
         cx="0.39772"
         stroke-width="0.00412885"
         stroke="#1F1A17"
         fill="#ACB192"
         id="_246584552" /></g><g
       id="_246587384"><rect
         height="0.12924"
         width="0.207362"
         y="0.506734"
         x="0.135793"
         stroke-linejoin="round"
         stroke-linecap="round"
         stroke-width="0.00412885"
         stroke="#1F1A17"
         fill="none"
         id="_246584144" /><rect
         height="0.12924"
         width="0.0356109"
         y="0.506733"
         x="0.135792"
         stroke-linejoin="round"
         stroke-linecap="round"
         stroke-width="0.00412885"
         stroke="#1F1A17"
         fill="#1F1A17"
         id="_246584168" /><rect
         height="0.12924"
         width="0.0356109"
         y="0.506733"
         x="0.307543"
         stroke-linejoin="round"
         stroke-linecap="round"
         stroke-width="0.00412885"
         stroke="#1F1A17"
         fill="#1F1A17"
         id="_246587816" /><rect
         height="0.0483338"
         width="0.136139"
         y="0.506733"
         x="0.171404"
         stroke-linejoin="round"
         stroke-linecap="round"
         stroke-width="0.00412885"
         stroke="#1F1A17"
         fill="#383431"
         id="_246587888" /><rect
         height="0.0556355"
         width="0.136139"
         y="0.555066"
         x="0.171404"
         stroke-linejoin="round"
         stroke-linecap="round"
         stroke-width="0.00412885"
         stroke="#1F1A17"
         fill="#1F1A17"
         id="_246587840" /><rect
         height="0.0202671"
         width="0.0566664"
         y="0.534799"
         x="0.21114"
         stroke-linejoin="round"
         stroke-linecap="round"
         stroke-width="0.00412885"
         stroke="#1F1A17"
         fill="#4D4948"
         id="_246587408" /><g
         id="g20"><rect
           height="0.0431101"
           width="0.0107683"
           y="0.555066"
           x="0.191533"
           stroke-linejoin="round"
           stroke-linecap="round"
           stroke-width="0.00412885"
           stroke="#1F1A17"
           fill="#DEDEDD"
           id="_246587552" /><rect
           height="0.0431101"
           width="0.0107683"
           y="0.555066"
           x="0.219903"
           stroke-linejoin="round"
           stroke-linecap="round"
           stroke-width="0.00412885"
           stroke="#1F1A17"
           fill="#DEDEDD"
           id="_246587480" /><rect
           height="0.0431101"
           width="0.0107683"
           y="0.555066"
           x="0.248273"
           stroke-linejoin="round"
           stroke-linecap="round"
           stroke-width="0.00412885"
           stroke="#1F1A17"
           fill="#DEDEDD"
           id="_246587576" /><rect
           height="0.0431101"
           width="0.0107683"
           y="0.555066"
           x="0.276643"
           stroke-linejoin="round"
           stroke-linecap="round"
           stroke-width="0.00412885"
           stroke="#1F1A17"
           fill="#DEDEDD"
           id="_246587456" /></g></g><g
       id="_247227472"><path
         d="M0.358074 0.252847l0 -0.144398c0,-0.0151137 -0.0123762,-0.0274796 -0.0274796,-0.0274796l-0.182241 0c-0.0151054,0 -0.0274796,0.0123762 -0.0274796,0.0274796l0 0.144398"
         stroke-linejoin="round"
         stroke-linecap="round"
         stroke-width="0.0206442"
         stroke="#1F1A17"
         fill="none"
         id="_247227520" /><rect
         ry="0.0135468"
         rx="0.0135468"
         height="0.0247507"
         width="0.165975"
         y="0.122562"
         x="0.156486"
         stroke-width="0.00412885"
         stroke="#1F1A17"
         fill="#DEDEDD"
         id="_247227352" /><rect
         ry="0.0135468"
         rx="0.0135468"
         height="0.0247507"
         width="0.165975"
         y="0.168059"
         x="0.156486"
         stroke-width="0.00412885"
         stroke="#1F1A17"
         fill="#DEDEDD"
         id="_247227736" /><rect
         ry="0.0135468"
         rx="0.0135468"
         height="0.0247507"
         width="0.165975"
         y="0.213557"
         x="0.156486"
         stroke-width="0.00412885"
         stroke="#1F1A17"
         fill="#DEDEDD"
         id="_247227496" /></g></g></svg>