<?xml version="1.0" encoding="UTF-8" standalone="no"?>
<svg
   xmlns:dc="http://purl.org/dc/elements/1.1/"
   xmlns:cc="http://creativecommons.org/ns#"
   xmlns:rdf="http://www.w3.org/1999/02/22-rdf-syntax-ns#"
   xmlns:svg="http://www.w3.org/2000/svg"
   xmlns="http://www.w3.org/2000/svg"
   id="svg334"
   version="1.1"
   viewBox="0 0 0.892698 1.18924"
   clip-rule="evenodd"
   fill-rule="evenodd"
   image-rendering="optimizeQuality"
   text-rendering="geometricPrecision"
   shape-rendering="geometricPrecision"
   height="30.9068mm"
   width="23.2mm"
   xml:space="preserve"><metadata
     id="metadata340"><rdf:RDF><cc:Work
         rdf:about=""><dc:format>image/svg+xml</dc:format><dc:type
           rdf:resource="http://purl.org/dc/dcmitype/StillImage" /><dc:title></dc:title></cc:Work></rdf:RDF></metadata><defs
     id="defs338" /><g
     id="图层_x0020_1"><metadata
       id="CorelCorpID_0Corel-Layer" /><path
       id="path244"
       d="M0.092348 0.00384783l0.708001 0c0.0486713,0 0.0885002,0.0386938 0.0885002,0.0859722l0 1.00961c0,0.0472822 -0.0398289,0.0859606 -0.0885002,0.0859606l-0.708001 0c-0.0486713,0 -0.0885002,-0.0386784 -0.0885002,-0.0859606l0 -1.00961c0,-0.0472783 0.0398289,-0.0859722 0.0885002,-0.0859722zm0.0590489 0.653889c0.0475862,0 0.0861915,0.0385938 0.0861915,0.0861799 0,0.0475862 -0.0386053,0.0861876 -0.0861915,0.0861876 -0.0475862,0 -0.0861761,-0.0386015 -0.0861761,-0.0861876 0,-0.0475862 0.0385899,-0.0861799 0.0861761,-0.0861799zm0.589908 0c0.0475862,0 0.0861761,0.0385938 0.0861761,0.0861799 0,0.0475862 -0.0385899,0.0861876 -0.0861761,0.0861876 -0.04759,0 -0.0861915,-0.0386015 -0.0861915,-0.0861876 0,-0.0475862 0.0386015,-0.0861799 0.0861915,-0.0861799z"
       stroke-linejoin="round"
       stroke-linecap="round"
       stroke-width="0.00769567"
       stroke="#1F1A17"
       fill="#F8F3EA" /><rect
       id="rect246"
       ry="0.11168"
       rx="0.11168"
       height="0.252018"
       width="0.516866"
       y="0.144118"
       x="0.187918"
       stroke-width="0.00769567"
       stroke="#1F1A17"
       fill="#4D4948" /><g
       id="_296382112"><path
         d="M0.00384783 0.624831l0.158431 0c0,0 0.101017,0.00691456 0.107508,0.118736 -0.0064913,0.111822 -0.107508,0.118736 -0.107508,0.118736l-0.158431 0 0 -0.118736 0 -0.118736z"
         stroke-width="0.00769567"
         stroke="#1F1A17"
         fill="#F8F3EA"
         id="_296382592" /><path
         d="M0.88885 0.624831l-0.158431 0c0,0 -0.101017,0.00691456 -0.107508,0.118736 0.0064913,0.111822 0.107508,0.118736 0.107508,0.118736l0.158431 0 0 -0.118736 0 -0.118736z"
         stroke-width="0.00769567"
         stroke="#1F1A17"
         fill="#F8F3EA"
         id="_296382616" /><circle
         r="0.0861839"
         cy="0.743911"
         cx="0.151396"
         stroke-width="0.00769567"
         stroke="#1F1A17"
         fill="#ACB192"
         id="_296382016" /><circle
         r="0.0861839"
         cy="0.743911"
         cx="0.741301"
         stroke-width="0.00769567"
         stroke="#1F1A17"
         fill="#ACB192"
         id="_296382424" /></g><g
       id="_296381344"><rect
         height="0.240887"
         width="0.386497"
         y="0.944489"
         x="0.253102"
         stroke-linejoin="round"
         stroke-linecap="round"
         stroke-width="0.00769567"
         stroke="#1F1A17"
         fill="none"
         id="_296382352" /><rect
         height="0.240887"
         width="0.0663743"
         y="0.944489"
         x="0.2531"
         stroke-linejoin="round"
         stroke-linecap="round"
         stroke-width="0.00769567"
         stroke="#1F1A17"
         fill="#1F1A17"
         id="_296382136" /><rect
         height="0.240887"
         width="0.0663743"
         y="0.944489"
         x="0.573222"
         stroke-linejoin="round"
         stroke-linecap="round"
         stroke-width="0.00769567"
         stroke="#1F1A17"
         fill="#1F1A17"
         id="_296381944" /><rect
         height="0.0900883"
         width="0.253747"
         y="0.944488"
         x="0.319476"
         stroke-linejoin="round"
         stroke-linecap="round"
         stroke-width="0.00769567"
         stroke="#1F1A17"
         fill="#383431"
         id="_296382280" /><rect
         height="0.103698"
         width="0.253747"
         y="1.03457"
         x="0.319476"
         stroke-linejoin="round"
         stroke-linecap="round"
         stroke-width="0.00769567"
         stroke="#1F1A17"
         fill="#1F1A17"
         id="_296381920" /><rect
         height="0.0377755"
         width="0.105619"
         y="0.996799"
         x="0.393538"
         stroke-linejoin="round"
         stroke-linecap="round"
         stroke-width="0.00769567"
         stroke="#1F1A17"
         fill="#4D4948"
         id="_296382184" /><g
         id="g263"><rect
           height="0.0803519"
           width="0.0200707"
           y="1.03457"
           x="0.356995"
           stroke-linejoin="round"
           stroke-linecap="round"
           stroke-width="0.00769567"
           stroke="#1F1A17"
           fill="#DEDEDD"
           id="_296382088" /><rect
           height="0.0803519"
           width="0.0200707"
           y="1.03457"
           x="0.409873"
           stroke-linejoin="round"
           stroke-linecap="round"
           stroke-width="0.00769567"
           stroke="#1F1A17"
           fill="#DEDEDD"
           id="_296381848" /><rect
           height="0.0803519"
           width="0.0200707"
           y="1.03457"
           x="0.462751"
           stroke-linejoin="round"
           stroke-linecap="round"
           stroke-width="0.00769567"
           stroke="#1F1A17"
           fill="#DEDEDD"
           id="_296381416" /><rect
           height="0.0803519"
           width="0.0200707"
           y="1.03457"
           x="0.515629"
           stroke-linejoin="round"
           stroke-linecap="round"
           stroke-width="0.00769567"
           stroke="#1F1A17"
           fill="#DEDEDD"
           id="_296381176" /></g></g><rect
       id="rect266"
       height="0.105408"
       width="0.0757515"
       y="0.227107"
       x="0.411003"
       stroke-width="0.00384783"
       stroke="white"
       fill="none" /><g
       id="_296379904"><rect
         height="0.0220981"
         width="0.0104392"
         y="0.21337"
         x="0.252645"
         fill="#DEDEDD"
         id="_296379952" /><rect
         height="0.0220981"
         width="0.0104392"
         y="0.21337"
         x="0.278591"
         fill="#DEDEDD"
         id="_296379760" /></g><g
       id="_296002664"><rect
         height="0.0220981"
         width="0.0104392"
         y="0.325646"
         x="0.252645"
         fill="#DEDEDD"
         id="_296002880" /><rect
         height="0.0220981"
         width="0.0104392"
         y="0.325646"
         x="0.278591"
         fill="#DEDEDD"
         id="_296002856" /></g><g
       id="_296002400"><rect
         height="0.0220981"
         width="0.0104392"
         y="0.21337"
         x="0.330483"
         fill="#DEDEDD"
         id="_296002424" /><rect
         height="0.0220981"
         width="0.0104392"
         y="0.21337"
         x="0.356429"
         fill="#DEDEDD"
         id="_296002352" /></g><g
       id="_296002256"><rect
         height="0.0220981"
         width="0.0104392"
         y="0.325646"
         x="0.330483"
         fill="#DEDEDD"
         id="_296002976" /><rect
         height="0.0220981"
         width="0.0104392"
         y="0.325646"
         x="0.356429"
         fill="#DEDEDD"
         id="_296002280" /></g><g
       id="_296002736"><rect
         height="0.0220981"
         width="0.0104392"
         y="0.21337"
         x="0.525826"
         fill="#DEDEDD"
         id="_296002544" /><rect
         height="0.0220981"
         width="0.0104392"
         y="0.21337"
         x="0.551772"
         fill="#DEDEDD"
         id="_296002520" /></g><g
       id="_296001848"><rect
         height="0.0220981"
         width="0.0104392"
         y="0.325646"
         x="0.525826"
         fill="white"
         id="_296002448" /><rect
         height="0.0220981"
         width="0.0104392"
         y="0.325646"
         x="0.551772"
         fill="white"
         id="_296002928" /></g><g
       id="_296001536"><rect
         height="0.0220981"
         width="0.0104392"
         y="0.21337"
         x="0.603664"
         fill="#DEDEDD"
         id="_296001632" /><rect
         height="0.0220981"
         width="0.0104392"
         y="0.21337"
         x="0.62961"
         fill="#DEDEDD"
         id="_296001560" /></g><g
       id="_296002040"><rect
         height="0.0220981"
         width="0.0104392"
         y="0.325646"
         x="0.603664"
         fill="white"
         id="_296001896" /><rect
         height="0.0220981"
         width="0.0104392"
         y="0.325646"
         x="0.62961"
         fill="white"
         id="_296002088" /></g><g
       id="_296001224"><rect
         height="0.0901778"
         width="0.0447349"
         y="0.235468"
         x="0.426525"
         fill="#1F1A17"
         id="_296001728" /><g
         id="g296"><rect
           height="0.0901778"
           width="0.0357887"
           transform="matrix(7.72525E-015 0.291689 0.24505 -6.49005E-015 0.47126 0.249359)"
           fill="#DEDEDD"
           id="_296001656" /><rect
           height="0.0901778"
           width="0.0357887"
           transform="matrix(7.72525E-015 0.291689 0.24505 -6.49005E-015 0.47126 0.275336)"
           fill="#DEDEDD"
           id="_296001464" /><rect
           height="0.0901778"
           width="0.0357887"
           transform="matrix(7.72525E-015 0.291689 0.24505 -6.49005E-015 0.47126 0.301312)"
           fill="#DEDEDD"
           id="_296001872" /></g><g
         id="g301"><rect
           height="0.0901778"
           width="0.0357887"
           transform="matrix(-7.72525E-015 0.291689 -0.24505 -6.49005E-015 0.426525 0.249359)"
           fill="#DEDEDD"
           id="_296001608" /><rect
           height="0.0901778"
           width="0.0357887"
           transform="matrix(-7.72525E-015 0.291689 -0.24505 -6.49005E-015 0.426525 0.275336)"
           fill="#DEDEDD"
           id="_296000816" /><rect
           height="0.0901778"
           width="0.0357887"
           transform="matrix(-7.72525E-015 0.291689 -0.24505 -6.49005E-015 0.426525 0.301312)"
           fill="#DEDEDD"
           id="_296000696" /></g><rect
         height="0.0364313"
         width="0.0447349"
         y="0.289215"
         x="0.426525"
         fill="#EE9A69"
         id="_296001128" /></g><rect
       id="rect305"
       height="0.156168"
       width="0.0626312"
       y="0.201727"
       x="0.239524"
       stroke-width="0.00384783"
       stroke="white"
       fill="none" /><rect
       id="rect307"
       height="0.156168"
       width="0.0626312"
       y="0.201727"
       x="0.317362"
       stroke-width="0.00384783"
       stroke="white"
       fill="none" /><rect
       id="rect309"
       height="0.156168"
       width="0.0626312"
       y="0.201727"
       x="0.512705"
       stroke-width="0.00384783"
       stroke="white"
       fill="none" /><rect
       id="rect311"
       height="0.156168"
       width="0.0626312"
       y="0.201727"
       x="0.590542"
       stroke-width="0.00384783"
       stroke="white"
       fill="none" /><path
       id="path313"
       d="M0.257966 0.195431l0 -0.0180348 0.0049791 0c0.00635277,0 0.00953493,0.0029282 0.00953493,0.0087923 0,0.00278198 -0.000885002,0.00501758 -0.00265116,0.00671062 -0.00176231,0.00168535 -0.00412488,0.00253187 -0.00708771,0.00253187l-0.00477516 0zm0.00211246 -0.0161224l0 0.0142139 0.00268964 0c0.00236642,0 0.00420183,-0.00063874 0.00552164,-0.00190468 0.00131596,-0.00126594 0.00197394,-0.00305903 0.00197394,-0.00538312 0,-0.0046174 -0.00245492,-0.0069261 -0.0073686,-0.0069261l-0.00281661 0zm0.0259998 0.0161224l-0.0102006 0 0 -0.00181233 0.00407101 0 0 -0.01401 -0.0041749 0.00124285 0 -0.0019624 0.00623734 -0.00189698 0 0.0166265 0.00406716 0 0 0.00181233z"
       fill-rule="nonzero"
       fill="white" /><path
       id="path315"
       d="M0.350061 0.195431l-0.00251648 0 -0.00302055 -0.00505605c-0.000273196,-0.000469436 -0.000546392,-0.000869611 -0.000804197,-0.00120437 -0.000261653,-0.000330914 -0.000527153,-0.000600262 -0.000796502,-0.000804197 -0.000277044,-0.000211631 -0.000569479,-0.000365544 -0.000881154,-0.00046174 -0.000311675,-9.61959e-005 -0.000669523,-0.000146218 -0.00106585,-0.000146218l-0.00173153 0 0 0.00767258 -0.00211246 0 0 -0.0180348 0.00538312 0c0.000784958,0 0.00151605,0.000100044 0.00218172,0.000296283 0.000661827,0.00019624 0.00124285,0.000492523 0.00173153,0.000896545 0.000496371,0.000404023 0.000877306,0.000908089 0.0011505,0.0015045 0.000280892,0.000600262 0.000415566,0.00130057 0.000415566,0.00210861 0,0.000623349 -9.2348e-005,0.00120437 -0.000280892,0.00172768 -0.000188544,0.000523305 -0.000454044,0.000992741 -0.000804197,0.00140061 -0.000346305,0.000411718 -0.000765719,0.000761871 -0.00125824,0.00105046 -0.000492523,0.000288588 -0.00104276,0.00051561 -0.00165457,0.000673371l0 5.38697e-005c0.000303979,0.000130826 0.000565632,0.000280892 0.000788806,0.000454044 0.000219327,0.000177 0.000434805,0.000377088 0.000631045,0.000615653 0.000200087,0.00023087 0.000404023,0.000496371 0.000600262,0.000796502 0.00019624,0.000296283 0.000415566,0.000642588 0.00065798,0.00103507l0.00338609 0.0054216zm-0.0108163 -0.0161224l0 0.00654132 0.00286664 0c0.000527153,0 0.00101583,-8.08045e-005 0.00146218,-0.000242414 0.000450197,-0.000157761 0.000838828,-0.000384783 0.00116589,-0.000684914 0.000323218,-0.000296283 0.000581023,-0.000661827 0.000765719,-0.00109663 0.000184696,-0.00042711 0.000277044,-0.000911937 0.000277044,-0.00145063 0,-0.000965806 -0.000311675,-0.00171613 -0.000935024,-0.00225868 -0.000623349,-0.000538697 -0.00153144,-0.000808045 -0.00270888,-0.000808045l-0.00289357 0zm0.0233448 0.0161224l-0.0102006 0 0 -0.00181233 0.00407101 0 0 -0.01401 -0.0041749 0.00124285 0 -0.0019624 0.00623734 -0.00189698 0 0.0166265 0.00406716 0 0 0.00181233z"
       fill-rule="nonzero"
       fill="white" /><path
       id="path317"
       d="M0.609074 0.195431l0 -0.0180348 0.0049791 0c0.00635277,0 0.00953493,0.0029282 0.00953493,0.0087923 0,0.00278198 -0.000885002,0.00501758 -0.00265116,0.00671062 -0.00176231,0.00168535 -0.00412488,0.00253187 -0.00708771,0.00253187l-0.00477516 0zm0.00211246 -0.0161224l0 0.0142139 0.00268964 0c0.00236642,0 0.00420183,-0.00063874 0.00552164,-0.00190468 0.00131596,-0.00126594 0.00197394,-0.00305903 0.00197394,-0.00538312 0,-0.0046174 -0.00245492,-0.0069261 -0.0073686,-0.0069261l-0.00281661 0zm0.0256574 0.0161224l-0.0108663 0 0 -0.00183926 0.00525614 -0.00526384c0.00133905,-0.00134674 0.002301,-0.00246261 0.00287433,-0.00335531 0.000573327,-0.000892698 0.000861915,-0.00184696 0.000861915,-0.00286279 0,-0.00103892 -0.000296283,-0.00184311 -0.000892698,-0.00241259 -0.000596414,-0.000569479 -0.00144294,-0.000854219 -0.00254342,-0.000854219 -0.00160839,0 -0.00315138,0.000688762 -0.0046251,0.00206244l0 -0.00216633c0.00140831,-0.00109663 0.00304748,-0.00164303 0.00491753,-0.00164303 0.00161224,0 0.00287433,0.000434805 0.00379396,0.00130442 0.00092348,0.000873458 0.00138907,0.0020432 0.00138907,0.00351307 0,0.00115435 -0.000323218,0.00228177 -0.000958111,0.00338609 -0.000634893,0.00110433 -0.00178155,0.00247416 -0.00343612,0.00410949l-0.00416336 0.00411333 0 4.6174e-005 0.00839213 0 0 0.00186235z"
       fill-rule="nonzero"
       fill="white" /><path
       id="path319"
       d="M0.545404 0.195431l-0.00251648 0 -0.00302055 -0.00505605c-0.000273196,-0.000469436 -0.000546392,-0.000869611 -0.000804197,-0.00120437 -0.000261653,-0.000330914 -0.000527153,-0.000600262 -0.000796502,-0.000804197 -0.000277044,-0.000211631 -0.000569479,-0.000365544 -0.000881154,-0.00046174 -0.000311675,-9.61959e-005 -0.000669523,-0.000146218 -0.00106585,-0.000146218l-0.00173153 0 0 0.00767258 -0.00211246 0 0 -0.0180348 0.00538312 0c0.000784958,0 0.00151605,0.000100044 0.00218172,0.000296283 0.000661827,0.00019624 0.00124285,0.000492523 0.00173153,0.000896545 0.000496371,0.000404023 0.000877306,0.000908089 0.0011505,0.0015045 0.000280892,0.000600262 0.000415566,0.00130057 0.000415566,0.00210861 0,0.000623349 -9.2348e-005,0.00120437 -0.000280892,0.00172768 -0.000188544,0.000523305 -0.000454044,0.000992741 -0.000804197,0.00140061 -0.000346305,0.000411718 -0.000765719,0.000761871 -0.00125824,0.00105046 -0.000492523,0.000288588 -0.00104276,0.00051561 -0.00165457,0.000673371l0 5.38697e-005c0.000303979,0.000130826 0.000565632,0.000280892 0.000788806,0.000454044 0.000219327,0.000177 0.000434805,0.000377088 0.000631045,0.000615653 0.000200087,0.00023087 0.000404023,0.000496371 0.000600262,0.000796502 0.00019624,0.000296283 0.000415566,0.000642588 0.00065798,0.00103507l0.00338609 0.0054216zm-0.0108163 -0.0161224l0 0.00654132 0.00286664 0c0.000527153,0 0.00101583,-8.08045e-005 0.00146218,-0.000242414 0.000450197,-0.000157761 0.000838828,-0.000384783 0.00116589,-0.000684914 0.000323218,-0.000296283 0.000581023,-0.000661827 0.000765719,-0.00109663 0.000184696,-0.00042711 0.000277044,-0.000911937 0.000277044,-0.00145063 0,-0.000965806 -0.000311675,-0.00171613 -0.000935024,-0.00225868 -0.000623349,-0.000538697 -0.00153144,-0.000808045 -0.00270888,-0.000808045l-0.00289357 0zm0.0230024 0.0161224l-0.0108663 0 0 -0.00183926 0.00525614 -0.00526384c0.00133905,-0.00134674 0.002301,-0.00246261 0.00287433,-0.00335531 0.000573327,-0.000892698 0.000861915,-0.00184696 0.000861915,-0.00286279 0,-0.00103892 -0.000296283,-0.00184311 -0.000892698,-0.00241259 -0.000596414,-0.000569479 -0.00144294,-0.000854219 -0.00254342,-0.000854219 -0.00160839,0 -0.00315138,0.000688762 -0.0046251,0.00206244l0 -0.00216633c0.00140831,-0.00109663 0.00304748,-0.00164303 0.00491753,-0.00164303 0.00161224,0 0.00287433,0.000434805 0.00379396,0.00130442 0.00092348,0.000873458 0.00138907,0.0020432 0.00138907,0.00351307 0,0.00115435 -0.000323218,0.00228177 -0.000958111,0.00338609 -0.000634893,0.00110433 -0.00178155,0.00247416 -0.00343612,0.00410949l-0.00416336 0.00411333 0 4.6174e-005 0.00839213 0 0 0.00186235z"
       fill-rule="nonzero"
       fill="white" /><path
       id="path321"
       d="M0.450539 0.188136c0,0.00506375 -0.00228177,0.00759562 -0.00685684,0.00759562 -0.00437114,0 -0.00656056,-0.00243183 -0.00656056,-0.00730704l0 -0.0110279 0.00211246 0 0 0.0108932c0,0.00369392 0.00156222,0.00554473 0.00467897,0.00554473 0.00300901,0 0.00451351,-0.0017854 0.00451351,-0.00535619l0 -0.0110818 0.00211246 0 0 0.0107393zm0.0145564 0.00729549l-0.0102006 0 0 -0.00181233 0.00407101 0 0 -0.01401 -0.0041749 0.00124285 0 -0.0019624 0.00623734 -0.00189698 0 0.0166265 0.00406716 0 0 0.00181233z"
       fill-rule="nonzero"
       fill="white" /><rect
       id="rect323"
       height="0.0901778"
       width="0.0447349"
       y="0.235468"
       x="0.326308"
       fill="#1F1A17" /><rect
       id="rect325"
       height="0.0901778"
       width="0.0447349"
       y="0.235468"
       x="0.24847"
       fill="#EE9A69" /><rect
       id="rect327"
       height="0.0901778"
       width="0.0447349"
       y="0.235468"
       x="0.521651"
       fill="#1F1A17" /><rect
       id="rect329"
       height="0.0901778"
       width="0.0447349"
       y="0.235468"
       x="0.599489"
       fill="#EE9A69" /><circle
       id="circle331"
       r="0.00909628"
       cy="0.259194"
       cx="0.448892"
       fill="#EF9A48" /></g></svg>