<?xml version="1.0" encoding="UTF-8" standalone="no"?>
<svg
   xmlns:dc="http://purl.org/dc/elements/1.1/"
   xmlns:cc="http://creativecommons.org/ns#"
   xmlns:rdf="http://www.w3.org/1999/02/22-rdf-syntax-ns#"
   xmlns:svg="http://www.w3.org/2000/svg"
   xmlns="http://www.w3.org/2000/svg"
   id="svg483"
   version="1.1"
   viewBox="0 0 1.06535 1.4582"
   clip-rule="evenodd"
   fill-rule="evenodd"
   image-rendering="optimizeQuality"
   text-rendering="geometricPrecision"
   shape-rendering="geometricPrecision"
   height="31.7552mm"
   width="23.2mm"
   xml:space="preserve"><metadata
     id="metadata489"><rdf:RDF><cc:Work
         rdf:about=""><dc:format>image/svg+xml</dc:format><dc:type
           rdf:resource="http://purl.org/dc/dcmitype/StillImage" /><dc:title></dc:title></cc:Work></rdf:RDF></metadata><defs
     id="defs487" /><g
     id="图层_x0020_1"><metadata
       id="CorelCorpID_0Corel-Layer" /><path
       id="path446"
       d="M0.110208 0.0435507l0.844931 0c0.0580844,0 0.105616,0.0461773 0.105616,0.102599l0 1.20488c0,0.0564267 -0.047532,0.102586 -0.105616,0.102586l-0.844931 0c-0.0580844,0 -0.105616,-0.046159 -0.105616,-0.102586l0 -1.20488c0,-0.0564221 0.047532,-0.102599 0.105616,-0.102599zm0.0704691 0.780354c0.0567895,0 0.102861,0.0460579 0.102861,0.102847 0,0.0567895 -0.0460717,0.102857 -0.102861,0.102857 -0.0567895,0 -0.102843,-0.0460671 -0.102843,-0.102857 0,-0.0567895 0.0460533,-0.102847 0.102843,-0.102847zm0.703998 0c0.0567895,0 0.102843,0.0460579 0.102843,0.102847 0,0.0567895 -0.0460533,0.102857 -0.102843,0.102857 -0.0567941,0 -0.102861,-0.0460671 -0.102861,-0.102857 0,-0.0567895 0.0460671,-0.102847 0.102861,-0.102847z"
       stroke-linejoin="round"
       stroke-linecap="round"
       stroke-width="0.00918403"
       stroke="#1F1A17"
       fill="#F8F3EA" /><g
       id="_296371384"><path
         d="M0.00459202 0.784633l0.189072 0c0,0 0.120554,0.00825185 0.128301,0.1417 -0.00774673,0.133449 -0.128301,0.1417 -0.128301,0.1417l-0.189072 0 0 -0.1417 0 -0.1417z"
         stroke-width="0.00918403"
         stroke="#1F1A17"
         fill="#F8F3EA"
         id="_296371672" /><path
         d="M1.06076 0.784633l-0.189072 0c0,0 -0.120554,0.00825185 -0.128301,0.1417 0.00774673,0.133449 0.128301,0.1417 0.128301,0.1417l0.189072 0 0 -0.1417 0 -0.1417z"
         stroke-width="0.00918403"
         stroke="#1F1A17"
         fill="#F8F3EA"
         id="_296371480" /><circle
         r="0.102852"
         cy="0.926745"
         cx="0.180677"
         stroke-width="0.00918403"
         stroke="#1F1A17"
         fill="#ACB192"
         id="_296371552" /><circle
         r="0.102852"
         cy="0.926745"
         cx="0.884671"
         stroke-width="0.00918403"
         stroke="#1F1A17"
         fill="#ACB192"
         id="_296371576" /></g><g
       id="_296370616"><rect
         height="0.287476"
         width="0.461247"
         y="1.16612"
         x="0.302053"
         stroke-linejoin="round"
         stroke-linecap="round"
         stroke-width="0.00918403"
         stroke="#1F1A17"
         fill="none"
         id="_296371048" /><rect
         height="0.287476"
         width="0.0792113"
         y="1.16611"
         x="0.30205"
         stroke-linejoin="round"
         stroke-linecap="round"
         stroke-width="0.00918403"
         stroke="#1F1A17"
         fill="#1F1A17"
         id="_296371264" /><rect
         height="0.287476"
         width="0.0792113"
         y="1.16611"
         x="0.684085"
         stroke-linejoin="round"
         stroke-linecap="round"
         stroke-width="0.00918403"
         stroke="#1F1A17"
         fill="#1F1A17"
         id="_296371096" /><rect
         height="0.107512"
         width="0.302822"
         y="1.16611"
         x="0.381263"
         stroke-linejoin="round"
         stroke-linecap="round"
         stroke-width="0.00918403"
         stroke="#1F1A17"
         fill="#383431"
         id="_296371216" /><rect
         height="0.123753"
         width="0.302822"
         y="1.27362"
         x="0.381263"
         stroke-linejoin="round"
         stroke-linecap="round"
         stroke-width="0.00918403"
         stroke="#1F1A17"
         fill="#1F1A17"
         id="_296371528" /><rect
         height="0.0450813"
         width="0.126046"
         y="1.22854"
         x="0.46965"
         stroke-linejoin="round"
         stroke-linecap="round"
         stroke-width="0.00918403"
         stroke="#1F1A17"
         fill="#4D4948"
         id="_296371072" /><g
         id="g463"><rect
           height="0.0958923"
           width="0.0239525"
           y="1.27362"
           x="0.426039"
           stroke-linejoin="round"
           stroke-linecap="round"
           stroke-width="0.00918403"
           stroke="#1F1A17"
           fill="#DEDEDD"
           id="_296371288" /><rect
           height="0.0958923"
           width="0.0239525"
           y="1.27362"
           x="0.489144"
           stroke-linejoin="round"
           stroke-linecap="round"
           stroke-width="0.00918403"
           stroke="#1F1A17"
           fill="#DEDEDD"
           id="_296370280" /><rect
           height="0.0958923"
           width="0.0239525"
           y="1.27362"
           x="0.552248"
           stroke-linejoin="round"
           stroke-linecap="round"
           stroke-width="0.00918403"
           stroke="#1F1A17"
           fill="#DEDEDD"
           id="_296370904" /><rect
           height="0.0958923"
           width="0.0239525"
           y="1.27362"
           x="0.615353"
           stroke-linejoin="round"
           stroke-linecap="round"
           stroke-width="0.00918403"
           stroke="#1F1A17"
           fill="#DEDEDD"
           id="_296370688" /></g></g><rect
       id="rect466"
       height="0.495327"
       width="0.424814"
       y="0.00459202"
       x="0.32027"
       stroke-width="0.00918403"
       stroke="#1F1A17"
       fill="#DB7835" /><rect
       id="rect468"
       height="0.160443"
       width="0.424814"
       y="0.00459202"
       x="0.32027"
       stroke-width="0.00918403"
       stroke="#1F1A17"
       fill="#DB7835" /><path
       id="path470"
       d="M0.427388 0.623454l0.0216881 0c0.0140057,0 0.0234514,0.000633698 0.0283833,0.00192865 0.00493642,0.00129036 0.00869269,0.00338432 0.011255,0.00631862 0.00258531,0.00293889 0.00418333,0.00622678 0.00483999,0.00982232 0.000633698,0.00359555 0.000964324,0.0106673 0.000964324,0.0212427l0 0.0390276c0,0.0100106 -0.000468386,0.0166828 -0.00143271,0.0200671 -0.000941364,0.00336136 -0.00256235,0.00601554 -0.00491346,0.00791664 -0.00234652,0.00190569 -0.00523949,0.0032236 -0.00866973,0.00399505 -0.0034532,0.000753091 -0.00862381,0.00112964 -0.0155532,0.00112964l-0.0365616 0 0 -0.111448zm0.028994 0.0190569l0 0.0733116c0.00416037,0 0.00674567,-0.000821971 0.00771,-0.00248887 0.000959732,-0.00169445 0.00143271,-0.00625433 0.00143271,-0.013675l0 -0.0433073c0,-0.00505122 -0.000165313,-0.00827022 -0.000472978,-0.00970293 -0.000326033,-0.00140975 -0.00105616,-0.00247051 -0.00220876,-0.00312716 -0.001148,-0.000656658 -0.00331084,-0.00101024 -0.00646097,-0.00101024zm0.0989717 -0.0190569l0.016591 0.111448 -0.0296782 0 -0.00143271 -0.0200442 -0.0104101 0 -0.00171741 0.0200442 -0.0300042 0 0.0147312 -0.111448 0.0419205 0zm-0.0153419 0.0716676c-0.00148322,-0.0126189 -0.00293889,-0.0282225 -0.00441752,-0.0467605 -0.00293889,0.0213116 -0.00477111,0.0368923 -0.00550124,0.0467605l0.00991876 0zm0.10456 -0.0230749l-0.0289756 0 0 -0.0194105c0,-0.005639 -0.000326033,-0.00916107 -0.000936771,-0.0105708 -0.000610738,-0.00138679 -0.00197457,-0.00209396 -0.00409149,-0.00209396 -0.00239244,0 -0.00389862,0.000849523 -0.00455528,0.00253939 -0.000633698,0.00171282 -0.000964324,0.00538184 -0.000964324,0.0110208l0 0.0517658c0,0.00542776 0.000330625,0.00894984 0.000964324,0.0105938 0.000656658,0.00167149 0.00208937,0.00249347 0.00434405,0.00249347 0.00216284,0 0.00357259,-0.000821971 0.00422925,-0.00249347 0.00066125,-0.00164394 0.00101024,-0.0055196 0.00101024,-0.0116316l0 -0.0139551 0.0289756 0 0 0.00432109c0,0.0115168 -0.000821971,0.0196952 -0.00244295,0.0245076 -0.00162098,0.00481703 -0.00524408,0.00905087 -0.0108096,0.0126694 -0.00557012,0.00361851 -0.0124536,0.00545072 -0.020609,0.00545072 -0.00850442,0 -0.0155072,-0.0015521 -0.0210039,-0.00462875 -0.00550124,-0.00308124 -0.00916567,-0.00733345 -0.010952,-0.0127612 -0.00178629,-0.00545072 -0.00267715,-0.0136291 -0.00267715,-0.0245535l0 -0.0325436c0,-0.00803603 0.000280113,-0.0140516 0.000821971,-0.0180696 0.000564818,-0.00401801 0.0021858,-0.00789368 0.00493183,-0.0116086 0.00272766,-0.00371035 0.00651148,-0.00664924 0.0113515,-0.00878912 0.00483999,-0.00211233 0.0104101,-0.00319604 0.0166828,-0.00319604 0.00855493,0 0.0156037,0.00167149 0.0211462,0.00495938 0.00554716,0.00331544 0.00918863,0.00742529 0.010952,0.0123617 0.00173578,0.00493183 0.00260827,0.0126143 0.00260827,0.0230244l0 0.0105984z"
       fill-rule="nonzero"
       fill="#C2C0A9" /><rect
       id="rect472"
       height="0.176553"
       width="0.212407"
       y="0.323366"
       x="0.532677"
       stroke-width="0.00918403"
       stroke="#1F1A17"
       fill="#2E2C2C" /><rect
       id="rect474"
       height="0.176553"
       width="0.212407"
       y="0.323366"
       x="0.320269"
       stroke-width="0.00918403"
       stroke="#1F1A17"
       fill="#9C2829" /><polygon
       id="polygon476"
       points="0.689524,0.396355 0.689524,0.426924 0.588237,0.426924 0.588237,0.396355 "
       fill-rule="nonzero"
       fill="white" /><polygon
       id="polygon478"
       points="0.380798,0.398459 0.414788,0.398459 0.414788,0.359321 0.437927,0.359321 0.437927,0.398459 0.472151,0.398459 0.472151,0.425005 0.437927,0.425005 0.437927,0.463959 0.414788,0.463959 0.414788,0.425005 0.380798,0.425005 "
       fill-rule="nonzero"
       fill="white" /><polygon
       id="polygon480"
       points="0.532679,0.594432 0.566664,0.568602 0.60065,0.542776 0.532679,0.542776 0.464703,0.542776 0.498688,0.568602 "
       stroke-linejoin="round"
       stroke-linecap="round"
       stroke-width="0.00918403"
       stroke="#C1BFA8"
       fill="#C2C0A9" /></g></svg>