<?xml version="1.0" encoding="UTF-8" standalone="no"?>
<svg
   xmlns:dc="http://purl.org/dc/elements/1.1/"
   xmlns:cc="http://creativecommons.org/ns#"
   xmlns:rdf="http://www.w3.org/1999/02/22-rdf-syntax-ns#"
   xmlns:svg="http://www.w3.org/2000/svg"
   xmlns="http://www.w3.org/2000/svg"
   id="svg66"
   version="1.1"
   viewBox="0 0 0.658681 1.63374"
   clip-rule="evenodd"
   fill-rule="evenodd"
   image-rendering="optimizeQuality"
   text-rendering="geometricPrecision"
   shape-rendering="geometricPrecision"
   height="57.5434mm"
   width="23.2mm"
   xml:space="preserve"><metadata
     id="metadata72"><rdf:RDF><cc:Work
         rdf:about=""><dc:format>image/svg+xml</dc:format><dc:type
           rdf:resource="http://purl.org/dc/dcmitype/StillImage" /><dc:title></dc:title></cc:Work></rdf:RDF></metadata><defs
     id="defs70" /><g
     id="图层_x0020_1"><metadata
       id="CorelCorpID_0Corel-Layer" /><path
       id="path3"
       d="M0.462417 0.683873l-0.0969595 0 0 0.00993983c0,0.0172762 -0.0162512,0.0314094 -0.0361167,0.0314094l0 0c-0.0198655,0 -0.0361167,-0.0141332 -0.0361167,-0.0314094l0 -0.00993983 -0.0969595 0 0 0.0752089 0.266152 0 0 -0.0752089z"
       stroke-linejoin="round"
       stroke-linecap="round"
       stroke-width="0.00283914"
       stroke="#1F1A17"
       fill="#1F1A17" /><path
       id="path5"
       d="M0.46242 0.686513l-0.0943248 0 0 -0.601983c0,-0.0457073 0.0169781,-0.0831074 0.0377294,-0.0831074l0.0188689 0c0.0207513,0 0.0377265,0.0374142 0.0377265,0.0831074l0 0.601983z"
       stroke-width="0.00283914"
       stroke="#1F1A17"
       fill="#00923F" /><path
       id="path7"
       d="M0.290586 0.686513l-0.0943248 0 0 -0.601983c0,-0.0457073 0.0169752,-0.0831074 0.0377265,-0.0831074l0.0188661 0c0.0207513,0 0.0377322,0.0374142 0.0377322,0.0831074l0 0.601983z"
       stroke-width="0.00283914"
       stroke="#1F1A17"
       fill="#00923F" /><path
       id="path9"
       d="M0.0681394 0.759087l0.522402 0c0.0359123,0 0.0653003,0.0285504 0.0653003,0.0634378l0 0.744948c0,0.0348845 -0.029388,0.0634236 -0.0653003,0.0634236l-0.522402 0c-0.0359123,0 -0.0653003,-0.0285391 -0.0653003,-0.0634236l0 -0.744948c0,-0.0348874 0.029388,-0.0634378 0.0653003,-0.0634378zm0.0435695 0.482478c0.0351117,0 0.0635968,0.0284738 0.0635968,0.0635854 0,0.0351117 -0.0284851,0.0635968 -0.0635968,0.0635968 -0.0351117,0 -0.0635854,-0.0284851 -0.0635854,-0.0635968 0,-0.0351117 0.0284738,-0.0635854 0.0635854,-0.0635854zm0.435266 0c0.0351117,0 0.0635854,0.0284738 0.0635854,0.0635854 0,0.0351117 -0.0284738,0.0635968 -0.0635854,0.0635968 -0.0351145,0 -0.0635968,-0.0284851 -0.0635968,-0.0635968 0,-0.0351117 0.0284823,-0.0635854 0.0635968,-0.0635854z"
       stroke-linejoin="round"
       stroke-linecap="round"
       stroke-width="0.00567828"
       stroke="#1F1A17"
       fill="#F8F3EA" /><rect
       id="rect11"
       height="0.173967"
       width="0.173968"
       y="0.903633"
       x="0.242357"
       stroke-linejoin="round"
       stroke-linecap="round"
       stroke-width="0.00567828"
       stroke="#1F1A17"
       fill="#007CC3" /><circle
       id="circle13"
       r="0.0429363"
       cy="0.987245"
       cx="0.330184"
       stroke-width="0.00567828"
       stroke="#1F1A17"
       fill="#00923F" /><line
       id="line15"
       y2="0.94431"
       x2="0.330184"
       y1="0.917608"
       x1="0.330184"
       stroke-linejoin="round"
       stroke-linecap="round"
       stroke-width="0.00567828"
       stroke="#1F1A17"
       fill="none" /><line
       id="line17"
       y2="1.01634"
       x2="0.361761"
       y1="1.03444"
       x1="0.381396"
       stroke-linejoin="round"
       stroke-linecap="round"
       stroke-width="0.00567828"
       stroke="#1F1A17"
       fill="none" /><line
       id="line19"
       y2="1.01634"
       x2="0.296923"
       y1="1.03444"
       x1="0.277288"
       stroke-linejoin="round"
       stroke-linecap="round"
       stroke-width="0.00567828"
       stroke="#1F1A17"
       fill="none" /><line
       id="line21"
       y2="0.987246"
       x2="0.373111"
       y1="0.987246"
       x1="0.287259"
       stroke-width="0.00567828"
       stroke="#716F61"
       fill="none" /><line
       id="line23"
       y2="1.03017"
       x2="0.330184"
       y1="0.944318"
       x1="0.330184"
       stroke-width="0.00567828"
       stroke="#716F61"
       fill="none" /><circle
       id="circle25"
       r="0.0429363"
       cy="0.987245"
       cx="0.330184"
       stroke-width="0.00567828"
       stroke="#1F1A17"
       fill="none" /><line
       id="line27"
       y2="1.06503"
       x2="0.257263"
       y1="1.06503"
       x1="0.403144"
       stroke-linejoin="round"
       stroke-linecap="round"
       stroke-width="0.00567828"
       stroke="#1F1A17"
       fill="none" /><path
       id="path29"
       d="M0.261792 1.05814l-0.00206973 0 0 -0.0132077c-0.000499689,0.000474137 -0.00115269,0.000948273 -0.00196469,0.00142809 -0.000809155,0.000474137 -0.00153881,0.000831868 -0.0021833,0.00106752l0 -0.00200159c0.00116121,-0.000545115 0.00217194,-0.00120664 0.00304356,-0.00197888 0.000863099,-0.000780764 0.00148203,-0.00153314 0.00184544,-0.00225996l0.00132872 0 0 0.0169525z"
       fill-rule="nonzero"
       fill="#1F1A17" /><path
       id="path31"
       d="M0.395674 1.05368l0.00207541 -0.000272558c0.000238488,0.00117257 0.000644485,0.00202147 0.00121231,0.00254103 0.000576346,0.000519563 0.0012691,0.000777925 0.00209245,0.000777925 0.000973826,0 0.00180002,-0.000337858 0.00247289,-0.00101357 0.000667198,-0.000675716 0.0010079,-0.0015161 0.0010079,-0.00251264 0,-0.000953952 -0.000315145,-0.00173755 -0.000934078,-0.00235365 -0.000624611,-0.000621772 -0.00141673,-0.000931238 -0.00237636,-0.000931238 -0.000391802,0 -0.000877295,7.9496e-005 -0.00145932,0.00023281l0.00023281 -0.00181989c0.000136279,1.41957e-005 0.000244166,2.27131e-005 0.00033218,2.27131e-005 0.000880134,0 0.00167509,-0.00023281 0.00238204,-0.000689911 0.000709785,-0.000459941 0.00106184,-0.00117257 0.00106184,-0.00212936 0,-0.000763729 -0.000258362,-0.00139402 -0.000775086,-0.00189087 -0.000513885,-0.00049685 -0.00117824,-0.000749533 -0.00199308,-0.000749533 -0.000803477,0 -0.00147635,0.000255523 -0.00201011,0.000758051 -0.000542276,0.000508206 -0.000885812,0.0012691 -0.00103913,0.00228551l-0.00207257 -0.000369088c0.000249844,-0.00139402 0.000829029,-0.00247005 0.0017262,-0.00323094 0.000900008,-0.000763729 0.00201579,-0.00114701 0.00335303,-0.00114701 0.000919882,0 0.00176879,0.000195901 0.00254387,0.000590541 0.000772247,0.00039748 0.00136847,0.000936917 0.00178298,0.00162115 0.000405997,0.000681394 0.000616094,0.00140821 0.000616094,0.00217762 0,0.00072682 -0.00019874,0.00139118 -0.000590541,0.00199308 -0.000391802,0.000599059 -0.000970986,0.0010732 -0.00173755,0.00142809 0.000996539,0.000227131 0.00177162,0.000704107 0.0023281,0.00143377 0.000547954,0.000723981 0.000823351,0.00163251 0.000823351,0.0027199 0,0.00147351 -0.000533759,0.00272558 -0.00161263,0.00374767 -0.00107036,0.00102777 -0.00243031,0.00153881 -0.00407417,0.00153881 -0.00148203,0 -0.00271138,-0.000440067 -0.00369088,-0.00132588 -0.000979504,-0.000877295 -0.00153881,-0.00202431 -0.00167793,-0.00343252z"
       fill-rule="nonzero"
       fill="#1F1A17" /><path
       id="path33"
       d="M0.303587 1.05368l0.00207257 -0.000272558c0.000241327,0.00117257 0.000647324,0.00202147 0.00121515,0.00254103 0.000573507,0.000519563 0.0012691,0.000777925 0.00209245,0.000777925 0.000973826,0 0.00180002,-0.000337858 0.00247289,-0.00101357 0.000667198,-0.000675716 0.0010079,-0.0015161 0.0010079,-0.00251264 0,-0.000953952 -0.000315145,-0.00173755 -0.000934078,-0.00235365 -0.000624611,-0.000621772 -0.00141673,-0.000931238 -0.00237636,-0.000931238 -0.000391802,0 -0.000877295,7.9496e-005 -0.00145932,0.00023281l0.00022997 -0.00181989c0.000139118,1.41957e-005 0.000247005,2.27131e-005 0.00033218,2.27131e-005 0.000882973,0 0.00167793,-0.00023281 0.00238488,-0.000689911 0.000709785,-0.000459941 0.001059,-0.00117257 0.001059,-0.00212936 0,-0.000763729 -0.000255523,-0.00139402 -0.000772247,-0.00189087 -0.000516724,-0.00049685 -0.00118108,-0.000749533 -0.00199592,-0.000749533 -0.000800638,0 -0.00147351,0.000255523 -0.00200727,0.000758051 -0.000542276,0.000508206 -0.000885812,0.0012691 -0.00103913,0.00228551l-0.00207257 -0.000369088c0.000249844,-0.00139402 0.000829029,-0.00247005 0.0017262,-0.00323094 0.000900008,-0.000763729 0.00201579,-0.00114701 0.00335303,-0.00114701 0.000919882,0 0.00176595,0.000195901 0.00254387,0.000590541 0.000772247,0.00039748 0.00136563,0.000936917 0.00178014,0.00162115 0.000408836,0.000681394 0.000618933,0.00140821 0.000618933,0.00217762 0,0.00072682 -0.00019874,0.00139118 -0.000590541,0.00199308 -0.000391802,0.000599059 -0.000970986,0.0010732 -0.00173755,0.00142809 0.000996539,0.000227131 0.00176879,0.000704107 0.0023281,0.00143377 0.000547954,0.000723981 0.000823351,0.00163251 0.000823351,0.0027199 0,0.00147351 -0.000533759,0.00272558 -0.00161263,0.00374767 -0.0010732,0.00102777 -0.00243031,0.00153881 -0.00407417,0.00153881 -0.00148487,0 -0.00271138,-0.000440067 -0.00369088,-0.00132588 -0.000979504,-0.000877295 -0.00153881,-0.00202431 -0.00167793,-0.00343252zm0.0144285 0l0.00207257 -0.000272558c0.000241327,0.00117257 0.000647324,0.00202147 0.00121515,0.00254103 0.000576346,0.000519563 0.0012691,0.000777925 0.00209245,0.000777925 0.000973826,0 0.00180002,-0.000337858 0.00247289,-0.00101357 0.000667198,-0.000675716 0.0010079,-0.0015161 0.0010079,-0.00251264 0,-0.000953952 -0.000315145,-0.00173755 -0.000934078,-0.00235365 -0.000624611,-0.000621772 -0.00141673,-0.000931238 -0.00237636,-0.000931238 -0.000391802,0 -0.000877295,7.9496e-005 -0.00145932,0.00023281l0.00022997 -0.00181989c0.000139118,1.41957e-005 0.000247005,2.27131e-005 0.00033218,2.27131e-005 0.000882973,0 0.00167793,-0.00023281 0.00238488,-0.000689911 0.000709785,-0.000459941 0.001059,-0.00117257 0.001059,-0.00212936 0,-0.000763729 -0.000255523,-0.00139402 -0.000772247,-0.00189087 -0.000516724,-0.00049685 -0.00118108,-0.000749533 -0.00199308,-0.000749533 -0.000803477,0 -0.00147635,0.000255523 -0.00201011,0.000758051 -0.000542276,0.000508206 -0.000885812,0.0012691 -0.00103913,0.00228551l-0.00207257 -0.000369088c0.000249844,-0.00139402 0.000829029,-0.00247005 0.0017262,-0.00323094 0.000900008,-0.000763729 0.00201579,-0.00114701 0.00335303,-0.00114701 0.000919882,0 0.00176595,0.000195901 0.00254387,0.000590541 0.000772247,0.00039748 0.00136563,0.000936917 0.00178014,0.00162115 0.000408836,0.000681394 0.000618933,0.00140821 0.000618933,0.00217762 0,0.00072682 -0.00019874,0.00139118 -0.000590541,0.00199308 -0.000391802,0.000599059 -0.000970986,0.0010732 -0.00173755,0.00142809 0.000996539,0.000227131 0.00177162,0.000704107 0.0023281,0.00143377 0.000547954,0.000723981 0.000823351,0.00163251 0.000823351,0.0027199 0,0.00147351 -0.000533759,0.00272558 -0.00161263,0.00374767 -0.0010732,0.00102777 -0.00243031,0.00153881 -0.00407417,0.00153881 -0.00148487,0 -0.00271138,-0.000440067 -0.00369088,-0.00132588 -0.000979504,-0.000877295 -0.00153881,-0.00202431 -0.00167793,-0.00343252zm0.0251747 -0.00828745l-0.00206122 0.000161831c-0.000184544,-0.000814834 -0.000445745,-0.00140821 -0.000780764,-0.00177446 -0.000564989,-0.000593381 -0.0012549,-0.000888651 -0.00207541,-0.000888651 -0.00066152,0 -0.0012407,0.000184544 -0.00173755,0.000556472 -0.000653003,0.000474137 -0.00116973,0.00116689 -0.00154733,0.00208393 -0.000371928,0.000911364 -0.000567828,0.00221169 -0.000584863,0.00390382 0.000499689,-0.00076089 0.00110727,-0.00132872 0.00183409,-0.00169781 0.000715464,-0.000366249 0.00147635,-0.000547954 0.00226563,-0.000547954 0.0013855,0 0.00255807,0.000508206 0.00352905,0.00152462 0.000970986,0.00101925 0.00146216,0.00233094 0.00146216,0.00394357 0,0.001059 -0.00023281,0.00204134 -0.000687072,0.00295271 -0.000459941,0.000908525 -0.00108739,0.00160979 -0.00188803,0.00209245 -0.00079496,0.000485493 -0.00169781,0.000723981 -0.00271422,0.000723981 -0.00172904,0 -0.00313725,-0.000633129 -0.00422464,-0.0019079 -0.00109591,-0.0012691 -0.00163535,-0.00336438 -0.00163535,-0.00628302 0,-0.00325933 0.000601898,-0.00563286 0.00180569,-0.00711489 0.00105048,-0.00128897 0.00246721,-0.00193346 0.00425303,-0.00193346 0.0013202,0 0.00241043,0.000371928 0.00325933,0.00111862 0.000851742,0.000741016 0.00135711,0.00177162 0.00152746,0.00308615zm-0.00846348 0.00727672c0,0.000712625 0.000153314,0.0013997 0.000457102,0.00204986 0.000300949,0.000653003 0.000723981,0.00114985 0.0012691,0.00149055 0.000545115,0.000343536 0.00112146,0.000516724 0.00171768,0.000516724 0.000874456,0 0.00162399,-0.000354893 0.00225712,-0.00106184 0.00062745,-0.000709785 0.000939756,-0.00166658 0.000939756,-0.00287889 0,-0.00116689 -0.000309466,-0.00208677 -0.000928399,-0.00275681 -0.000621772,-0.000672877 -0.00140538,-0.00101073 -0.00234797,-0.00101073 -0.000939756,0 -0.00173472,0.000337858 -0.00238488,0.00101073 -0.000655842,0.000670037 -0.000979504,0.00155017 -0.000979504,0.0026404zm0.023034 0.00347795l0 0.00199308 -0.0111607 0c-1.70348e-005,-0.000499689 5.9622e-005,-0.000979504 0.000238488,-0.00143661 0.000283914,-0.000763729 0.000741016,-0.00151042 0.00136563,-0.0022486 0.00062745,-0.000738177 0.0015303,-0.00158708 0.00271138,-0.00255523 0.00183692,-0.00150475 0.00307763,-0.00269718 0.00372211,-0.00358016 0.000647324,-0.000877295 0.000968147,-0.00170916 0.000968147,-0.00248993 0,-0.000820512 -0.000295271,-0.0015161 -0.000880134,-0.00208109 -0.000590541,-0.00056215 -0.00135711,-0.000843225 -0.00230254,-0.000843225 -0.000996539,0 -0.00179718,0.00029811 -0.0023934,0.000900008 -0.000601898,0.00059622 -0.000902847,0.00142809 -0.000911364,0.00248425l-0.00212936 -0.000215775c0.000144796,-0.00159276 0.00069559,-0.00280507 0.0016467,-0.00363978 0.000948273,-0.000831868 0.0022344,-0.00124638 0.00383568,-0.00124638 0.00162115,0 0.0029016,0.000451424 0.0038442,0.00134859 0.000948273,0.000900008 0.00141957,0.00200727 0.00141957,0.00333883 0,0.000675716 -0.000139118,0.00134007 -0.000414515,0.00199308 -0.000275397,0.000655842 -0.000735338,0.00134291 -0.00137982,0.00205838 -0.000638807,0.000723981 -0.00170065,0.00171484 -0.0031912,0.00297258 -0.00124354,0.00104764 -0.00204418,0.00175175 -0.00239624,0.00212652 -0.000354893,0.000369088 -0.000644485,0.000743855 -0.000877295,0.00112146l0.00828462 0z"
       fill-rule="nonzero"
       fill="#1F1A17" /><line
       id="line35"
       y2="0.951328"
       x2="0.353712"
       y1="0.934966"
       x1="0.364421"
       stroke-linejoin="round"
       stroke-linecap="round"
       stroke-width="0.00567828"
       stroke="#1F1A17"
       fill="none" /><line
       id="line37"
       y2="0.970084"
       x2="0.369548"
       y1="0.962086"
       x1="0.387903"
       stroke-linejoin="round"
       stroke-linecap="round"
       stroke-width="0.00567828"
       stroke="#1F1A17"
       fill="none" /><line
       id="line39"
       y2="0.994452"
       x2="0.372512"
       y1="0.997765"
       x1="0.391924"
       stroke-linejoin="round"
       stroke-linecap="round"
       stroke-width="0.00567828"
       stroke="#1F1A17"
       fill="none" /><line
       id="line41"
       y2="0.951328"
       x2="0.306085"
       y1="0.934966"
       x1="0.295376"
       stroke-linejoin="round"
       stroke-linecap="round"
       stroke-width="0.00567828"
       stroke="#1F1A17"
       fill="none" /><line
       id="line43"
       y2="0.970084"
       x2="0.290248"
       y1="0.962086"
       x1="0.271893"
       stroke-linejoin="round"
       stroke-linecap="round"
       stroke-width="0.00567828"
       stroke="#1F1A17"
       fill="none" /><line
       id="line45"
       y2="0.994452"
       x2="0.287284"
       y1="0.997765"
       x1="0.267873"
       stroke-linejoin="round"
       stroke-linecap="round"
       stroke-width="0.00567828"
       stroke="#1F1A17"
       fill="none" /><g
       id="_246362032"><path
         d="M0.00283914 1.21728l0.116899 0c0,0 0.074536,0.00510194 0.0793256,0.0876102 -0.00478963,0.0825083 -0.0793256,0.0876102 -0.0793256,0.0876102l-0.116899 0 0 -0.0876102 0 -0.0876102z"
         stroke-width="0.00567828"
         stroke="#1F1A17"
         fill="#F8F3EA"
         id="_246361960" /><path
         d="M0.655842 1.21728l-0.116899 0c0,0 -0.074536,0.00510194 -0.0793256,0.0876102 0.00478963,0.0825083 0.0793256,0.0876102 0.0793256,0.0876102l0.116899 0 0 -0.0876102 0 -0.0876102z"
         stroke-width="0.00567828"
         stroke="#1F1A17"
         fill="#F8F3EA"
         id="_246362584" /><circle
         r="0.0635912"
         cy="1.30515"
         cx="0.111708"
         stroke-width="0.00567828"
         stroke="#1F1A17"
         fill="#ACB192"
         id="_246362272" /><circle
         r="0.0635912"
         cy="1.30515"
         cx="0.546972"
         stroke-width="0.00567828"
         stroke="#1F1A17"
         fill="#ACB192"
         id="_246362224" /></g><g
       id="_246361840"><rect
         height="0.17774"
         width="0.285178"
         y="1.45314"
         x="0.186753"
         stroke-linejoin="round"
         stroke-linecap="round"
         stroke-width="0.00567828"
         stroke="#1F1A17"
         fill="none"
         id="_246361864" /><rect
         height="0.17774"
         width="0.0489746"
         y="1.45314"
         x="0.186751"
         stroke-linejoin="round"
         stroke-linecap="round"
         stroke-width="0.00567828"
         stroke="#1F1A17"
         fill="#1F1A17"
         id="_246362056" /><rect
         height="0.17774"
         width="0.0489746"
         y="1.45314"
         x="0.422954"
         stroke-linejoin="round"
         stroke-linecap="round"
         stroke-width="0.00567828"
         stroke="#1F1A17"
         fill="#1F1A17"
         id="_246362368" /><rect
         height="0.0664721"
         width="0.187228"
         y="1.45314"
         x="0.235727"
         stroke-linejoin="round"
         stroke-linecap="round"
         stroke-width="0.00567828"
         stroke="#1F1A17"
         fill="#383431"
         id="_246362440" /><rect
         height="0.0765139"
         width="0.187228"
         y="1.51961"
         x="0.235727"
         stroke-linejoin="round"
         stroke-linecap="round"
         stroke-width="0.00567828"
         stroke="#1F1A17"
         fill="#1F1A17"
         id="_246362536" /><rect
         height="0.0278728"
         width="0.0779316"
         y="1.49174"
         x="0.290374"
         stroke-linejoin="round"
         stroke-linecap="round"
         stroke-width="0.00567828"
         stroke="#1F1A17"
         fill="#4D4948"
         id="_246361888" /><g
         id="g62"><rect
           height="0.0592881"
           width="0.0148093"
           y="1.51961"
           x="0.26341"
           stroke-linejoin="round"
           stroke-linecap="round"
           stroke-width="0.00567828"
           stroke="#1F1A17"
           fill="#DEDEDD"
           id="_246361192" /><rect
           height="0.0592881"
           width="0.0148093"
           y="1.51961"
           x="0.302427"
           stroke-linejoin="round"
           stroke-linecap="round"
           stroke-width="0.00567828"
           stroke="#1F1A17"
           fill="#DEDEDD"
           id="_246361096" /><rect
           height="0.0592881"
           width="0.0148093"
           y="1.51961"
           x="0.341443"
           stroke-linejoin="round"
           stroke-linecap="round"
           stroke-width="0.00567828"
           stroke="#1F1A17"
           fill="#DEDEDD"
           id="_246361600" /><rect
           height="0.0592881"
           width="0.0148093"
           y="1.51961"
           x="0.380459"
           stroke-linejoin="round"
           stroke-linecap="round"
           stroke-width="0.00567828"
           stroke="#1F1A17"
           fill="#DEDEDD"
           id="_246361648" /></g></g></g></svg>