<?xml version="1.0" encoding="UTF-8" standalone="no"?>
<svg
   xmlns:dc="http://purl.org/dc/elements/1.1/"
   xmlns:cc="http://creativecommons.org/ns#"
   xmlns:rdf="http://www.w3.org/1999/02/22-rdf-syntax-ns#"
   xmlns:svg="http://www.w3.org/2000/svg"
   xmlns="http://www.w3.org/2000/svg"
   id="svg819"
   version="1.1"
   viewBox="0 0 0.487363 0.64926"
   clip-rule="evenodd"
   fill-rule="evenodd"
   image-rendering="optimizeQuality"
   text-rendering="geometricPrecision"
   shape-rendering="geometricPrecision"
   height="30.9068mm"
   width="23.2mm"
   xml:space="preserve"><metadata
     id="metadata825"><rdf:RDF><cc:Work
         rdf:about=""><dc:format>image/svg+xml</dc:format><dc:type
           rdf:resource="http://purl.org/dc/dcmitype/StillImage" /><dc:title></dc:title></cc:Work></rdf:RDF></metadata><defs
     id="defs823" /><g
     id="图层_x0020_1"><metadata
       id="CorelCorpID_0Corel-Layer" /><path
       id="path756"
       d="M0.0504169 0.0021007l0.386529 0c0.0265718,0 0.0483162,0.0211247 0.0483162,0.046936l0 0.551193c0,0.0258134 -0.0217444,0.0469297 -0.0483162,0.0469297l-0.386529 0c-0.0265718,0 -0.0483162,-0.0211163 -0.0483162,-0.0469297l0 -0.551193c0,-0.0258113 0.0217444,-0.046936 0.0483162,-0.046936zm0.0322374 0.356987c0.0259794,0 0.0470557,0.02107 0.0470557,0.0470494 0,0.0259794 -0.0210763,0.0470536 -0.0470557,0.0470536 -0.0259794,0 -0.0470473,-0.0210742 -0.0470473,-0.0470536 0,-0.0259794 0.0210679,-0.0470494 0.0470473,-0.0470494zm0.322057 0c0.0259794,0 0.0470473,0.02107 0.0470473,0.0470494 0,0.0259794 -0.0210679,0.0470536 -0.0470473,0.0470536 -0.0259815,0 -0.0470557,-0.0210742 -0.0470557,-0.0470536 0,-0.0259794 0.0210742,-0.0470494 0.0470557,-0.0470494z"
       stroke-linejoin="round"
       stroke-linecap="round"
       stroke-width="0.0042014"
       stroke="#1F1A17"
       fill="#F8F3EA" /><g
       id="_295329960"><path
         d="M0.0021007 0.341123l0.0864943 0c0,0 0.0551497,0.00377496 0.0586936,0.0648235 -0.00354388,0.0610485 -0.0586936,0.0648235 -0.0586936,0.0648235l-0.0864943 0 0 -0.0648235 0 -0.0648235z"
         stroke-width="0.0042014"
         stroke="#1F1A17"
         fill="#F8F3EA"
         id="_295329864" /><path
         d="M0.485262 0.341123l-0.0864943 0c0,0 -0.0551497,0.00377496 -0.0586936,0.0648235 0.00354388,0.0610485 0.0586936,0.0648235 0.0586936,0.0648235l0.0864943 0 0 -0.0648235 0 -0.0648235z"
         stroke-width="0.0042014"
         stroke="#1F1A17"
         fill="#F8F3EA"
         id="_295329840" /><circle
         r="0.0470516"
         cy="0.406134"
         cx="0.0826538"
         stroke-width="0.0042014"
         stroke="#1F1A17"
         fill="#ACB192"
         id="_295329744" /><circle
         r="0.0470516"
         cy="0.406134"
         cx="0.404709"
         stroke-width="0.0042014"
         stroke="#1F1A17"
         fill="#ACB192"
         id="_295329984" /></g><g
       id="_295329432"><rect
         height="0.131511"
         width="0.211006"
         y="0.515638"
         x="0.13818"
         stroke-linejoin="round"
         stroke-linecap="round"
         stroke-width="0.0042014"
         stroke="#1F1A17"
         fill="none"
         id="_295329672" /><rect
         height="0.131511"
         width="0.0362367"
         y="0.515638"
         x="0.138178"
         stroke-linejoin="round"
         stroke-linecap="round"
         stroke-width="0.0042014"
         stroke="#1F1A17"
         fill="#1F1A17"
         id="_295329624" /><rect
         height="0.131511"
         width="0.0362367"
         y="0.515638"
         x="0.312947"
         stroke-linejoin="round"
         stroke-linecap="round"
         stroke-width="0.0042014"
         stroke="#1F1A17"
         fill="#1F1A17"
         id="_295330296" /><rect
         height="0.0491832"
         width="0.138532"
         y="0.515638"
         x="0.174416"
         stroke-linejoin="round"
         stroke-linecap="round"
         stroke-width="0.0042014"
         stroke="#1F1A17"
         fill="#383431"
         id="_295330224" /><rect
         height="0.0566132"
         width="0.138532"
         y="0.56482"
         x="0.174416"
         stroke-linejoin="round"
         stroke-linecap="round"
         stroke-width="0.0042014"
         stroke="#1F1A17"
         fill="#1F1A17"
         id="_295329936" /><rect
         height="0.0206233"
         width="0.0576622"
         y="0.544197"
         x="0.21485"
         stroke-linejoin="round"
         stroke-linecap="round"
         stroke-width="0.0042014"
         stroke="#1F1A17"
         fill="#4D4948"
         id="_295329048" /><g
         id="g773"><rect
           height="0.0438677"
           width="0.0109575"
           y="0.56482"
           x="0.194899"
           stroke-linejoin="round"
           stroke-linecap="round"
           stroke-width="0.0042014"
           stroke="#1F1A17"
           fill="#DEDEDD"
           id="_295328784" /><rect
           height="0.0438677"
           width="0.0109575"
           y="0.56482"
           x="0.223768"
           stroke-linejoin="round"
           stroke-linecap="round"
           stroke-width="0.0042014"
           stroke="#1F1A17"
           fill="#DEDEDD"
           id="_295329528" /><rect
           height="0.0438677"
           width="0.0109575"
           y="0.56482"
           x="0.252636"
           stroke-linejoin="round"
           stroke-linecap="round"
           stroke-width="0.0042014"
           stroke="#1F1A17"
           fill="#DEDEDD"
           id="_295329288" /><rect
           height="0.0438677"
           width="0.0109575"
           y="0.56482"
           x="0.281505"
           stroke-linejoin="round"
           stroke-linecap="round"
           stroke-width="0.0042014"
           stroke="#1F1A17"
           fill="#DEDEDD"
           id="_295329312" /></g></g><g
       id="_251354640"><rect
         height="0.24219"
         width="0.111376"
         y="0.080938"
         x="0.0353905"
         stroke-width="0.0042014"
         stroke="#1F1A17"
         fill="#1F1A17"
         id="_251354976" /><rect
         height="0.24219"
         width="0.0957085"
         y="0.0809403"
         x="0.0470631"
         stroke-width="0.0042014"
         stroke="#1F1A17"
         fill="whitesmoke"
         id="_251354856" /><polygon
         points="0.0779928,0.12354 0.0470641,0.12354 0.0353905,0.12354 0.0353905,0.111869 0.0353905,0.0926116 0.0353905,0.080938 0.0470641,0.080938 0.135096,0.080938 0.146766,0.080938 0.146766,0.0926116 0.146766,0.311454 0.146766,0.323128 0.135096,0.323128 0.0470641,0.323128 0.0353905,0.323128 0.0353905,0.311454 0.0353905,0.292197 0.0353905,0.280526 0.0470641,0.280526 0.0779928,0.280526 0.0779928,0.292197 0.0470641,0.292197 0.0470641,0.311454 0.135096,0.311454 0.135096,0.0926116 0.0470641,0.0926116 0.0470641,0.111869 0.0779928,0.111869 "
         stroke-width="0.0042014"
         stroke="#1F1A17"
         fill="white"
         id="_251355408" /><rect
         height="0.00810871"
         width="0.0827088"
         transform="matrix(-1.61738E-013 -0.515085 3.55943 -8.98863E-014 0.0491296 0.15447)"
         stroke-width="0.0042014"
         stroke="#1F1A17"
         fill="white"
         id="_251355384" /><rect
         height="0.00810871"
         width="0.0827088"
         transform="matrix(-1.61738E-013 0.515085 3.55943 8.98863E-014 0.0491296 0.249596)"
         stroke-width="0.0042014"
         stroke="#1F1A17"
         fill="white"
         id="_251355072" /><rect
         height="0.108276"
         width="0.0362749"
         y="0.147897"
         x="0.0417175"
         stroke-width="0.0042014"
         stroke="#1F1A17"
         fill="white"
         id="_251355312" /><rect
         height="0.108276"
         width="0.0126848"
         y="0.147897"
         x="0.0653078"
         stroke-width="0.0042014"
         stroke="#1F1A17"
         fill="white"
         id="_251355504" /><g
         id="g787"><circle
           r="0.0085694"
           cy="0.126168"
           cx="0.104053"
           stroke-width="0.0042014"
           stroke="#1F1A17"
           fill="#DEDEDD"
           id="_251355120" /><circle
           r="0.0085694"
           cy="0.176746"
           cx="0.104053"
           stroke-width="0.0042014"
           stroke="#1F1A17"
           fill="#DEDEDD"
           id="_251355216" /><circle
           r="0.0085694"
           cy="0.22732"
           cx="0.104053"
           stroke-width="0.0042014"
           stroke="#1F1A17"
           fill="#DEDEDD"
           id="_251354832" /><circle
           r="0.0085694"
           cy="0.277898"
           cx="0.104053"
           stroke-width="0.0042014"
           stroke="#1F1A17"
           fill="#DEDEDD"
           id="_251355168" /></g></g><g
       id="_251354208"><rect
         height="0.24219"
         width="0.111376"
         y="0.080938"
         x="0.187995"
         stroke-width="0.0042014"
         stroke="#1F1A17"
         fill="#1F1A17"
         id="_251354592" /><rect
         height="0.24219"
         width="0.0957085"
         y="0.0809403"
         x="0.199667"
         stroke-width="0.0042014"
         stroke="#1F1A17"
         fill="whitesmoke"
         id="_251354568" /><polygon
         points="0.230598,0.12354 0.199668,0.12354 0.187994,0.12354 0.187994,0.111869 0.187994,0.0926116 0.187994,0.080938 0.199668,0.080938 0.2877,0.080938 0.299369,0.080938 0.299369,0.0926116 0.299369,0.311454 0.299369,0.323128 0.2877,0.323128 0.199668,0.323128 0.187994,0.323128 0.187994,0.311454 0.187994,0.292197 0.187994,0.280526 0.199668,0.280526 0.230598,0.280526 0.230598,0.292197 0.199668,0.292197 0.199668,0.311454 0.2877,0.311454 0.2877,0.0926116 0.199668,0.0926116 0.199668,0.111869 0.230598,0.111869 "
         stroke-width="0.0042014"
         stroke="#1F1A17"
         fill="white"
         id="_251354544" /><rect
         height="0.00810871"
         width="0.0827088"
         transform="matrix(-1.61738E-013 -0.515085 3.55943 -8.98863E-014 0.201734 0.15447)"
         stroke-width="0.0042014"
         stroke="#1F1A17"
         fill="white"
         id="_251354688" /><rect
         height="0.00810871"
         width="0.0827088"
         transform="matrix(-1.61738E-013 0.515085 3.55943 8.98863E-014 0.201734 0.249596)"
         stroke-width="0.0042014"
         stroke="#1F1A17"
         fill="white"
         id="_251354712" /><rect
         height="0.108276"
         width="0.0362749"
         y="0.147897"
         x="0.194322"
         stroke-width="0.0042014"
         stroke="#1F1A17"
         fill="white"
         id="_251354472" /><rect
         height="0.108276"
         width="0.0126848"
         y="0.147897"
         x="0.217912"
         stroke-width="0.0042014"
         stroke="#1F1A17"
         fill="white"
         id="_251354376" /><g
         id="g801"><circle
           r="0.0085694"
           cy="0.126168"
           cx="0.256656"
           stroke-width="0.0042014"
           stroke="#1F1A17"
           fill="#DEDEDD"
           id="_251354232" /><circle
           r="0.0085694"
           cy="0.176746"
           cx="0.256656"
           stroke-width="0.0042014"
           stroke="#1F1A17"
           fill="#DEDEDD"
           id="_251354784" /><circle
           r="0.0085694"
           cy="0.22732"
           cx="0.256656"
           stroke-width="0.0042014"
           stroke="#1F1A17"
           fill="#DEDEDD"
           id="_251354040" /><circle
           r="0.0085694"
           cy="0.277898"
           cx="0.256656"
           stroke-width="0.0042014"
           stroke="#1F1A17"
           fill="#DEDEDD"
           id="_251354280" /></g></g><g
       id="_251353680"><rect
         height="0.24219"
         width="0.111376"
         y="0.080938"
         x="0.340599"
         stroke-width="0.0042014"
         stroke="#1F1A17"
         fill="#1F1A17"
         id="_251354088" /><rect
         height="0.24219"
         width="0.0957085"
         y="0.0809403"
         x="0.352272"
         stroke-width="0.0042014"
         stroke="#1F1A17"
         fill="whitesmoke"
         id="_251354304" /><polygon
         points="0.383202,0.12354 0.352271,0.12354 0.340599,0.12354 0.340599,0.111869 0.340599,0.0926116 0.340599,0.080938 0.352271,0.080938 0.440303,0.080938 0.451974,0.080938 0.451974,0.0926116 0.451974,0.311454 0.451974,0.323128 0.440303,0.323128 0.352271,0.323128 0.340599,0.323128 0.340599,0.311454 0.340599,0.292197 0.340599,0.280526 0.352271,0.280526 0.383202,0.280526 0.383202,0.292197 0.352271,0.292197 0.352271,0.311454 0.440303,0.311454 0.440303,0.0926116 0.352271,0.0926116 0.352271,0.111869 0.383202,0.111869 "
         stroke-width="0.0042014"
         stroke="#1F1A17"
         fill="white"
         id="_251354136" /><rect
         height="0.00810871"
         width="0.0827088"
         transform="matrix(-1.61738E-013 -0.515085 3.55943 -8.98863E-014 0.354338 0.15447)"
         stroke-width="0.0042014"
         stroke="#1F1A17"
         fill="white"
         id="_251353344" /><rect
         height="0.00810871"
         width="0.0827088"
         transform="matrix(-1.61738E-013 0.515085 3.55943 8.98863E-014 0.354338 0.249596)"
         stroke-width="0.0042014"
         stroke="#1F1A17"
         fill="white"
         id="_251353296" /><rect
         height="0.108276"
         width="0.0362749"
         y="0.147897"
         x="0.346926"
         stroke-width="0.0042014"
         stroke="#1F1A17"
         fill="white"
         id="_251353272" /><rect
         height="0.108276"
         width="0.0126848"
         y="0.147897"
         x="0.370517"
         stroke-width="0.0042014"
         stroke="#1F1A17"
         fill="white"
         id="_251353920" /><g
         id="g815"><circle
           r="0.0085694"
           cy="0.126168"
           cx="0.409261"
           stroke-width="0.0042014"
           stroke="#1F1A17"
           fill="#DEDEDD"
           id="_251353440" /><circle
           r="0.0085694"
           cy="0.176746"
           cx="0.409261"
           stroke-width="0.0042014"
           stroke="#1F1A17"
           fill="#DEDEDD"
           id="_251353416" /><circle
           r="0.0085694"
           cy="0.22732"
           cx="0.409261"
           stroke-width="0.0042014"
           stroke="#1F1A17"
           fill="#DEDEDD"
           id="_251353584" /><circle
           r="0.0085694"
           cy="0.277898"
           cx="0.409261"
           stroke-width="0.0042014"
           stroke="#1F1A17"
           fill="#DEDEDD"
           id="_251353560" /></g></g></g></svg>