<?xml version="1.0" encoding="UTF-8" standalone="no"?>
<svg
   xmlns:dc="http://purl.org/dc/elements/1.1/"
   xmlns:cc="http://creativecommons.org/ns#"
   xmlns:rdf="http://www.w3.org/1999/02/22-rdf-syntax-ns#"
   xmlns:svg="http://www.w3.org/2000/svg"
   xmlns="http://www.w3.org/2000/svg"
   id="svg352"
   version="1.1"
   viewBox="0 0 0.752165 1.00203"
   clip-rule="evenodd"
   fill-rule="evenodd"
   image-rendering="optimizeQuality"
   text-rendering="geometricPrecision"
   shape-rendering="geometricPrecision"
   height="30.9068mm"
   width="23.2mm"
   xml:space="preserve"><metadata
     id="metadata358"><rdf:RDF><cc:Work
         rdf:about=""><dc:format>image/svg+xml</dc:format><dc:type
           rdf:resource="http://purl.org/dc/dcmitype/StillImage" /><dc:title></dc:title></cc:Work></rdf:RDF></metadata><defs
     id="defs356" /><g
     id="图层_x0020_1"><metadata
       id="CorelCorpID_0Corel-Layer" /><path
       id="path285"
       d="M0.0778102 0.00324209l0.596545 0c0.0410092,0 0.0745681,0.0326025 0.0745681,0.0724381l0 0.850676c0,0.0398388 -0.0335589,0.0724283 -0.0745681,0.0724283l-0.596545 0c-0.0410092,0 -0.0745681,-0.0325895 -0.0745681,-0.0724283l0 -0.850676c0,-0.0398356 0.0335589,-0.0724381 0.0745681,-0.0724381zm0.0497532 0.550951c0.040095,0 0.0726229,0.0325182 0.0726229,0.0726131 0,0.040095 -0.0325279,0.0726196 -0.0726229,0.0726196 -0.040095,0 -0.0726099,-0.0325247 -0.0726099,-0.0726196 0,-0.040095 0.0325149,-0.0726131 0.0726099,-0.0726131zm0.497042 0c0.040095,0 0.0726099,0.0325182 0.0726099,0.0726131 0,0.040095 -0.0325149,0.0726196 -0.0726099,0.0726196 -0.0400982,0 -0.0726229,-0.0325247 -0.0726229,-0.0726196 0,-0.040095 0.0325247,-0.0726131 0.0726229,-0.0726131z"
       stroke-linejoin="round"
       stroke-linecap="round"
       stroke-width="0.00648419"
       stroke="#1F1A17"
       fill="#F8F3EA" /><circle
       id="circle287"
       r="0.0631285"
       cy="0.171702"
       cx="0.376081"
       stroke-linejoin="round"
       stroke-linecap="round"
       stroke-width="0.00648419"
       stroke="#1F1A17"
       fill="#00A161" /><rect
       id="rect289"
       height="0.198657"
       width="0.198659"
       y="0.339912"
       x="0.276754"
       stroke-linejoin="round"
       stroke-linecap="round"
       stroke-width="0.00648419"
       stroke="#1F1A17"
       fill="#007CC3" /><circle
       id="circle291"
       r="0.0490301"
       cy="0.43539"
       cx="0.377046"
       stroke-width="0.00648419"
       stroke="#1F1A17"
       fill="#00923F" /><line
       id="line293"
       y2="0.38636"
       x2="0.377046"
       y1="0.355868"
       x1="0.377046"
       stroke-linejoin="round"
       stroke-linecap="round"
       stroke-width="0.00648419"
       stroke="#1F1A17"
       fill="none" /><line
       id="line295"
       y2="0.468615"
       x2="0.413104"
       y1="0.489277"
       x1="0.435527"
       stroke-linejoin="round"
       stroke-linecap="round"
       stroke-width="0.00648419"
       stroke="#1F1A17"
       fill="none" /><line
       id="line297"
       y2="0.468615"
       x2="0.339065"
       y1="0.489277"
       x1="0.316642"
       stroke-linejoin="round"
       stroke-linecap="round"
       stroke-width="0.00648419"
       stroke="#1F1A17"
       fill="none" /><line
       id="line299"
       y2="0.43539"
       x2="0.426066"
       y1="0.43539"
       x1="0.328028"
       stroke-width="0.00648419"
       stroke="#716F61"
       fill="none" /><line
       id="line301"
       y2="0.484408"
       x2="0.377046"
       y1="0.386373"
       x1="0.377046"
       stroke-width="0.00648419"
       stroke="#716F61"
       fill="none" /><circle
       id="circle303"
       r="0.0490301"
       cy="0.43539"
       cx="0.377046"
       stroke-width="0.00648419"
       stroke="#1F1A17"
       fill="none" /><line
       id="line305"
       y2="0.524214"
       x2="0.293776"
       y1="0.524214"
       x1="0.460361"
       stroke-linejoin="round"
       stroke-linecap="round"
       stroke-width="0.00648419"
       stroke="#1F1A17"
       fill="none" /><path
       id="path307"
       d="M0.29895 0.516345l-0.00236673 0 0 -0.0150855c-0.000570608,0.000544672 -0.00131305,0.0010861 -0.00224029,0.00163077 -0.000927238,0.000541429 -0.00176046,0.000949933 -0.00249641,0.00121903l0 -0.00228568c0.00132602,-0.000622482 0.00248344,-0.00137789 0.00347552,-0.00226298 0.000988838,-0.000888333 0.00169237,-0.00174425 0.00210736,-0.00258071l0.00152054 0 0 0.019365z"
       fill-rule="nonzero"
       fill="#1F1A17" /><path
       id="path309"
       d="M0.451834 0.511255l0.00236673 -0.000314483c0.000272336,0.00134223 0.000735955,0.00230513 0.00138762,0.00289843 0.000654903,0.000593303 0.00144922,0.000888333 0.00238618,0.000888333 0.00111528,0 0.00205873,-0.000385809 0.00282386,-0.00115743 0.000765134,-0.000771618 0.00115094,-0.00172804 0.00115094,-0.00286925 0,-0.0010861 -0.000353388,-0.00198416 -0.00106341,-0.00268769 -0.00071326,-0.000706776 -0.0016178,-0.00106016 -0.00271363,-0.00106016 -0.000447409,0 -0.00100505,9.07786e-005 -0.00166968,0.000265852l0.000265852 -0.00208142c0.00015562,1.94526e-005 0.000282062,2.91788e-005 0.000382567,2.91788e-005 0.00100505,0 0.00191283,-0.000265852 0.00272012,-0.000791071 0.000807281,-0.000525219 0.00121254,-0.00133898 0.00121254,-0.00243481 0,-0.000865639 -0.000298273,-0.00158863 -0.000885091,-0.00215275 -0.000586819,-0.000570608 -0.00134871,-0.000859155 -0.00227595,-0.000859155 -0.000920754,0 -0.00168913,0.000291788 -0.00229864,0.000868881 -0.000615998,0.000577092 -0.00101153,0.00144922 -0.00118661,0.00260664l-0.00236673 -0.000421472c0.000288546,-0.00158863 0.000949933,-0.00282062 0.00197119,-0.0036895 0.00102774,-0.000872123 0.00230513,-0.00131305 0.00383215,-0.00131305 0.00105044,0 0.00201982,0.000230189 0.00290492,0.000677597 0.000881849,0.000453893 0.00155945,0.00106989 0.00203279,0.00185123 0.000466861,0.000781344 0.000703534,0.00160808 0.000703534,0.00248669 0,0.000829976 -0.000223704,0.00158863 -0.000671113,0.00227595 -0.000450651,0.000684082 -0.0011088,0.00122551 -0.0019874,0.00163077 0.00114122,0.000259367 0.00202631,0.000807281 0.00265852,0.00163726 0.000628966,0.000826734 0.000943449,0.0018642 0.000943449,0.00310917 0,0.00168265 -0.000609513,0.00310917 -0.00184151,0.0042828 -0.00122551,0.0011704 -0.00277847,0.00175397 -0.00465565,0.00175397 -0.00169237,0 -0.0030962,-0.000502524 -0.00421472,-0.00151082 -0.00111852,-0.00100829 -0.00175721,-0.00231485 -0.00191283,-0.00391969z"
       fill-rule="nonzero"
       fill="#1F1A17" /><path
       id="path311"
       d="M0.346677 0.511255l0.00236673 -0.000314483c0.000272336,0.00134223 0.000735955,0.00230513 0.00138762,0.00289843 0.000654903,0.000593303 0.00144922,0.000888333 0.00238618,0.000888333 0.00111528,0 0.00205873,-0.000385809 0.00282386,-0.00115743 0.000765134,-0.000771618 0.00115094,-0.00172804 0.00115094,-0.00286925 0,-0.0010861 -0.000353388,-0.00198416 -0.00106341,-0.00268769 -0.00071326,-0.000706776 -0.0016178,-0.00106016 -0.00271363,-0.00106016 -0.000447409,0 -0.00100505,9.07786e-005 -0.00166968,0.000265852l0.000265852 -0.00208142c0.00015562,1.94526e-005 0.000282062,2.91788e-005 0.000382567,2.91788e-005 0.00100505,0 0.00191283,-0.000265852 0.00272012,-0.000791071 0.000807281,-0.000525219 0.00121254,-0.00133898 0.00121254,-0.00243481 0,-0.000865639 -0.000298273,-0.00158863 -0.000885091,-0.00215275 -0.000586819,-0.000570608 -0.00134871,-0.000859155 -0.00227595,-0.000859155 -0.000920754,0 -0.00168913,0.000291788 -0.00229864,0.000868881 -0.000615998,0.000577092 -0.00101153,0.00144922 -0.00118661,0.00260664l-0.00236673 -0.000421472c0.000288546,-0.00158863 0.000949933,-0.00282062 0.00197119,-0.0036895 0.00102774,-0.000872123 0.00230513,-0.00131305 0.00383215,-0.00131305 0.00105044,0 0.00201982,0.000230189 0.00290492,0.000677597 0.000881849,0.000453893 0.00155945,0.00106989 0.00203279,0.00185123 0.000466861,0.000781344 0.000703534,0.00160808 0.000703534,0.00248669 0,0.000829976 -0.000223704,0.00158863 -0.000671113,0.00227595 -0.000450651,0.000684082 -0.0011088,0.00122551 -0.0019874,0.00163077 0.00114122,0.000259367 0.00202631,0.000807281 0.00265852,0.00163726 0.000628966,0.000826734 0.000943449,0.0018642 0.000943449,0.00310917 0,0.00168265 -0.000609513,0.00310917 -0.00184151,0.0042828 -0.00122551,0.0011704 -0.00277847,0.00175397 -0.00465565,0.00175397 -0.00169237,0 -0.0030962,-0.000502524 -0.00421472,-0.00151082 -0.00111852,-0.00100829 -0.00175721,-0.00231485 -0.00191283,-0.00391969zm0.0164796 0l0.00236673 -0.000314483c0.000272336,0.00134223 0.000735955,0.00230513 0.00138762,0.00289843 0.000654903,0.000593303 0.00144922,0.000888333 0.00238618,0.000888333 0.00111528,0 0.00205873,-0.000385809 0.00282386,-0.00115743 0.000765134,-0.000771618 0.00115094,-0.00172804 0.00115094,-0.00286925 0,-0.0010861 -0.000353388,-0.00198416 -0.00106341,-0.00268769 -0.00071326,-0.000706776 -0.0016178,-0.00106016 -0.00271363,-0.00106016 -0.000447409,0 -0.00100505,9.07786e-005 -0.00166968,0.000265852l0.000265852 -0.00208142c0.00015562,1.94526e-005 0.000282062,2.91788e-005 0.000382567,2.91788e-005 0.00100505,0 0.00191283,-0.000265852 0.00272012,-0.000791071 0.000807281,-0.000525219 0.00121254,-0.00133898 0.00121254,-0.00243481 0,-0.000865639 -0.000298273,-0.00158863 -0.000885091,-0.00215275 -0.000586819,-0.000570608 -0.00134871,-0.000859155 -0.00227595,-0.000859155 -0.000920754,0 -0.00168913,0.000291788 -0.00229864,0.000868881 -0.000615998,0.000577092 -0.00101153,0.00144922 -0.00118661,0.00260664l-0.00236673 -0.000421472c0.000288546,-0.00158863 0.000949933,-0.00282062 0.00197119,-0.0036895 0.00102774,-0.000872123 0.00230513,-0.00131305 0.00383215,-0.00131305 0.00105044,0 0.00201982,0.000230189 0.00290492,0.000677597 0.000881849,0.000453893 0.00155945,0.00106989 0.00203279,0.00185123 0.000466861,0.000781344 0.000703534,0.00160808 0.000703534,0.00248669 0,0.000829976 -0.000223704,0.00158863 -0.000671113,0.00227595 -0.000450651,0.000684082 -0.0011088,0.00122551 -0.0019874,0.00163077 0.00114122,0.000259367 0.00202631,0.000807281 0.00265852,0.00163726 0.000628966,0.000826734 0.000943449,0.0018642 0.000943449,0.00310917 0,0.00168265 -0.000609513,0.00310917 -0.00184151,0.0042828 -0.00122551,0.0011704 -0.00277847,0.00175397 -0.00465565,0.00175397 -0.00169237,0 -0.0030962,-0.000502524 -0.00421472,-0.00151082 -0.00111852,-0.00100829 -0.00175721,-0.00231485 -0.00191283,-0.00391969zm0.0287509 -0.00947015l-0.00235376 0.000184799c-0.000210736,-0.000930481 -0.000505766,-0.00160808 -0.000894818,-0.00202631 -0.000641934,-0.000677597 -0.00142976,-0.00101477 -0.00236997,-0.00101477 -0.000752165,0 -0.00141355,0.000210736 -0.00198416,0.000632208 -0.000745681,0.000544672 -0.0013325,0.00133898 -0.0017637,0.0023797 -0.000427956,0.00104395 -0.000651661,0.00252883 -0.000667871,0.00446112 0.000567366,-0.000868881 0.00126442,-0.00151406 0.00209115,-0.00193553 0.000820249,-0.00041823 0.00168913,-0.000628966 0.00259043,-0.000628966 0.0015789,0 0.00292437,0.000577092 0.00403316,0.001741 0.0011088,0.00116391 0.00166319,0.00266176 0.00166319,0.00450327 0,0.00121254 -0.00026261,0.00233431 -0.000784586,0.00337826 -0.000521977,0.00103423 -0.00123848,0.00183502 -0.00214951,0.00238618 -0.000911028,0.000554398 -0.00194526,0.000826734 -0.00310268,0.000826734 -0.00197768,0 -0.00358251,-0.000722987 -0.00482748,-0.00217869 -0.00124821,-0.00144922 -0.00186745,-0.00384188 -0.00186745,-0.00717475 0,-0.00372516 0.000687324,-0.00643231 0.00206521,-0.00812468 0.00119957,-0.00147191 0.00281414,-0.00221435 0.00485341,-0.00221435 0.00151406,0 0.00275578,0.000427956 0.00372516,0.00128063 0.000972628,0.000849428 0.00154972,0.00202307 0.00174425,0.00352415zm-0.00966792 0.00830948c0,0.000817007 0.000175073,0.00159835 0.000521977,0.00234403 0.000343662,0.000745681 0.000829976,0.00131305 0.00144922,0.0017021 0.000625724,0.000392293 0.00128063,0.000586819 0.00196147,0.000586819 0.00100181,0 0.00186096,-0.000402019 0.00257746,-0.0012093 0.000719745,-0.000810523 0.00107962,-0.00190635 0.00107962,-0.00328748 0,-0.0013325 -0.00035663,-0.00238294 -0.00106665,-0.00315131 -0.000706776,-0.000768376 -0.00160159,-0.00115094 -0.00267797,-0.00115094 -0.00107313,0 -0.00198092,0.000382567 -0.0027266,0.00115094 -0.000745681,0.000768376 -0.00111852,0.00177342 -0.00111852,0.00301515zm0.0263096 0.00397481l0 0.00227595 -0.0127479 0c-1.62105e-005,-0.000570608 7.1326e-005,-0.00111852 0.000275578,-0.00164374 0.000320967,-0.000872123 0.000842944,-0.00172479 0.0015562,-0.00256774 0.000719745,-0.000839702 0.00175073,-0.00181233 0.00309944,-0.00291788 0.00209439,-0.00172155 0.00351443,-0.00307999 0.00425038,-0.00408504 0.000735955,-0.00100181 0.00110555,-0.00195498 0.00110555,-0.00284656 0,-0.000940207 -0.000337178,-0.00172804 -0.00100829,-0.00237645 -0.000671113,-0.000641934 -0.00154648,-0.000966144 -0.0026261,-0.000966144 -0.00113797,0 -0.00205224,0.000343662 -0.00273308,0.00103099 -0.000687324,0.000680839 -0.00103423,0.00162753 -0.00104071,0.00283683l-0.00243481 -0.000246399c0.000165347,-0.00181881 0.000794313,-0.00320319 0.00188041,-0.00415312 0.00108934,-0.000953175 0.00255153,-0.00142976 0.00438331,-0.00142976 0.00185123,0 0.00331342,0.000515493 0.00438979,0.00153999 0.00108286,0.00102774 0.00162105,0.00229864 0.00162105,0.00381594 0,0.00077486 -0.00015562,0.00153351 -0.000476588,0.00227595 -0.000311241,0.000745681 -0.00083646,0.00153351 -0.00156917,0.00235376 -0.000732713,0.000826734 -0.0019485,0.00195822 -0.0036506,0.00339447 -0.00142004,0.00119309 -0.00233106,0.00200361 -0.00273308,0.00242833 -0.000405262,0.000421472 -0.000739197,0.000849428 -0.00100181,0.00128063l0.00946043 0z"
       fill-rule="nonzero"
       fill="#1F1A17" /><line
       id="line313"
       y2="0.394378"
       x2="0.403913"
       y1="0.37569"
       x1="0.416142"
       stroke-linejoin="round"
       stroke-linecap="round"
       stroke-width="0.00648419"
       stroke="#1F1A17"
       fill="none" /><line
       id="line315"
       y2="0.415792"
       x2="0.421997"
       y1="0.406659"
       x1="0.442957"
       stroke-linejoin="round"
       stroke-linecap="round"
       stroke-width="0.00648419"
       stroke="#1F1A17"
       fill="none" /><line
       id="line317"
       y2="0.443622"
       x2="0.425382"
       y1="0.447406"
       x1="0.447548"
       stroke-linejoin="round"
       stroke-linecap="round"
       stroke-width="0.00648419"
       stroke="#1F1A17"
       fill="none" /><line
       id="line319"
       y2="0.394378"
       x2="0.349527"
       y1="0.37569"
       x1="0.337298"
       stroke-linejoin="round"
       stroke-linecap="round"
       stroke-width="0.00648419"
       stroke="#1F1A17"
       fill="none" /><line
       id="line321"
       y2="0.415792"
       x2="0.331442"
       y1="0.406659"
       x1="0.310482"
       stroke-linejoin="round"
       stroke-linecap="round"
       stroke-width="0.00648419"
       stroke="#1F1A17"
       fill="none" /><line
       id="line323"
       y2="0.443622"
       x2="0.328058"
       y1="0.447406"
       x1="0.305891"
       stroke-linejoin="round"
       stroke-linecap="round"
       stroke-width="0.00648419"
       stroke="#1F1A17"
       fill="none" /><g
       id="_297579992"><polyline
         points="0.328051,0.136502 0.393853,0.11559 0.397986,0.128598 0.332188,0.149509 "
         stroke-linejoin="round"
         stroke-linecap="round"
         stroke-width="0.00648419"
         stroke="#1F1A17"
         fill="none"
         id="_298461944" /><polyline
         points="0.40212,0.141605 0.336322,0.162516 0.332188,0.149509 0.397986,0.128598 "
         stroke-linejoin="round"
         stroke-linecap="round"
         stroke-width="0.00648419"
         stroke="#1F1A17"
         fill="none"
         id="_298462016" /><polyline
         points="0.336322,0.162516 0.40212,0.141605 0.406254,0.154609 0.340455,0.175524 "
         stroke-linejoin="round"
         stroke-linecap="round"
         stroke-width="0.00648419"
         stroke="#1F1A17"
         fill="none"
         id="_298462304" /><polyline
         points="0.410387,0.167616 0.344589,0.188531 0.340455,0.175524 0.406254,0.154609 "
         stroke-linejoin="round"
         stroke-linecap="round"
         stroke-width="0.00648419"
         stroke="#1F1A17"
         fill="none"
         id="_298462064" /><polyline
         points="0.344589,0.188531 0.410387,0.167616 0.414524,0.180623 0.348723,0.201538 "
         stroke-linejoin="round"
         stroke-linecap="round"
         stroke-width="0.00648419"
         stroke="#1F1A17"
         fill="none"
         id="_297579704" /><polyline
         points="0.418658,0.193631 0.352856,0.214545 0.348723,0.201538 0.414524,0.180623 "
         stroke-linejoin="round"
         stroke-linecap="round"
         stroke-width="0.00648419"
         stroke="#1F1A17"
         fill="none"
         id="_297579944" /><polyline
         points="0.352856,0.214545 0.418658,0.193631 0.422792,0.206638 0.35699,0.227553 "
         stroke-linejoin="round"
         stroke-linecap="round"
         stroke-width="0.00648419"
         stroke="#1F1A17"
         fill="none"
         id="_297579872" /></g><g
       id="_297579488"><path
         d="M0.00324209 0.526467l0.13349 0c0,0 0.0851147,0.00582604 0.0905841,0.100044 -0.00546941,0.0942185 -0.0905841,0.100044 -0.0905841,0.100044l-0.13349 0 0 -0.100044 0 -0.100044z"
         stroke-width="0.00648419"
         stroke="#1F1A17"
         fill="#F8F3EA"
         id="_297579320" /><path
         d="M0.748923 0.526467l-0.13349 0c0,0 -0.0851147,0.00582604 -0.0905841,0.100044 0.00546941,0.0942185 0.0905841,0.100044 0.0905841,0.100044l0.13349 0 0 -0.100044 0 -0.100044z"
         stroke-width="0.00648419"
         stroke="#1F1A17"
         fill="#F8F3EA"
         id="_297579776" /><circle
         r="0.0726165"
         cy="0.626802"
         cx="0.127563"
         stroke-width="0.00648419"
         stroke="#1F1A17"
         fill="#ACB192"
         id="_297579656" /><circle
         r="0.0726165"
         cy="0.626802"
         cx="0.624602"
         stroke-width="0.00648419"
         stroke="#1F1A17"
         fill="#ACB192"
         id="_297579512" /></g><g
       id="_297578960"><rect
         height="0.202966"
         width="0.325653"
         y="0.795804"
         x="0.213258"
         stroke-linejoin="round"
         stroke-linecap="round"
         stroke-width="0.00648419"
         stroke="#1F1A17"
         fill="none"
         id="_297579920" /><rect
         height="0.202966"
         width="0.0559254"
         y="0.795804"
         x="0.213256"
         stroke-linejoin="round"
         stroke-linecap="round"
         stroke-width="0.00648419"
         stroke="#1F1A17"
         fill="#1F1A17"
         id="_297579608" /><rect
         height="0.202966"
         width="0.0559254"
         y="0.795804"
         x="0.482983"
         stroke-linejoin="round"
         stroke-linecap="round"
         stroke-width="0.00648419"
         stroke="#1F1A17"
         fill="#1F1A17"
         id="_297579392" /><rect
         height="0.0759062"
         width="0.213801"
         y="0.795803"
         x="0.269183"
         stroke-linejoin="round"
         stroke-linecap="round"
         stroke-width="0.00648419"
         stroke="#1F1A17"
         fill="#383431"
         id="_297578768" /><rect
         height="0.0873733"
         width="0.213801"
         y="0.871708"
         x="0.269183"
         stroke-linejoin="round"
         stroke-linecap="round"
         stroke-width="0.00648419"
         stroke="#1F1A17"
         fill="#1F1A17"
         id="_297578912" /><rect
         height="0.0318287"
         width="0.0889922"
         y="0.839879"
         x="0.331586"
         stroke-linejoin="round"
         stroke-linecap="round"
         stroke-width="0.00648419"
         stroke="#1F1A17"
         fill="#4D4948"
         id="_297578528" /><g
         id="g348"><rect
           height="0.0677026"
           width="0.0169111"
           y="0.871708"
           x="0.300795"
           stroke-linejoin="round"
           stroke-linecap="round"
           stroke-width="0.00648419"
           stroke="#1F1A17"
           fill="#DEDEDD"
           id="_297578744" /><rect
           height="0.0677026"
           width="0.0169111"
           y="0.871708"
           x="0.345349"
           stroke-linejoin="round"
           stroke-linecap="round"
           stroke-width="0.00648419"
           stroke="#1F1A17"
           fill="#DEDEDD"
           id="_297579176" /><rect
           height="0.0677026"
           width="0.0169111"
           y="0.871708"
           x="0.389903"
           stroke-linejoin="round"
           stroke-linecap="round"
           stroke-width="0.00648419"
           stroke="#1F1A17"
           fill="#DEDEDD"
           id="_297579152" /><rect
           height="0.0677026"
           width="0.0169111"
           y="0.871708"
           x="0.434457"
           stroke-linejoin="round"
           stroke-linecap="round"
           stroke-width="0.00648419"
           stroke="#1F1A17"
           fill="#DEDEDD"
           id="_297578864" /></g></g></g></svg>