<?xml version="1.0" encoding="UTF-8" standalone="no"?>
<svg
   xmlns:dc="http://purl.org/dc/elements/1.1/"
   xmlns:cc="http://creativecommons.org/ns#"
   xmlns:rdf="http://www.w3.org/1999/02/22-rdf-syntax-ns#"
   xmlns:svg="http://www.w3.org/2000/svg"
   xmlns="http://www.w3.org/2000/svg"
   id="svg552"
   version="1.1"
   viewBox="0 0 0.585789 1.0306"
   clip-rule="evenodd"
   fill-rule="evenodd"
   image-rendering="optimizeQuality"
   text-rendering="geometricPrecision"
   shape-rendering="geometricPrecision"
   height="40.8166mm"
   width="23.2mm"
   xml:space="preserve"><metadata
     id="metadata558"><rdf:RDF><cc:Work
         rdf:about=""><dc:format>image/svg+xml</dc:format><dc:type
           rdf:resource="http://purl.org/dc/dcmitype/StillImage" /><dc:title></dc:title></cc:Work></rdf:RDF></metadata><defs
     id="defs556" /><g
     id="图层_x0020_1"><metadata
       id="CorelCorpID_0Corel-Layer" /><path
       id="path364"
       d="M0.0605989 0.00252495l0.464586 0c0.0319432,0 0.0580765,0.0253884 0.0580765,0.0564125l0 0.912723c0,0.0310216 -0.0261383,0.056415 -0.0580765,0.056415l-0.464586 0c-0.0319381,0 -0.0580765,-0.0253859 -0.0580765,-0.056415l0 -0.912723c0,-0.0310292 0.0261333,-0.0564125 0.0580765,-0.0564125z"
       stroke-linejoin="round"
       stroke-linecap="round"
       stroke-width="0.00504991"
       stroke="#1F1A17"
       fill="#F8F3EA" /><rect
       id="rect366"
       ry="0.0445907"
       rx="0.0445907"
       height="0.633205"
       width="0.518649"
       y="0.0512337"
       x="0.0335681"
       stroke-width="0.00504991"
       stroke="#1F1A17"
       fill="#7F7E7B" /><g
       id="_246356008"><path
         d="M0.00252243 0.701053l0.0892117 0c0,0 0.0568847,0.00389348 0.0605383,0.0668608 -0.00365361,0.0629648 -0.0605383,0.0668608 -0.0605383,0.0668608l-0.0892117 0 0 -0.0668608 0 -0.0668608z"
         stroke-linejoin="round"
         stroke-linecap="round"
         stroke-width="0.00504991"
         stroke="#1F1A17"
         fill="none"
         id="_246355960" /><circle
         r="0.0491823"
         cy="0.768108"
         cx="0.0856072"
         stroke-linejoin="round"
         stroke-linecap="round"
         stroke-width="0.00504991"
         stroke="#1F1A17"
         fill="#ACB192"
         id="_246356128" /></g><g
       id="_246371848"><path
         d="M0.583262 0.701053l-0.0892117 0c0,0 -0.0568822,0.00389348 -0.0605358,0.0668608 0.00365361,0.0629648 0.0605358,0.0668608 0.0605358,0.0668608l0.0892117 0 0 -0.0668608 0 -0.0668608z"
         stroke-linejoin="round"
         stroke-linecap="round"
         stroke-width="0.00504991"
         stroke="#1F1A17"
         fill="none"
         id="_246371872" /><circle
         r="0.0491818"
         cy="0.768108"
         cx="0.500178"
         stroke-linejoin="round"
         stroke-linecap="round"
         stroke-width="0.00504991"
         stroke="#1F1A17"
         fill="#ACB192"
         id="_246371920" /></g><g
       id="_246371824"><rect
         height="0.156867"
         width="0.251688"
         y="0.871207"
         x="0.167049"
         stroke-linejoin="round"
         stroke-linecap="round"
         stroke-width="0.00504991"
         stroke="#1F1A17"
         fill="none"
         id="_246371416" /><rect
         height="0.156867"
         width="0.0432232"
         y="0.871207"
         x="0.167048"
         stroke-linejoin="round"
         stroke-linecap="round"
         stroke-width="0.00504991"
         stroke="#1F1A17"
         fill="#1F1A17"
         id="_246371608" /><rect
         height="0.156867"
         width="0.0432232"
         y="0.871207"
         x="0.375513"
         stroke-linejoin="round"
         stroke-linecap="round"
         stroke-width="0.00504991"
         stroke="#1F1A17"
         fill="#1F1A17"
         id="_246371224" /><rect
         height="0.058666"
         width="0.165241"
         y="0.871207"
         x="0.210272"
         stroke-linejoin="round"
         stroke-linecap="round"
         stroke-width="0.00504991"
         stroke="#1F1A17"
         fill="#383431"
         id="_246371440" /><rect
         height="0.0675285"
         width="0.165241"
         y="0.929872"
         x="0.210272"
         stroke-linejoin="round"
         stroke-linecap="round"
         stroke-width="0.00504991"
         stroke="#1F1A17"
         fill="#1F1A17"
         id="_246371512" /><rect
         height="0.0245996"
         width="0.0687796"
         y="0.905272"
         x="0.258502"
         stroke-linejoin="round"
         stroke-linecap="round"
         stroke-width="0.00504991"
         stroke="#1F1A17"
         fill="#4D4948"
         id="_246371080" /><g
         id="g384"><rect
           height="0.0523256"
           width="0.0130701"
           y="0.929872"
           x="0.234705"
           stroke-linejoin="round"
           stroke-linecap="round"
           stroke-width="0.00504991"
           stroke="#1F1A17"
           fill="#DEDEDD"
           id="_246371344" /><rect
           height="0.0523256"
           width="0.0130701"
           y="0.929872"
           x="0.269139"
           stroke-linejoin="round"
           stroke-linecap="round"
           stroke-width="0.00504991"
           stroke="#1F1A17"
           fill="#DEDEDD"
           id="_246371200" /><rect
           height="0.0523256"
           width="0.0130701"
           y="0.929872"
           x="0.303573"
           stroke-linejoin="round"
           stroke-linecap="round"
           stroke-width="0.00504991"
           stroke="#1F1A17"
           fill="#DEDEDD"
           id="_246371104" /><rect
           height="0.0523256"
           width="0.0130701"
           y="0.929872"
           x="0.338008"
           stroke-linejoin="round"
           stroke-linecap="round"
           stroke-width="0.00504991"
           stroke="#1F1A17"
           fill="#DEDEDD"
           id="_246371776" /></g></g><path
       id="path387"
       d="M0.0335667 0.105745l0.0679819 0 0 0.578692 -0.0407881 0c-0.0149553,0 -0.0271938,-0.0122359 -0.0271938,-0.0271912l0 -0.5515z"
       fill="#4D4948" /><circle
       id="circle389"
       r="0.0219397"
       cy="0.141972"
       cx="0.0675592"
       fill="#767458" /><circle
       id="circle391"
       r="0.0219397"
       cy="0.198221"
       cx="0.0675592"
       fill="#767458" /><circle
       id="circle393"
       r="0.0219397"
       cy="0.25447"
       cx="0.0675592"
       fill="#767458" /><circle
       id="circle395"
       r="0.0219397"
       cy="0.310719"
       cx="0.0675592"
       fill="#767458" /><circle
       id="circle397"
       r="0.0219397"
       cy="0.366967"
       cx="0.0675592"
       fill="#767458" /><circle
       id="circle399"
       r="0.0219397"
       cy="0.423215"
       cx="0.0675592"
       fill="#767458" /><circle
       id="circle401"
       r="0.0219397"
       cy="0.479464"
       cx="0.0675592"
       fill="#767458" /><circle
       id="circle403"
       r="0.0219397"
       cy="0.535713"
       cx="0.0675592"
       fill="#767458" /><circle
       id="circle405"
       r="0.0219397"
       cy="0.591962"
       cx="0.0675592"
       fill="#767458" /><circle
       id="circle407"
       r="0.0219397"
       cy="0.648209"
       cx="0.0675592"
       fill="#767458" /><path
       id="path409"
       d="M0.552218 0.105745l-0.0679819 0 0 0.578692 0.0407881 0c0.0149553,0 0.0271938,-0.0122359 0.0271938,-0.0271912l0 -0.5515z"
       fill="#4D4948" /><circle
       id="circle411"
       r="0.0219397"
       cy="0.141972"
       cx="0.518227"
       fill="#767458" /><circle
       id="circle413"
       r="0.0219397"
       cy="0.198221"
       cx="0.518227"
       fill="#767458" /><circle
       id="circle415"
       r="0.0219397"
       cy="0.25447"
       cx="0.518227"
       fill="#767458" /><circle
       id="circle417"
       r="0.0219397"
       cy="0.310719"
       cx="0.518227"
       fill="#767458" /><circle
       id="circle419"
       r="0.0219397"
       cy="0.366967"
       cx="0.518227"
       fill="#767458" /><circle
       id="circle421"
       r="0.0219397"
       cy="0.423215"
       cx="0.518227"
       fill="#767458" /><circle
       id="circle423"
       r="0.0219397"
       cy="0.479464"
       cx="0.518227"
       fill="#767458" /><circle
       id="circle425"
       r="0.0219397"
       cy="0.535713"
       cx="0.518227"
       fill="#767458" /><circle
       id="circle427"
       r="0.0219397"
       cy="0.591962"
       cx="0.518227"
       fill="#767458" /><circle
       id="circle429"
       r="0.0219397"
       cy="0.648209"
       cx="0.518227"
       fill="#767458" /><rect
       id="rect431"
       height="0.0545606"
       width="0.07629"
       y="0.122289"
       x="0.132056"
       fill="#D49B2A" /><rect
       id="rect433"
       height="0.0545606"
       width="0.07629"
       y="0.176849"
       x="0.132056"
       fill="#CD3635" /><rect
       id="rect435"
       height="0.0545606"
       width="0.07629"
       y="0.23141"
       x="0.132056"
       fill="#9E2B2A" /><rect
       id="rect437"
       height="0.0545606"
       width="0.07629"
       y="0.28597"
       x="0.132056"
       fill="#4B2A6A" /><rect
       id="rect439"
       height="0.0545606"
       width="0.07629"
       y="0.340531"
       x="0.132056"
       fill="#2B3E7E" /><rect
       id="rect441"
       height="0.0545606"
       width="0.07629"
       y="0.395092"
       x="0.132056"
       fill="#429C36" /><rect
       id="rect443"
       height="0.0545606"
       width="0.07629"
       y="0.449652"
       x="0.132056"
       fill="#256542" /><rect
       id="rect445"
       height="0.0545606"
       width="0.07629"
       y="0.504213"
       x="0.132056"
       fill="#CE9A2C" /><rect
       id="rect447"
       height="0.0545606"
       width="0.07629"
       y="0.558774"
       x="0.132056"
       fill="#CD3432" /><rect
       id="rect449"
       height="0.0545606"
       width="0.07629"
       y="0.613334"
       x="0.132056"
       fill="#992B2C" /><path
       id="path451"
       d="M0.1864 0.571223l0.00497668 0 0 0.027873c-0.00124733,4.03993e-005 -0.00244416,-0.000156547 -0.00359301,-0.000598414 -0.00190382,-0.000706987 -0.00377228,-0.00184574 -0.00561802,-0.00340869 -0.00183312,-0.00157052 -0.00396418,-0.00382783 -0.00638056,-0.00677445 -0.00375966,-0.00458532 -0.00673658,-0.00768849 -0.00893581,-0.00929688 -0.00218914,-0.00161092 -0.00427222,-0.00241638 -0.00622654,-0.00241638 -0.00205026,0 -0.00377733,0.000734762 -0.00519383,0.00219923 -0.00140135,0.00147205 -0.00211086,0.00338849 -0.00211086,0.00574427 0,0.00249465 0.000749911,0.00448937 0.00224973,0.00597909 0.00149225,0.00150235 0.00356524,0.00225983 0.00620381,0.00228003l-0.000537815 0.00532008c-0.0039768,-0.000363593 -0.00699917,-0.00173717 -0.00908226,-0.00411568 -0.00208309,-0.00237346 -0.00312337,-0.00557762 -0.00312337,-0.00957968 0,-0.00404498 0.00113118,-0.00724914 0.00336829,-0.0096024 0.00224973,-0.00236841 0.00502718,-0.00354756 0.0083475,-0.00354756 0.00168667,0 0.00334556,0.000343394 0.00497668,0.00104281 0.0016286,0.000686788 0.00334809,0.00183564 0.00514586,0.00343646 0.00180787,0.0015983 0.00427727,0.00426212 0.00742084,0.00798138 0.0026108,0.00310317 0.00437827,0.00509788 0.00531503,0.00597909 0.000921608,0.000883734 0.00185332,0.00161345 0.00279765,0.00218914l0 -0.0206844z"
       fill-rule="nonzero"
       fill="white" /><path
       id="path453"
       d="M0.17987 0.544062l-0.000686788 -0.00517363c0.002934,-0.000595889 0.00504991,-0.0016084 0.00634521,-0.00303499 0.0012953,-0.00143165 0.00194421,-0.00316882 0.00194421,-0.00522413 0,-0.00243406 -0.00084586,-0.00449442 -0.00253505,-0.00617351 -0.00168667,-0.00166647 -0.00378238,-0.00251233 -0.00627199,-0.00251233 -0.00237851,0 -0.00434292,0.000775161 -0.00588314,0.00232296 -0.00154275,0.00156547 -0.00231791,0.00353746 -0.00231791,0.00593364 0,0.000982207 0.000196946,0.00219923 0.000578214,0.00365361l-0.00454492 -0.000580739c4.03993e-005,-0.000345919 6.05989e-005,-0.000618614 6.05989e-005,-0.00083576 0,-0.00219671 -0.000580739,-0.00418132 -0.00172959,-0.00594879 -0.00114885,-0.00176747 -0.00292642,-0.0026512 -0.0053226,-0.0026512 -0.00189372,0 -0.00347434,0.000646388 -0.00471156,0.00193411 -0.0012448,0.0012852 -0.00187604,0.0029441 -0.00187604,0.00497921 0,0.00200986 0.000636288,0.00368896 0.00189624,0.00502718 0.001265,0.0013458 0.00316882,0.00220681 0.00570387,0.0025906l-0.000924133 0.00517363c-0.00347434,-0.000628714 -0.00616594,-0.00207046 -0.00806975,-0.00430757 -0.00190382,-0.00224973 -0.00286835,-0.00503728 -0.00286835,-0.0083778 0,-0.00229771 0.000499941,-0.00441867 0.00148215,-0.00635278 0.000992307,-0.00193159 0.00233811,-0.00341626 0.0040475,-0.00444644 0.00170687,-0.00102008 0.00351474,-0.00154022 0.00543875,-0.00154022 0.00181544,0 0.00347686,0.000489841 0.00497921,0.00147205 0.00149225,0.000982207 0.00267898,0.00242396 0.00356271,0.00433787 0.000568115,-0.00249465 0.00176747,-0.00442877 0.00358543,-0.00580992 0.00180534,-0.0013761 0.00407275,-0.00206541 0.00679213,-0.00206541 0.00368391,0 0.00680728,0.0013357 0.00936758,0.00402983 0.00256283,0.00267645 0.00383793,0.00607504 0.00383793,0.0101781 0,0.00370411 -0.00109836,0.00677698 -0.00330769,0.00922113 -0.00219923,0.00244416 -0.00505496,0.00383793 -0.00857222,0.00418132z"
       fill-rule="nonzero"
       fill="white" /><path
       id="path455"
       d="M0.191288 0.472858l-0.0100922 0 0 0.0182908 -0.00475196 0 -0.0273251 -0.0192452 0 -0.00423182 0.0273251 0 0 -0.00569377 0.00475196 0 0 0.00569377 0.0100922 0 0 0.00518626zm-0.0148442 0l-0.0190104 0 0.0190104 0.0131954 0 -0.0131954z"
       fill-rule="nonzero"
       fill="white" /><path
       id="path457"
       d="M0.179592 0.435133l-0.000459542 -0.00544128c0.00264868,-0.000401468 0.00463077,-0.0013357 0.00596647,-0.00280017 0.00133823,-0.00147205 0.00200481,-0.00323952 0.00200481,-0.00530998 0,-0.00249465 -0.000944333,-0.00460552 -0.00281785,-0.00632248 -0.00188867,-0.00172959 -0.00437827,-0.0025906 -0.00748144,-0.0025906 -0.00295672,0 -0.00528473,0.00082566 -0.0069916,0.00248203 -0.00170939,0.00165889 -0.00256283,0.00383036 -0.00256283,0.00651943 0,0.00166899 0.000383793,0.00317134 0.00113875,0.00451714 0.000757486,0.0013458 0.00173969,0.00239618 0.0029441,0.00316124l-0.000626189 0.00486054 -0.0216591 -0.00408285 0 -0.0209748 0.00494891 0 0 0.0168288 0.0113295 0.00227751c-0.00176747,-0.00253 -0.00265373,-0.00519131 -0.00265373,-0.00797128 0,-0.00368138 0.00128015,-0.00678203 0.00383288,-0.00931708 0.0025502,-0.00253253 0.00583012,-0.00380258 0.00983722,-0.00380258 0.00381773,0 0.00711785,0.00112108 0.00989529,0.00334051 0.00340869,0.00270928 0.00511808,0.00640328 0.00511808,0.0110744 0,0.00383793 -0.00107311,0.0069714 -0.00322437,0.00939535 -0.00214621,0.00242901 -0.00499436,0.00381016 -0.00853939,0.00415607z"
       fill-rule="nonzero"
       fill="white" /><path
       id="path459"
       d="M0.159178 0.353536l0.000403993 0.00514333c-0.00203511,0.000462067 -0.00351726,0.00110845 -0.00442877,0.00195431 -0.00148467,0.00140387 -0.00222196,0.00313347 -0.00222196,0.00518373 0,0.00164879 0.000464592,0.00309307 0.0013862,0.0043404 0.00118925,0.00163112 0.00292642,0.00291632 0.00520393,0.00385813 0.00227751,0.000931708 0.00552712,0.00142407 0.00974885,0.00146447 -0.00189372,-0.00124733 -0.00330769,-0.00276987 -0.00423182,-0.00457774 -0.000911508,-0.00179524 -0.00137358,-0.00368896 -0.00137358,-0.00566347 0,-0.00345666 0.00126753,-0.00639318 0.00380763,-0.00881714 0.00254515,-0.00242396 0.00582507,-0.00364351 0.00984985,-0.00364351 0.0026512,0 0.00510546,0.000580739 0.00738297,0.00171949 0.00226741,0.00113875 0.00401468,0.00270928 0.00522413,0.00470399 0.00120693,0.00199219 0.00180787,0.0042495 0.00180787,0.00678203 0,0.00432272 -0.00158315,0.00783493 -0.00476459,0.0105568 -0.00317134,0.00272948 -0.00840557,0.00408538 -0.0156901,0.00408538 -0.00814803,0 -0.014069,-0.00150235 -0.0177706,-0.00451967 -0.00321932,-0.0026209 -0.00484286,-0.00615584 -0.00484286,-0.0106124 0,-0.00330769 0.000936758,-0.00602959 0.00280017,-0.00815055 0.00185584,-0.00212096 0.00442877,-0.00338596 0.00770868,-0.00380763zm0.0181746 0.0211389c0.00178514,0 0.00349201,-0.000383793 0.00512313,-0.00113875 0.0016286,-0.000754961 0.00286835,-0.00181797 0.00372431,-0.00317387 0.00085091,-0.00136348 0.0012852,-0.00279512 0.0012852,-0.00428737 0,-0.00219166 -0.000886259,-0.00406518 -0.0026512,-0.00563822 -0.00176747,-0.00157052 -0.00416617,-0.00235326 -0.00718854,-0.00235326 -0.00291632,0 -0.00521403,0.000772636 -0.00689312,0.00232296 -0.00167909,0.00155285 -0.00251233,0.00350716 -0.00251233,0.00586547 0,0.00234316 0.000833235,0.00432777 0.00251233,0.00595889 0.00167909,0.0016286 0.00387833,0.00244416 0.00660023,0.00244416z"
       fill-rule="nonzero"
       fill="white" /><path
       id="path461"
       d="M0.154371 0.325507l-0.00497921 0 0 -0.0272973 0.00402478 0c0.00285825,0.0026815 0.0066583,0.00534533 0.0113926,0.0079839 0.00473176,0.002631 0.00960998,0.00467369 0.0146069,0.00610786 0.00353494,0.00104028 0.00739559,0.00169929 0.0115971,0.00198209l0 0.0053226c-0.00332031,-5.80739e-005 -0.00732489,-0.000706987 -0.0120264,-0.00195431 -0.00469641,-0.00124733 -0.00923123,-0.00303247 -0.0135918,-0.00536048 -0.00435807,-0.00233811 -0.00804198,-0.00481004 -0.0110239,-0.00744104l0 0.0206566z"
       fill-rule="nonzero"
       fill="white" /><path
       id="path463"
       d="M0.191376 0.247716l0 0.00517616 -0.032991 0c0.00118925,0.00124733 0.00237851,0.00287592 0.00356271,0.00490094 0.00118925,0.00203006 0.00208561,0.00384551 0.00267393,0.00545643l-0.00499688 0c-0.001366,-0.00289612 -0.00301732,-0.00542613 -0.00494891,-0.00759759 -0.00194421,-0.00216136 -0.00382278,-0.00370158 -0.00564832,-0.00460552l0 -0.00333041 0.0423485 0z"
       fill-rule="nonzero"
       fill="white" /><path
       id="path465"
       d="M0.1864 0.189298l0.00497668 0 0 0.0278755c-0.00124733,4.03993e-005 -0.00244416,-0.000156547 -0.00359301,-0.000598414 -0.00190382,-0.000706987 -0.00377228,-0.00184574 -0.00561802,-0.00340869 -0.00183312,-0.00157052 -0.00396418,-0.00382783 -0.00638056,-0.00677445 -0.00375966,-0.00458532 -0.00673658,-0.00768849 -0.00893581,-0.00929688 -0.00218914,-0.00161092 -0.00427222,-0.00241638 -0.00622654,-0.00241638 -0.00205026,0 -0.00377733,0.000734762 -0.00519383,0.00219923 -0.00140135,0.00147205 -0.00211086,0.00338849 -0.00211086,0.00574427 0,0.00249465 0.000749911,0.00448937 0.00224973,0.00597657 0.00149225,0.00150487 0.00356524,0.00226236 0.00620381,0.00228256l-0.000537815 0.00532008c-0.0039768,-0.000363593 -0.00699917,-0.00173717 -0.00908226,-0.00411568 -0.00208309,-0.00237346 -0.00312337,-0.00557762 -0.00312337,-0.00957968 0,-0.00404498 0.00113118,-0.00724914 0.00336829,-0.0096024 0.00224973,-0.00236841 0.00502718,-0.00354756 0.0083475,-0.00354756 0.00168667,0 0.00334556,0.000343394 0.00497668,0.00104281 0.0016286,0.000686788 0.00334809,0.00183564 0.00514586,0.00343646 0.00180787,0.0015983 0.00427727,0.00426212 0.00742084,0.00798138 0.0026108,0.00310317 0.00437827,0.00509536 0.00531503,0.00597909 0.000921608,0.000883734 0.00185332,0.00161345 0.00279765,0.00218914l0 -0.0206869z"
       fill-rule="nonzero"
       fill="white" /><path
       id="path467"
       d="M0.17987 0.162137l-0.000686788 -0.00517363c0.002934,-0.000598414 0.00504991,-0.00161092 0.00634521,-0.00303499 0.0012953,-0.00143417 0.00194421,-0.00317134 0.00194421,-0.00522413 0,-0.00243406 -0.00084586,-0.00449442 -0.00253505,-0.00617604 -0.00168667,-0.00166647 -0.00378238,-0.0025098 -0.00627199,-0.0025098 -0.00237851,0 -0.00434292,0.000772636 -0.00588314,0.00232296 -0.00154275,0.00156295 -0.00231791,0.00353746 -0.00231791,0.00593112 0,0.000982207 0.000196946,0.00220176 0.000578214,0.00365361l-0.00454492 -0.000580739c4.03993e-005,-0.000343394 6.05989e-005,-0.000618614 6.05989e-005,-0.00083576 0,-0.00219671 -0.000580739,-0.00418132 -0.00172959,-0.00594627 -0.00114885,-0.00176747 -0.00292642,-0.00265373 -0.0053226,-0.00265373 -0.00189372,0 -0.00347434,0.000648913 -0.00471156,0.00193411 -0.0012448,0.00128773 -0.00187604,0.00294662 -0.00187604,0.00498173 0,0.00200986 0.000636288,0.00368896 0.00189624,0.00502466 0.001265,0.0013458 0.00316882,0.00220933 0.00570387,0.00259313l-0.000924133 0.00517363c-0.00347434,-0.000628714 -0.00616594,-0.00207299 -0.00806975,-0.0043101 -0.00190382,-0.00224721 -0.00286835,-0.00503476 -0.00286835,-0.00837527 0,-0.00229771 0.000499941,-0.00441867 0.00148215,-0.00635278 0.000992307,-0.00193411 0.00233811,-0.00341626 0.0040475,-0.00444897 0.00170687,-0.00101756 0.00351474,-0.00154022 0.00543875,-0.00154022 0.00181544,0 0.00347686,0.000492366 0.00497921,0.00147457 0.00149225,0.000982207 0.00267898,0.00242396 0.00356271,0.00433787 0.000568115,-0.00249465 0.00176747,-0.00442877 0.00358543,-0.00581244 0.00180534,-0.0013761 0.00407275,-0.00206289 0.00679213,-0.00206289 0.00368391,0 0.00680728,0.0013357 0.00936758,0.0040273 0.00256283,0.00267898 0.00383793,0.00607504 0.00383793,0.0101806 0,0.00370411 -0.00109836,0.00677698 -0.00330769,0.00922113 -0.00219923,0.00244416 -0.00505496,0.00383793 -0.00857222,0.00418132z"
       fill-rule="nonzero"
       fill="white" /><path
       id="path469"
       d="M0.191376 0.62964l0 0.00517868 -0.032991 0c0.00118925,0.0012448 0.00237851,0.00287592 0.00356271,0.00489841 0.00118925,0.00203006 0.00208561,0.00384803 0.00267393,0.00545643l-0.00499688 0c-0.001366,-0.0028936 -0.00301732,-0.00542613 -0.00494891,-0.00759759 -0.00194421,-0.00216136 -0.00382278,-0.00369906 -0.00564832,-0.00460552l0 -0.00333041 0.0423485 0z"
       fill-rule="nonzero"
       fill="white" /><rect
       id="rect471"
       height="0.0545606"
       width="0.07629"
       y="0.122289"
       x="0.377441"
       fill="#2A6040" /><rect
       id="rect473"
       height="0.0545606"
       width="0.07629"
       y="0.176849"
       x="0.377441"
       fill="#449436" /><rect
       id="rect475"
       height="0.0545606"
       width="0.07629"
       y="0.23141"
       x="0.377441"
       fill="#2A3773" /><rect
       id="rect477"
       height="0.0545606"
       width="0.07629"
       y="0.28597"
       x="0.377441"
       fill="#3A275B" /><path
       id="path479"
       d="M0.436673 0.14549l-0.0100922 0 0 0.0182933 -0.00475196 0 -0.0273276 -0.0192477 0 -0.00423182 0.0273276 0 0 -0.00569377 0.00475196 0 0 0.00569377 0.0100922 0 0 0.00518626zm-0.0148442 0l-0.0190104 0 0.0190104 0.0131954 0 -0.0131954z"
       fill-rule="nonzero"
       fill="white" /><path
       id="path481"
       d="M0.424978 0.216889l-0.000462067 -0.00543875c0.00264868,-0.000401468 0.00463329,-0.0013357 0.00596899,-0.00280017 0.0013357,-0.00147205 0.00200481,-0.00323952 0.00200481,-0.00530998 0,-0.00249465 -0.000946858,-0.00460552 -0.00282037,-0.00632248 -0.00188614,-0.00172959 -0.00437827,-0.0025906 -0.00747891,-0.0025906 -0.00295672,0 -0.00528473,0.00082566 -0.0069916,0.00248203 -0.00170939,0.00165889 -0.00256535,0.00383036 -0.00256535,0.00651943 0,0.00166899 0.000383793,0.00317134 0.00113875,0.00451714 0.000760011,0.0013458 0.00173969,0.00239618 0.00294662,0.00316124l-0.000628714 0.00486054 -0.0216591 -0.00408285 0 -0.0209748 0.00495143 0 0 0.0168288 0.0113269 0.00227751c-0.00176494,-0.00253 -0.0026512,-0.00519383 -0.0026512,-0.00797128 0,-0.00368138 0.00128015,-0.00678203 0.00383036,-0.00931708 0.00255273,-0.00253253 0.00583264,-0.00380258 0.00983975,-0.00380258 0.00381773,0 0.00711785,0.00111855 0.00989529,0.00334051 0.00340616,0.00270928 0.00511808,0.00640328 0.00511808,0.0110744 0,0.00383793 -0.00107311,0.0069714 -0.00322437,0.00939535 -0.00214621,0.00242901 -0.00499688,0.00381016 -0.00853939,0.00415355z"
       fill-rule="nonzero"
       fill="white" /><path
       id="path483"
       d="M0.404561 0.244416l0.000403993 0.00514333c-0.00203259,0.000462067 -0.00351726,0.00110845 -0.00442877,0.00195431 -0.00148215,0.00140387 -0.00221943,0.00313347 -0.00221943,0.00518373 0,0.00164879 0.000464592,0.00309307 0.0013862,0.0043404 0.00118925,0.00163112 0.0029239,0.00291632 0.00520141,0.00385813 0.00228003,0.000931708 0.00552965,0.00142407 0.00974885,0.00146195 -0.00189119,-0.0012448 -0.00330516,-0.00276735 -0.0042293,-0.00457522 -0.000911508,-0.00179524 -0.00137358,-0.00368896 -0.00137358,-0.00566347 0,-0.00345666 0.001265,-0.00639318 0.00380763,-0.00881714 0.00254515,-0.00242396 0.00582507,-0.00364351 0.00984985,-0.00364351 0.0026512,0 0.00510546,0.000580739 0.00738297,0.00171949 0.00226741,0.00113875 0.00401468,0.00270928 0.00522413,0.00470399 0.0012044,0.00199219 0.00180534,0.0042495 0.00180534,0.00678203 0,0.00432272 -0.00158315,0.00783493 -0.00476206,0.0105568 -0.00317134,0.00272948 -0.00840557,0.00408538 -0.0156901,0.00408538 -0.00814803,0 -0.0140716,-0.00150235 -0.0177706,-0.00451967 -0.00321932,-0.0026209 -0.00484286,-0.00615584 -0.00484286,-0.0106124 0,-0.00330769 0.000934233,-0.00602959 0.00279765,-0.00815055 0.00185837,-0.00212096 0.00442877,-0.00338596 0.00770868,-0.00380763zm0.0181746 0.0211389c0.00178767,0 0.00349454,-0.000383793 0.00512313,-0.00113875 0.00163112,-0.000754961 0.00287087,-0.00181797 0.00372431,-0.00317387 0.000853434,-0.00136348 0.00128773,-0.00279512 0.00128773,-0.00428737 0,-0.00219166 -0.000886259,-0.00406518 -0.00265373,-0.00563822 -0.00176494,-0.00157052 -0.00416365,-0.00235578 -0.00718602,-0.00235578 -0.00291632,0 -0.00521403,0.000775161 -0.00689312,0.00232548 -0.00168162,0.00155285 -0.00251233,0.00350716 -0.00251233,0.00586547 0,0.00234316 0.00083071,0.00432777 0.00251233,0.00595637 0.00167909,0.00163112 0.0038758,0.00244668 0.0065977,0.00244668z"
       fill-rule="nonzero"
       fill="white" /><path
       id="path485"
       d="M0.399756 0.325507l-0.00497921 0 0 -0.0272973 0.00402478 0c0.00285825,0.0026815 0.0066583,0.00534533 0.0113901,0.0079839 0.00473429,0.002631 0.0096125,0.00467369 0.0146094,0.00610786 0.00353241,0.00104028 0.00739307,0.00169929 0.0115946,0.00198209l0 0.0053226c-0.00331779,-5.80739e-005 -0.00732237,-0.000706987 -0.0120264,-0.00195431 -0.00469389,-0.00124733 -0.00923123,-0.00303247 -0.0135893,-0.00536048 -0.00435807,-0.00233811 -0.00804198,-0.00481004 -0.0110239,-0.00744104l0 0.0206566z"
       fill-rule="nonzero"
       fill="white" /><rect
       id="rect487"
       height="0.0545606"
       width="0.07629"
       y="0.340531"
       x="0.377441"
       fill="#8E272A" /><rect
       id="rect489"
       height="0.0545606"
       width="0.07629"
       y="0.395092"
       x="0.377441"
       fill="#BF322E" /><rect
       id="rect491"
       height="0.0545606"
       width="0.07629"
       y="0.449652"
       x="0.377441"
       fill="#38242A" /><rect
       id="rect493"
       height="0.0545606"
       width="0.07629"
       y="0.504213"
       x="0.377441"
       fill="#4E482E" /><rect
       id="rect495"
       height="0.0545606"
       width="0.07629"
       y="0.558774"
       x="0.377441"
       fill="#5B2729" /><rect
       id="rect497"
       height="0.0545606"
       width="0.07629"
       y="0.613334"
       x="0.377441"
       fill="#191B1D" /><path
       id="path499"
       d="M0.421395 0.606065l-0.000277745 -0.00326224c0.00159072,-0.000242396 0.00277745,-0.00080041 0.00358038,-0.00167909 0.00080041,-0.000886259 0.00120188,-0.00194421 0.00120188,-0.00318649 0,-0.0014973 -0.000563065,-0.00276482 -0.00168919,-0.00379501 -0.0011337,-0.00103776 -0.00262848,-0.00155537 -0.00448937,-0.00155537 -0.00177252,0 -0.00316882,0.000494891 -0.00419395,0.00148972 -0.00102513,0.000994832 -0.0015377,0.00229771 -0.0015377,0.00391368 0,0.000999882 0.000227246,0.00190129 0.000681738,0.00270928 0.000454492,0.000807985 0.00104281,0.0014367 0.00176747,0.00189624l-0.000378743 0.00291632 -0.0129934 -0.00245173 0 -0.0125818 0.00296935 0 0 0.0100973 0.0067997 0.001366c-0.00106301,-0.00152002 -0.00159072,-0.00311579 -0.00159072,-0.00478226 0,-0.00221186 0.000765061,-0.00407275 0.00229518,-0.00559025 0.00153265,-0.00152002 0.00349959,-0.00228256 0.00590334,-0.00228256 0.00229266,0 0.00427222,0.000671638 0.00593869,0.00200481 0.00204521,0.00162607 0.00307034,0.00384046 0.00307034,0.00664568 0,0.00230023 -0.000641338,0.00418132 -0.00193411,0.00563822 -0.00129025,0.00145185 -0.00299965,0.00228256 -0.00512313,0.0024896zm0.00662548 -0.0281457l-0.0253026 0.00980187 0 -0.00362836 0.0183791 -0.00657498c0.00147205,-0.00053024 0.00285825,-0.000972107 0.00414092,-0.0013256 -0.0013761,-0.000393893 -0.00275472,-0.000848385 -0.00414092,-0.001366l-0.0183791 -0.00683505 0 -0.00341626 0.0253026 0.00991044 0 0.00343394z"
       fill-rule="nonzero"
       fill="white" /><path
       id="path501"
       d="M0.401622 0.554245l-0.0100922 -0.0123268 0.00462572 -0.00378743c0.000941808,-0.000770111 0.00180029,-0.00126248 0.0025704,-0.00147962 0.000775161,-0.000217146 0.00153517,-0.000196946 0.00228256,6.05989e-005 0.000744861,0.000252495 0.00135338,0.000661538 0.00181544,0.00122965 0.000431767,0.000522665 0.000691837,0.00114128 0.000785261,0.00183817 9.84732e-005,0.000699412 -2.52495e-005,0.0014266 -0.000366118,0.00218914 0.000921608,-0.000391368 0.00179524,-0.000487316 0.002631,-0.00029542 0.00083071,0.000204521 0.00154275,0.000661538 0.00213106,0.0013761 0.000474691,0.000578214 0.000787786,0.00121703 0.000951908,0.00191139 0.000159072,0.000701937 0.000174222,0.0013256 3.53494e-005,0.00189119 -0.000138872,0.000563065 -0.000424192,0.00113118 -0.00085091,0.00171192 -0.000429242,0.000578214 -0.00103523,0.00118925 -0.00182049,0.00183312l-0.00469894 0.00384803zm-0.00421667 -0.0084788l0.00266383 -0.00218409c0.000722137,-0.000590839 0.00119935,-0.00106553 0.0014367,-0.00141902 0.000313094,-0.000459542 0.000459542,-0.000919083 0.000434292,-0.0013761 -2.27246e-005,-0.000462067 -0.000214621,-0.000906459 -0.00056559,-0.0013357 -0.000333294,-0.000409043 -0.000727187,-0.000689312 -0.0011741,-0.000838285 -0.000454492,-0.000151497 -0.000911508,-0.000138872 -0.001366,4.54492e-005 -0.000457017,0.000184322 -0.0011337,0.000638813 -0.00201744,0.00136348l-0.00246436 0.00201744 0.00305267 0.00372683zm0.00465602 0.00569125l0.00307034 -0.00251485c0.00052519,-0.000431767 0.000878684,-0.000754961 0.00106301,-0.000967057 0.000318144,-0.000376218 0.00054034,-0.000744861 0.000664063,-0.00110845 0.000123723,-0.000361068 0.000143922,-0.000760011 6.05989e-005,-0.00119178 -8.33235e-005,-0.000434292 -0.00028027,-0.00084586 -0.000603464,-0.00124228 -0.000373693,-0.000457017 -0.000823135,-0.000757486 -0.0013357,-0.000908983 -0.000515091,-0.000146447 -0.00103271,-0.000116148 -0.00156295,9.08983e-005 -0.000532765,0.000207046 -0.00118925,0.000631239 -0.00197199,0.00127258l-0.00285067 0.00233053 0.00346676 0.0042394zm0.0111477 -0.00669618l-0.0100922 -0.0123268 0.00891309 -0.00729459 0.00119178 0.00145185 -0.00728449 0.00596142 0.00309307 0.00377733 0.0068199 -0.00558267 0.00118168 0.00144427 -0.0068199 0.00558267 0.00343394 0.00419647 0.00757234 -0.00619371 0.00118673 0.00145185 -0.00919588 0.00753194zm0.011481 -0.00940293l-0.0100897 -0.0123268 0.00891561 -0.00729459 0.00119178 0.00145437 -0.00728449 0.00596142 0.00309054 0.00377733 0.00681738 -0.0055852 0.00118673 0.0014468 -0.00682243 0.00558015 0.00343646 0.004199 0.00756981 -0.00619624 0.00118925 0.00145437 -0.00920093 0.00752941zm0.0114532 -0.0093701l-0.0100897 -0.0123268 0.00464844 -0.00380763c0.000818085,-0.000671638 0.00147962,-0.0011438 0.00197199,-0.00141397 0.000689312,-0.000396418 0.00135085,-0.000621139 0.00199724,-0.000674163 0.000636288,-5.04991e-005 0.00129025,7.57486e-005 0.00195936,0.000381268 0.000666588,0.000305519 0.00124985,0.000765061 0.00174979,0.00137862 0.000855959,0.00104533 0.00125238,0.00220681 0.00117915,0.00347686 -7.57486e-005,0.00127258 -0.000982207,0.0026209 -0.00272443,0.0040475l-0.00316377 0.00259313 0.00410053 0.00500951 -0.0016286 0.0013357zm-0.00366118 -0.00780211l0.00318902 -0.00261333c0.00105291,-0.000855959 0.00164122,-0.00166647 0.00175989,-0.00242396 0.000121198,-0.000754961 -0.000106048,-0.00148467 -0.000689312,-0.00219671 -0.000421667,-0.000517616 -0.000914033,-0.00085091 -0.00147457,-0.00100493 -0.000563065,-0.000156547 -0.00110593,-0.000118673 -0.00162607,0.000116148 -0.000335819,0.000154022 -0.000871109,0.000527715 -0.00161345,0.00113623l-0.00315114 0.0025805 0.00360563 0.00440604z"
       fill-rule="nonzero"
       fill="white" /><path
       id="path503"
       d="M0.418309 0.63869l-0.0029643 0 -2.01996e-005 -0.0107159 0.00938525 0c0.0013155,0.00164375 0.00229771,0.00334051 0.00296177,0.00509031 0.000661538,0.00174727 0.000992307,0.00354504 0.000992307,0.0053832 0,0.00248708 -0.00053024,0.00474691 -0.00159577,0.00677445 -0.00106301,0.00203259 -0.00260575,0.00356271 -0.00461309,0.00460299 -0.00201744,0.00103523 -0.00426465,0.00155285 -0.00675173,0.00155285 -0.00246183,0 -0.00475954,-0.000517616 -0.0068906,-0.00155032 -0.00214116,-0.00102261 -0.00372431,-0.00250728 -0.00476206,-0.00443887 -0.00103018,-0.00193411 -0.0015478,-0.00416112 -0.0015478,-0.00668355 0,-0.00182302 0.00029542,-0.00347939 0.000888784,-0.00495901 0.000588314,-0.00147962 0.00141397,-0.00263858 0.00247445,-0.00347434 0.00106048,-0.000843335 0.00243911,-0.00147962 0.00414345,-0.00191897l0.000828185 0.00301985c-0.00129025,0.000383793 -0.00230276,0.000853434 -0.00304004,0.00141397 -0.000734762,0.00056559 -0.0013256,0.00137358 -0.00176747,0.00242143 -0.000439342,0.00104281 -0.000664063,0.00220933 -0.000664063,0.00348191 0,0.00153265 0.000234821,0.00285572 0.000701937,0.00396923 0.000464592,0.00112108 0.00107563,0.00201491 0.00183564,0.0027017 0.000762536,0.000686788 0.00159072,0.00121703 0.00250475,0.0015983 0.00156042,0.000643863 0.00325719,0.000967057 0.00509031,0.000967057 0.00225478,0 0.00414092,-0.000388843 0.00566095,-0.00116905 0.00152002,-0.000772636 0.00264615,-0.00190634 0.00338091,-0.00338849 0.000737287,-0.0014872 0.00110845,-0.00306024 0.00110845,-0.00472671 0,-0.0014569 -0.00028532,-0.00286835 -0.00084586,-0.00424697 -0.00055044,-0.00138367 -0.0011438,-0.00242648 -0.00178262,-0.00314104l-0.00471156 0 0 0.00743599z"
       fill-rule="nonzero"
       fill="white" /><path
       id="path505"
       d="M0.406328 0.494086l-0.0100922 -0.0123268 0.00163365 -0.0013357 0.00889541 0.010875 0.00607251 -0.00497163 0.00119178 0.00145437 -0.00770111 0.00630481zm0.00967815 -0.00792078l-0.0100922 -0.0123294 0.00891309 -0.00729712 0.00119178 0.0014569 -0.00728197 0.00596142 0.00308802 0.00377481 0.00682243 -0.00558015 0.0011842 0.00144175 -0.0068199 0.0055852 0.00343141 0.00419395 0.00757234 -0.00619624 0.00118925 0.0014569 -0.00919841 0.00753194zm0.0114481 -0.00937515l-0.0100872 -0.0123268 0.00424445 -0.00347686c0.000956958,-0.000782736 0.00174222,-0.00132055 0.00234063,-0.0016185 0.00083576,-0.000416617 0.00168414,-0.000613564 0.00253253,-0.000600939 0.00109836,2.01996e-005 0.00215631,0.000325719 0.00317892,0.000916558 0.00102513,0.000590839 0.00198714,0.00143165 0.00288602,0.00253 0.000762536,0.000936758 0.00133065,0.00185837 0.00170434,0.0027623 0.000376218,0.000901409 0.000588314,0.00172707 0.000628714,0.00248455 4.79741e-005,0.000752436 -2.01996e-005,0.00143165 -0.000207046,0.00203511 -0.000179272,0.000603464 -0.000499941,0.00121198 -0.000962007,0.00182049 -0.000464592,0.000613564 -0.00106553,0.0012246 -0.00181039,0.00183312l-0.00444897 0.00364098zm0.000441867 -0.00279007l0.002631 -0.00215379c0.000813035,-0.000666588 0.00139125,-0.00126248 0.00172707,-0.00179524 0.000340869,-0.000532765 0.00053024,-0.00104281 0.000580739,-0.00154022 7.32237e-005,-0.000701937 -5.04991e-005,-0.00147457 -0.000368643,-0.00229771 -0.000320669,-0.00083576 -0.000855959,-0.00171444 -0.00162102,-0.00264615 -0.00105543,-0.00128773 -0.00207804,-0.00210581 -0.00306529,-0.00244668 -0.000992307,-0.000350969 -0.00188867,-0.000391368 -0.00268655,-0.000131298 -0.00057064,0.000186847 -0.00134833,0.000681738 -0.00231286,0.00147205l-0.00259313 0.00212096 0.00770868 0.00941808z"
       fill-rule="nonzero"
       fill="white" /><path
       id="path507"
       d="M0.431785 0.407543l0.00497668 0 0 0.027873c-0.00124733,4.03993e-005 -0.00244668,-0.000156547 -0.00359553,-0.000598414 -0.00190382,-0.000706987 -0.00376976,-0.00184574 -0.00561802,-0.00340869 -0.00183312,-0.00157052 -0.00396418,-0.00382783 -0.00637803,-0.00677445 -0.00375966,-0.00458532 -0.00673658,-0.00768849 -0.00893581,-0.00929688 -0.00218914,-0.00161092 -0.00427222,-0.00241386 -0.00622654,-0.00241386 -0.00205026,0 -0.00377733,0.000734762 -0.00519383,0.00219671 -0.00140135,0.00147205 -0.00211086,0.00338849 -0.00211086,0.00574427 0,0.00249465 0.000747386,0.00448937 0.00224721,0.00597909 0.00149477,0.00150235 0.00356776,0.00225983 0.00620634,0.00228003l-0.000537815 0.00532008c-0.0039768,-0.000363593 -0.00699917,-0.00173717 -0.00908478,-0.00411568 -0.00208056,-0.00237346 -0.00312084,-0.0055751 -0.00312084,-0.00957968 0,-0.00404498 0.00113118,-0.00724914 0.00336829,-0.0096024 0.00224721,-0.00236841 0.00502718,-0.00354756 0.0083475,-0.00354756 0.00168667,0 0.00334556,0.000343394 0.00497416,0.00104281 0.00163112,0.000686788 0.00335061,0.00183564 0.00514838,0.00343646 0.00180534,0.0015983 0.00427727,0.00426212 0.00742084,0.00798138 0.0026108,0.00310317 0.00437827,0.00509788 0.0053125,0.00597909 0.000921608,0.000883734 0.00185332,0.00161345 0.00280017,0.00219166l0 -0.0206869z"
       fill-rule="nonzero"
       fill="white" /><path
       id="path509"
       d="M0.436762 0.356837l0 0.00517616 -0.032991 0c0.00118925,0.00124733 0.00237851,0.00287592 0.00356271,0.00490094 0.00118925,0.00203006 0.00208309,0.00384803 0.0026714,0.00545643l-0.00499688 0c-0.001366,-0.00289612 -0.0030148,-0.00542613 -0.00494891,-0.00759759 -0.00194421,-0.00216136 -0.00382026,-0.00370158 -0.0056458,-0.00460552l0 -0.00333041 0.0423485 0z"
       fill-rule="nonzero"
       fill="white" /><circle
       id="circle511"
       r="0.0147934"
       cy="0.64821"
       cx="0.518227"
       fill="#17191B" /><circle
       id="circle513"
       r="0.0147934"
       cy="0.591961"
       cx="0.518227"
       fill="#17191B" /><circle
       id="circle515"
       r="0.0147934"
       cy="0.535713"
       cx="0.518227"
       fill="#17191B" /><circle
       id="circle517"
       r="0.0147934"
       cy="0.479464"
       cx="0.518227"
       fill="#17191B" /><circle
       id="circle519"
       r="0.0147934"
       cy="0.423215"
       cx="0.518227"
       fill="#17191B" /><circle
       id="circle521"
       r="0.0147934"
       cy="0.366968"
       cx="0.518227"
       fill="#17191B" /><circle
       id="circle523"
       r="0.0147934"
       cy="0.310719"
       cx="0.518227"
       fill="#17191B" /><circle
       id="circle525"
       r="0.0147934"
       cy="0.25447"
       cx="0.518227"
       fill="#17191B" /><circle
       id="circle527"
       r="0.0147934"
       cy="0.198221"
       cx="0.518227"
       fill="#17191B" /><circle
       id="circle529"
       r="0.0147934"
       cy="0.141973"
       cx="0.518227"
       fill="#17191B" /><circle
       id="circle531"
       r="0.0147934"
       cy="0.64821"
       cx="0.06756"
       fill="#17191B" /><circle
       id="circle533"
       r="0.0147934"
       cy="0.591961"
       cx="0.06756"
       fill="#17191B" /><circle
       id="circle535"
       r="0.0147934"
       cy="0.535713"
       cx="0.06756"
       fill="#17191B" /><circle
       id="circle537"
       r="0.0147934"
       cy="0.479464"
       cx="0.06756"
       fill="#17191B" /><circle
       id="circle539"
       r="0.0147934"
       cy="0.423215"
       cx="0.06756"
       fill="#17191B" /><circle
       id="circle541"
       r="0.0147934"
       cy="0.366968"
       cx="0.06756"
       fill="#17191B" /><circle
       id="circle543"
       r="0.0147934"
       cy="0.310719"
       cx="0.06756"
       fill="#17191B" /><circle
       id="circle545"
       r="0.0147934"
       cy="0.25447"
       cx="0.06756"
       fill="#17191B" /><circle
       id="circle547"
       r="0.0147934"
       cy="0.198221"
       cx="0.06756"
       fill="#17191B" /><circle
       id="circle549"
       r="0.0147934"
       cy="0.141973"
       cx="0.06756"
       fill="#17191B" /></g></svg>