<?xml version="1.0" encoding="UTF-8" standalone="no"?>
<!-- Creator: CorelDRAW -->

<svg
   xmlns:dc="http://purl.org/dc/elements/1.1/"
   xmlns:cc="http://creativecommons.org/ns#"
   xmlns:rdf="http://www.w3.org/1999/02/22-rdf-syntax-ns#"
   xmlns:svg="http://www.w3.org/2000/svg"
   xmlns="http://www.w3.org/2000/svg"
   xmlns:sodipodi="http://sodipodi.sourceforge.net/DTD/sodipodi-0.dtd"
   xmlns:inkscape="http://www.inkscape.org/namespaces/inkscape"
   xml:space="preserve"
   width="23.2mm"
   height="30.9068mm"
   shape-rendering="geometricPrecision"
   text-rendering="geometricPrecision"
   image-rendering="optimizeQuality"
   fill-rule="evenodd"
   clip-rule="evenodd"
   viewBox="0 0 0.53546 0.713334"
   version="1.1"
   id="svg124"
   sodipodi:docname="NCIR2.svg"
   inkscape:version="0.92.2 5c3e80d, 2017-08-06"><metadata
     id="metadata130"><rdf:RDF><cc:Work
         rdf:about=""><dc:format>image/svg+xml</dc:format><dc:type
           rdf:resource="http://purl.org/dc/dcmitype/StillImage" /><dc:title></dc:title></cc:Work></rdf:RDF></metadata><defs
     id="defs128" /><sodipodi:namedview
     pagecolor="#ffffff"
     bordercolor="#666666"
     borderopacity="1"
     objecttolerance="10"
     gridtolerance="10"
     guidetolerance="10"
     inkscape:pageopacity="0"
     inkscape:pageshadow="2"
     inkscape:window-width="1492"
     inkscape:window-height="937"
     id="namedview126"
     showgrid="false"
     inkscape:zoom="7.3450666"
     inkscape:cx="43.842521"
     inkscape:cy="-94.076751"
     inkscape:window-x="156"
     inkscape:window-y="48"
     inkscape:window-maximized="0"
     inkscape:current-layer="svg124" /><g
     id="图层_x0020_1"><metadata
       id="CorelCorpID_0Corel-Layer" /><path
       fill="#F8F3EA"
       stroke="#1F1A17"
       stroke-width="0.00461603"
       stroke-linecap="round"
       stroke-linejoin="round"
       d="M0.0553924 0.00230802l0.424675 0c0.0291941,0 0.0530844,0.0232094 0.0530844,0.051568l0 0.605589c0,0.0283609 -0.0238903,0.0515611 -0.0530844,0.0515611l-0.424675 0c-0.0291941,0 -0.0530844,-0.0232002 -0.0530844,-0.0515611l0 -0.605589c0,-0.0283586 0.0238903,-0.051568 0.0530844,-0.051568zm0.0354188 0.392217c0.0285432,0 0.0516995,0.0231494 0.0516995,0.0516926 0,0.0285432 -0.0231563,0.0516972 -0.0516995,0.0516972 -0.0285432,0 -0.0516903,-0.023154 -0.0516903,-0.0516972 0,-0.0285432 0.0231471,-0.0516926 0.0516903,-0.0516926zm0.35384 0c0.0285432,0 0.0516903,0.0231494 0.0516903,0.0516926 0,0.0285432 -0.0231471,0.0516972 -0.0516903,0.0516972 -0.0285455,0 -0.0516995,-0.023154 -0.0516995,-0.0516972 0,-0.0285432 0.023154,-0.0516926 0.0516995,-0.0516926z"
       id="path91" /><g
       id="_295596976"><path
         id="_295596712"
         fill="#F8F3EA"
         stroke="#1F1A17"
         stroke-width="0.00461603"
         d="M0.00230802 0.374787l0.0950302 0c0,0 0.0605923,0.0041475 0.064486,0.0712207 -0.00389362,0.0670732 -0.064486,0.0712207 -0.064486,0.0712207l-0.0950302 0 0 -0.0712207 0 -0.0712207z" /><path
         id="_295596784"
         fill="#F8F3EA"
         stroke="#1F1A17"
         stroke-width="0.00461603"
         d="M0.533152 0.374787l-0.0950302 0c0,0 -0.0605923,0.0041475 -0.064486,0.0712207 0.00389362,0.0670732 0.064486,0.0712207 0.064486,0.0712207l0.0950302 0 0 -0.0712207 0 -0.0712207z" /><circle
         id="_295597216"
         fill="#ACB192"
         stroke="#1F1A17"
         stroke-width="0.00461603"
         cx="0.0908107"
         cy="0.446214"
         r="0.051695" /><circle
         id="_295597192"
         fill="#ACB192"
         stroke="#1F1A17"
         stroke-width="0.00461603"
         cx="0.444649"
         cy="0.446214"
         r="0.051695" /></g><g
       id="_295326144"><rect
         id="_295597240"
         fill="none"
         stroke="#1F1A17"
         stroke-width="0.00461603"
         stroke-linecap="round"
         stroke-linejoin="round"
         x="0.151816"
         y="0.566525"
         width="0.231829"
         height="0.14449" /><rect
         id="_295596904"
         fill="#1F1A17"
         stroke="#1F1A17"
         stroke-width="0.00461603"
         stroke-linecap="round"
         stroke-linejoin="round"
         x="0.151815"
         y="0.566525"
         width="0.0398128"
         height="0.14449" /><rect
         id="_295596592"
         fill="#1F1A17"
         stroke="#1F1A17"
         stroke-width="0.00461603"
         stroke-linecap="round"
         stroke-linejoin="round"
         x="0.343831"
         y="0.566525"
         width="0.0398128"
         height="0.14449" /><rect
         id="_295596928"
         fill="#383431"
         stroke="#1F1A17"
         stroke-width="0.00461603"
         stroke-linecap="round"
         stroke-linejoin="round"
         x="0.191629"
         y="0.566525"
         width="0.152203"
         height="0.0540369" /><rect
         id="_295596688"
         fill="#1F1A17"
         stroke="#1F1A17"
         stroke-width="0.00461603"
         stroke-linecap="round"
         stroke-linejoin="round"
         x="0.191629"
         y="0.620561"
         width="0.152203"
         height="0.0622002" /><rect
         id="_295597024"
         fill="#4D4948"
         stroke="#1F1A17"
         stroke-width="0.00461603"
         stroke-linecap="round"
         stroke-linejoin="round"
         x="0.236053"
         y="0.597902"
         width="0.0633527"
         height="0.0226585" /><g
         id="g108"><rect
           id="_295326432"
           fill="#DEDEDD"
           stroke="#1F1A17"
           stroke-width="0.00461603"
           stroke-linecap="round"
           stroke-linejoin="round"
           x="0.214133"
           y="0.620561"
           width="0.0120389"
           height="0.0481969" /><rect
           id="_295326216"
           fill="#DEDEDD"
           stroke="#1F1A17"
           stroke-width="0.00461603"
           stroke-linecap="round"
           stroke-linejoin="round"
           x="0.245851"
           y="0.620561"
           width="0.0120389"
           height="0.0481969" /><rect
           id="_295325976"
           fill="#DEDEDD"
           stroke="#1F1A17"
           stroke-width="0.00461603"
           stroke-linecap="round"
           stroke-linejoin="round"
           x="0.277568"
           y="0.620561"
           width="0.0120389"
           height="0.0481969" /><rect
           id="_295325928"
           fill="#DEDEDD"
           stroke="#1F1A17"
           stroke-width="0.00461603"
           stroke-linecap="round"
           stroke-linejoin="round"
           x="0.309286"
           y="0.620561"
           width="0.0120389"
           height="0.0481969" /></g></g><circle
       fill="#1F1A17"
       stroke="#1F1A17"
       stroke-width="0.00461603"
       cx="0.26773"
       cy="0.177237"
       r="0.116832"
       id="circle111" /><circle
       fill="#838281"
       stroke="#1F1A17"
       stroke-width="0.00461603"
       cx="0.26773"
       cy="0.177237"
       r="0.11426"
       id="circle113" /><circle
       fill="#AAA9A9"
       cx="0.26773"
       cy="0.177237"
       r="0.106258"
       id="circle115" /><circle
       fill="#838281"
       cx="0.26773"
       cy="0.177237"
       r="0.0779944"
       id="circle117" /><circle
       fill="#AAA9A9"
       cx="0.26773"
       cy="0.177237"
       r="0.0623184"
       id="circle119" /><circle
       fill="#4D4948"
       cx="0.26773"
       cy="0.177237"
       r="0.0390353"
       id="circle121" /></g></svg>