<?xml version="1.0" encoding="UTF-8" standalone="no"?>
<svg
   xmlns:dc="http://purl.org/dc/elements/1.1/"
   xmlns:cc="http://creativecommons.org/ns#"
   xmlns:rdf="http://www.w3.org/1999/02/22-rdf-syntax-ns#"
   xmlns:svg="http://www.w3.org/2000/svg"
   xmlns="http://www.w3.org/2000/svg"
   id="svg124"
   version="1.1"
   viewBox="0 0 0.53546 0.713334"
   clip-rule="evenodd"
   fill-rule="evenodd"
   image-rendering="optimizeQuality"
   text-rendering="geometricPrecision"
   shape-rendering="geometricPrecision"
   height="30.9068mm"
   width="23.2mm"
   xml:space="preserve"><metadata
     id="metadata130"><rdf:RDF><cc:Work
         rdf:about=""><dc:format>image/svg+xml</dc:format><dc:type
           rdf:resource="http://purl.org/dc/dcmitype/StillImage" /><dc:title></dc:title></cc:Work></rdf:RDF></metadata><defs
     id="defs128" /><g
     id="图层_x0020_1"><metadata
       id="CorelCorpID_0Corel-Layer" /><path
       id="path91"
       d="M0.0553924 0.00230802l0.424675 0c0.0291941,0 0.0530844,0.0232094 0.0530844,0.051568l0 0.605589c0,0.0283609 -0.0238903,0.0515611 -0.0530844,0.0515611l-0.424675 0c-0.0291941,0 -0.0530844,-0.0232002 -0.0530844,-0.0515611l0 -0.605589c0,-0.0283586 0.0238903,-0.051568 0.0530844,-0.051568zm0.0354188 0.392217c0.0285432,0 0.0516995,0.0231494 0.0516995,0.0516926 0,0.0285432 -0.0231563,0.0516972 -0.0516995,0.0516972 -0.0285432,0 -0.0516903,-0.023154 -0.0516903,-0.0516972 0,-0.0285432 0.0231471,-0.0516926 0.0516903,-0.0516926zm0.35384 0c0.0285432,0 0.0516903,0.0231494 0.0516903,0.0516926 0,0.0285432 -0.0231471,0.0516972 -0.0516903,0.0516972 -0.0285455,0 -0.0516995,-0.023154 -0.0516995,-0.0516972 0,-0.0285432 0.023154,-0.0516926 0.0516995,-0.0516926z"
       stroke-linejoin="round"
       stroke-linecap="round"
       stroke-width="0.00461603"
       stroke="#1F1A17"
       fill="#F8F3EA" /><g
       id="_295596976"><path
         d="M0.00230802 0.374787l0.0950302 0c0,0 0.0605923,0.0041475 0.064486,0.0712207 -0.00389362,0.0670732 -0.064486,0.0712207 -0.064486,0.0712207l-0.0950302 0 0 -0.0712207 0 -0.0712207z"
         stroke-width="0.00461603"
         stroke="#1F1A17"
         fill="#F8F3EA"
         id="_295596712" /><path
         d="M0.533152 0.374787l-0.0950302 0c0,0 -0.0605923,0.0041475 -0.064486,0.0712207 0.00389362,0.0670732 0.064486,0.0712207 0.064486,0.0712207l0.0950302 0 0 -0.0712207 0 -0.0712207z"
         stroke-width="0.00461603"
         stroke="#1F1A17"
         fill="#F8F3EA"
         id="_295596784" /><circle
         r="0.051695"
         cy="0.446214"
         cx="0.0908107"
         stroke-width="0.00461603"
         stroke="#1F1A17"
         fill="#ACB192"
         id="_295597216" /><circle
         r="0.051695"
         cy="0.446214"
         cx="0.444649"
         stroke-width="0.00461603"
         stroke="#1F1A17"
         fill="#ACB192"
         id="_295597192" /></g><g
       id="_295326144"><rect
         height="0.14449"
         width="0.231829"
         y="0.566525"
         x="0.151816"
         stroke-linejoin="round"
         stroke-linecap="round"
         stroke-width="0.00461603"
         stroke="#1F1A17"
         fill="none"
         id="_295597240" /><rect
         height="0.14449"
         width="0.0398128"
         y="0.566525"
         x="0.151815"
         stroke-linejoin="round"
         stroke-linecap="round"
         stroke-width="0.00461603"
         stroke="#1F1A17"
         fill="#1F1A17"
         id="_295596904" /><rect
         height="0.14449"
         width="0.0398128"
         y="0.566525"
         x="0.343831"
         stroke-linejoin="round"
         stroke-linecap="round"
         stroke-width="0.00461603"
         stroke="#1F1A17"
         fill="#1F1A17"
         id="_295596592" /><rect
         height="0.0540369"
         width="0.152203"
         y="0.566525"
         x="0.191629"
         stroke-linejoin="round"
         stroke-linecap="round"
         stroke-width="0.00461603"
         stroke="#1F1A17"
         fill="#383431"
         id="_295596928" /><rect
         height="0.0622002"
         width="0.152203"
         y="0.620561"
         x="0.191629"
         stroke-linejoin="round"
         stroke-linecap="round"
         stroke-width="0.00461603"
         stroke="#1F1A17"
         fill="#1F1A17"
         id="_295596688" /><rect
         height="0.0226585"
         width="0.0633527"
         y="0.597902"
         x="0.236053"
         stroke-linejoin="round"
         stroke-linecap="round"
         stroke-width="0.00461603"
         stroke="#1F1A17"
         fill="#4D4948"
         id="_295597024" /><g
         id="g108"><rect
           height="0.0481969"
           width="0.0120389"
           y="0.620561"
           x="0.214133"
           stroke-linejoin="round"
           stroke-linecap="round"
           stroke-width="0.00461603"
           stroke="#1F1A17"
           fill="#DEDEDD"
           id="_295326432" /><rect
           height="0.0481969"
           width="0.0120389"
           y="0.620561"
           x="0.245851"
           stroke-linejoin="round"
           stroke-linecap="round"
           stroke-width="0.00461603"
           stroke="#1F1A17"
           fill="#DEDEDD"
           id="_295326216" /><rect
           height="0.0481969"
           width="0.0120389"
           y="0.620561"
           x="0.277568"
           stroke-linejoin="round"
           stroke-linecap="round"
           stroke-width="0.00461603"
           stroke="#1F1A17"
           fill="#DEDEDD"
           id="_295325976" /><rect
           height="0.0481969"
           width="0.0120389"
           y="0.620561"
           x="0.309286"
           stroke-linejoin="round"
           stroke-linecap="round"
           stroke-width="0.00461603"
           stroke="#1F1A17"
           fill="#DEDEDD"
           id="_295325928" /></g></g><circle
       id="circle111"
       r="0.116832"
       cy="0.177237"
       cx="0.26773"
       stroke-width="0.00461603"
       stroke="#1F1A17"
       fill="#1F1A17" /><circle
       id="circle113"
       r="0.11426"
       cy="0.177237"
       cx="0.26773"
       stroke-width="0.00461603"
       stroke="#1F1A17"
       fill="#838281" /><circle
       id="circle115"
       r="0.106258"
       cy="0.177237"
       cx="0.26773"
       fill="#AAA9A9" /><circle
       id="circle117"
       r="0.0779944"
       cy="0.177237"
       cx="0.26773"
       fill="#838281" /><circle
       id="circle119"
       r="0.0623184"
       cy="0.177237"
       cx="0.26773"
       fill="#AAA9A9" /><circle
       id="circle121"
       r="0.0390353"
       cy="0.177237"
       cx="0.26773"
       fill="#4D4948" /></g></svg>