<?xml version="1.0" encoding="UTF-8" standalone="no"?>
<svg
   xmlns:dc="http://purl.org/dc/elements/1.1/"
   xmlns:cc="http://creativecommons.org/ns#"
   xmlns:rdf="http://www.w3.org/1999/02/22-rdf-syntax-ns#"
   xmlns:svg="http://www.w3.org/2000/svg"
   xmlns="http://www.w3.org/2000/svg"
   version="1.1"
   id="svg2"
   viewBox="0 0 17.202989 34.405929"
   style="clip-rule:evenodd;fill-rule:evenodd;image-rendering:optimizeQuality;shape-rendering:geometricPrecision;text-rendering:geometricPrecision"
   height="300"
   width="150"
   xml:space="preserve"><metadata
     id="metadata44"><rdf:RDF><cc:Work
         rdf:about=""><dc:format>image/svg+xml</dc:format><dc:type
           rdf:resource="http://purl.org/dc/dcmitype/StillImage" /><dc:title></dc:title></cc:Work></rdf:RDF></metadata><defs
     id="defs4"><style
       id="style6"
       type="text/css"><![CDATA[
    .str0 {stroke:#1F1A17;stroke-width:0.280144;stroke-linecap:round;stroke-linejoin:round}
    .str1 {stroke:white;stroke-width:0.700361}
    .fil2 {fill:#1F1A17}
    .fil6 {fill:#DEDEDD}
    .fil1 {fill:#E77817}
    .fil11 {fill:black}
    .fil7 {fill:#CC3300}
    .fil12 {fill:#CCCCCC}
    .fil10 {fill:#E5E5E5}
    .fil9 {fill:#FF6666}
    .fil8 {fill:#FFCC00}
    .fil0 {fill:#B7671C}
    .fil3 {fill:#CD701B}
    .fil5 {fill:whitesmoke}
    .fil4 {fill:#1F1A17;fill-rule:nonzero}
   ]]></style><style
       id="style6-6"
       type="text/css"><![CDATA[
    .str0 {stroke:#1F1A17;stroke-width:0.187406}
    .str1 {stroke:white;stroke-width:0.937028}
    .fil5 {fill:#0069A3}
    .fil12 {fill:#006D3B}
    .fil3 {fill:#009A3D}
    .fil9 {fill:#141516}
    .fil1 {fill:#1F1A17}
    .fil6 {fill:#366B6C}
    .fil0 {fill:#646B6F}
    .fil10 {fill:#CD3226}
    .fil7 {fill:#CECFD2}
    .fil11 {fill:#E25929}
    .fil4 {fill:#EC8E56}
    .fil8 {fill:#F1BE00}
    .fil2 {fill:white}
   ]]></style><style
       id="style6-4"
       type="text/css"><![CDATA[
    .str0 {stroke:#1F1A17;stroke-width:0.0049152}
    .str1 {stroke:#1F1A17;stroke-width:0.00983041}
    .fil11 {fill:#039539}
    .fil1 {fill:#1F1A17}
    .fil12 {fill:#299538}
    .fil6 {fill:#316535}
    .fil10 {fill:#329638}
    .fil4 {fill:#393C34}
    .fil5 {fill:#3D5E34}
    .fil15 {fill:#40413F}
    .fil9 {fill:#454B85}
    .fil8 {fill:#484483}
    .fil7 {fill:#4C508B}
    .fil0 {fill:#4D4948}
    .fil13 {fill:#544C7C}
    .fil20 {fill:#65504A}
    .fil14 {fill:#966759}
    .fil19 {fill:#A5A8A3}
    .fil3 {fill:#BC4032}
    .fil17 {fill:#BD4233}
    .fil16 {fill:#BF302C}
    .fil2 {fill:#C4322E}
    .fil18 {fill:#C59F22}
    .fil22 {fill:#1F1A17;fill-rule:nonzero}
    .fil21 {fill:white;fill-rule:nonzero}
   ]]></style></defs><g
     transform="matrix(0.07135697,0,0,0.07135697,0.00638735,0.01124108)"
     id="图层_x0020_1"><metadata
       id="CorelCorpID_0Corel-Layer" /><path
       style="fill:#b7671c"
       id="path10"
       d="m 18.0633,0 204.715,0 c 9.9349,0 18.0632,8.10318 18.0632,18.0074 l 0,445.668 c 0,9.90423 -8.12825,18.0073 -18.0632,18.0073 l -204.715,0 C 8.12826,481.6827 0,473.57966 0,463.6754 L 0,18.0074 C 0,8.10317 8.12825,0 18.0633,0 Z"
       class="fil0" /><path
       style="fill:#e77817"
       id="path12"
       d="m 20.241,2.53517 200.36,0 c 9.72353,0 17.6789,8.01787 17.6789,17.8177 l 0,440.977 c 0,9.79987 -7.9554,17.8176 -17.6789,17.8176 l -200.36,0 c -9.72353,0 -17.6788,-8.01773 -17.6788,-17.8176 l 0,-440.977 c 0,-9.79987 7.95526,-17.8177 17.6788,-17.8177 z"
       class="fil1" /><rect
       style="fill:#b7671c"
       id="rect14"
       ry="3.10988"
       rx="3.10988"
       height="230.37"
       width="125.657"
       y="44.531101"
       x="57.592499"
       class="fil0" /><rect
       style="fill:#1f1a17"
       id="rect16"
       height="219.899"
       width="114.233"
       y="49.766899"
       x="63.304199"
       class="fil2" /><g
       id="_827392400"><path
         style="fill:#cd701b"
         d="m 114.701,413.532 9.00216,0 0,-75.9661 -9.00216,0 -22.3533,29.8812 -23.8536,-29.8812 -9.00216,0 0,75.9661 9.00216,0 0,-57.8566 23.6251,32.2355 22.5817,-31.7946 0,57.4156 z m 26.5878,-67.1319 0,18.6926 15.453,0 0.73874,0.007 0.72347,0.0224 0.71591,0.03 0.70078,0.0373 0.69294,0.0598 0.68551,0.0674 0.67025,0.0747 0.66254,0.0972 0.64742,0.10464 0.63971,0.11206 0.62458,0.12704 0.61688,0.14204 0.60931,0.14945 0.59405,0.17187 0.58648,0.17201 0.57878,0.19428 0.56351,0.20184 0.55608,0.20927 0.54068,0.22426 0.53312,0.2391 0.51785,0.25409 0.51028,0.26166 0.50272,0.2765 0.48745,0.28407 0.47975,0.29891 0.47218,0.3139 0.45705,0.32133 0.44165,0.33645 0.43423,0.35116 0.42652,0.35887 0.41881,0.37371 0.40369,0.38114 0.38842,0.39612 0.38072,0.41111 0.36558,0.41854 0.35803,0.42596 0.34276,0.44095 0.32749,0.44851 0.31978,0.45593 0.30466,0.47079 0.28939,0.47834 0.28182,0.49334 0.26656,0.50075 0.25899,0.50819 0.24373,0.52317 0.22846,0.53815 0.22089,0.53816 0.20563,0.55301 0.19035,0.56813 0.1828,0.57542 0.16752,0.58298 0.1524,0.59796 0.1447,0.6054 0.12942,0.61281 0.12187,0.62781 0.10659,0.64279 0.0915,0.64279 0.0838,0.6652 0.0685,0.6652 0.0534,0.68006 0.0457,0.68761 0.0305,0.7026 0.0151,0.71003 0.008,0.72501 -0.008,0.62038 -0.0228,0.62024 -0.0304,0.61296 -0.0534,0.60539 -0.0609,0.59797 -0.0762,0.5904 -0.0913,0.59041 -0.10659,0.58298 -0.12187,0.57555 -0.12956,0.57542 -0.15226,0.56057 -0.15997,0.56057 -0.17509,0.55314 -0.19049,0.54559 -0.20563,0.54558 -0.21319,0.53815 -0.23616,0.5306 -0.24373,0.52317 -0.25885,0.52317 -0.27426,0.50832 -0.28939,0.50818 -0.30466,0.50076 -0.31992,0.50076 -0.32749,0.48591 -0.34262,0.48577 -0.35802,0.47835 -0.37316,0.47834 -0.38842,0.46336 -0.40368,0.46336 -0.41126,0.45594 -0.42652,0.44851 -0.44935,0.44837 -0.44935,0.43352 -0.45692,0.41854 -0.46462,0.41111 -0.47218,0.38856 -0.47975,0.38128 -0.47988,0.36615 -0.48745,0.3513 -0.49502,0.33631 -0.50272,0.32889 -0.50258,0.30648 -0.51028,0.29891 -0.51799,0.28407 -0.52541,0.26894 -0.52555,0.25423 -0.54068,0.2391 -0.54082,0.23168 -0.54068,0.21683 -0.55608,0.19428 -0.55595,0.18686 -0.56351,0.17187 -0.57122,0.16444 -0.57891,0.14203 -0.57878,0.13447 -0.58648,0.1122 -0.59405,0.10464 -0.60161,0.0896 -0.60931,0.0748 -0.60932,0.0672 -0.61688,0.0448 -0.62444,0.0374 -0.62458,0.0148 -0.63971,0.008 -24.6,0 0,-8.83435 24.6,0 0.40355,0 0.39612,-0.015 0.39599,-0.0224 0.38842,-0.0298 0.38842,-0.0374 0.38085,-0.0522 0.38072,-0.0524 0.38085,-0.0672 0.36559,-0.0748 0.37315,-0.0822 0.36559,-0.0971 0.35803,-0.0972 0.35788,-0.11206 0.35032,-0.11962 0.35032,-0.12705 0.35047,-0.13461 0.34261,-0.14189 0.3352,-0.15702 0.33505,-0.15702 0.33519,-0.17187 0.32749,-0.1793 0.32749,-0.19442 0.31978,-0.19428 0.31237,-0.20926 0.31978,-0.20927 0.30466,-0.22426 0.30465,-0.23168 0.30466,-0.24666 0.29695,-0.24667 0.2971,-0.26152 0.28939,-0.26165 0.28939,-0.2765 0.28182,-0.28407 0.27412,-0.28393 0.2667,-0.29149 0.25129,-0.29149 0.24373,-0.29891 0.23602,-0.29905 0.22846,-0.30648 0.22089,-0.30634 0.21333,-0.3139 0.19792,-0.3139 0.1905,-0.31391 0.18279,-0.32889 0.17509,-0.32146 0.16753,-0.32875 0.1524,-0.33631 0.15226,-0.33646 0.13713,-0.33631 0.12943,-0.34374 0.12186,-0.3513 0.1143,-0.3513 0.099,-0.3513 0.0913,-0.35873 0.0838,-0.35872 0.0762,-0.36629 0.0685,-0.36615 0.0609,-0.37371 0.0458,-0.37371 0.0457,-0.38114 0.0304,-0.3887 0.023,-0.38114 0.008,-0.3887 0.008,-0.39612 -0.008,-0.39613 -0.008,-0.3887 -0.023,-0.38856 -0.0304,-0.38127 -0.0457,-0.38114 -0.0458,-0.37371 -0.0609,-0.37372 -0.0685,-0.36615 -0.0762,-0.36628 -0.0838,-0.35873 -0.0913,-0.35872 -0.099,-0.35873 -0.1143,-0.3513 -0.12186,-0.34388 -0.12943,-0.34373 -0.13713,-0.34388 -0.15226,-0.33631 -0.1524,-0.32889 -0.16753,-0.32875 -0.17509,-0.32889 -0.18279,-0.32147 -0.1905,-0.3139 -0.19792,-0.32133 -0.21333,-0.30648 -0.22089,-0.30633 -0.22846,-0.30648 -0.23602,-0.29906 -0.24373,-0.29891 -0.25129,-0.29149 -0.2667,-0.29149 -0.27412,-0.28393 -0.28182,-0.28406 -0.28939,-0.27651 -0.28939,-0.26907 -0.2971,-0.2541 -0.29695,-0.25423 -0.30466,-0.2391 -0.30465,-0.23168 -0.30466,-0.22425 -0.31978,-0.2167 -0.31237,-0.20184 -0.31978,-0.20184 -0.32749,-0.18686 -0.32749,-0.17929 -0.33519,-0.17201 -0.33505,-0.16431 -0.3352,-0.14959 -0.34261,-0.14946 -0.35047,-0.13447 -0.35032,-0.12705 -0.35032,-0.11962 -0.35788,-0.10463 -0.35803,-0.10464 -0.36559,-0.0896 -0.37315,-0.0822 -0.36559,-0.0748 -0.38085,-0.0672 -0.38072,-0.0598 -0.38085,-0.0448 -0.38842,-0.0374 -0.38842,-0.0374 -0.39599,-0.0148 -0.39612,-0.015 -0.40355,-0.008 -24.6,0 0,-36.5107 47.9194,0 0,8.98381 -38.7724,0 z"
         class="fil3"
         id="_827393024" /><path
         style="fill:#1f1a17;fill-rule:nonzero"
         d="m 50.2181,418.671 c 0,0.83959 -0.688735,1.52104 -1.53729,1.52104 -0.848558,0 -1.53729,-0.68145 -1.53729,-1.52104 l 0,-76.6049 c 0,-5.43032 2.21062,-10.3718 5.77098,-13.9555 3.56652,-3.59089 8.48684,-5.81972 13.8991,-5.81972 l 107.216,0 c 5.41225,0 10.3326,2.22981 13.8981,5.81972 3.56036,3.58375 5.77098,8.52522 5.77098,13.9555 l 0,76.6049 c 0,0.83959 -0.68873,1.52104 -1.53729,1.52104 -0.84856,0 -1.53729,-0.68145 -1.53729,-1.52104 l 0,-76.6049 c 0,-4.60894 -1.87038,-8.79696 -4.88138,-11.8281 -3.00497,-3.02598 -7.15251,-4.90505 -11.7131,-4.90505 l -107.216,0 c -4.56159,0 -8.70927,1.87907 -11.7141,4.90505 -3.01099,3.03116 -4.88138,7.21918 -4.88138,11.8281 l 0,76.6049 z"
         class="fil4"
         id="_827389664" /></g><g
       id="_629861144"><rect
         style="fill:#f5f5f5;stroke:#1f1a17;stroke-width:0.28014401;stroke-linecap:round;stroke-linejoin:round"
         height="62.822899"
         width="17.310301"
         y="416.32401"
         x="70.021698"
         class="fil5 str0"
         id="_629862584" /><rect
         style="fill:#f5f5f5;stroke:#1f1a17;stroke-width:0.28014401;stroke-linecap:round;stroke-linejoin:round"
         height="62.822899"
         width="17.310301"
         y="416.32401"
         x="153.509"
         class="fil5 str0"
         id="_629861960" /><rect
         style="fill:#f5f5f5;stroke:#1f1a17;stroke-width:0.28014401;stroke-linecap:round;stroke-linejoin:round"
         height="23.494801"
         width="66.176804"
         y="416.32401"
         x="87.332497"
         class="fil5 str0"
         id="_629862536" /><rect
         style="fill:#f5f5f5;stroke:#1f1a17;stroke-width:0.28014401;stroke-linecap:round;stroke-linejoin:round"
         height="27.0441"
         width="66.176804"
         y="439.819"
         x="87.332497"
         class="fil5 str0"
         id="_629861024" /><rect
         style="fill:#f5f5f5;stroke:#1f1a17;stroke-width:0.28014401;stroke-linecap:round;stroke-linejoin:round"
         height="9.8517504"
         width="27.5453"
         y="429.96701"
         x="106.648"
         class="fil5 str0"
         id="_629862368" /><g
         id="g27"><rect
           style="fill:#dededd;stroke:#1f1a17;stroke-width:0.28014401;stroke-linecap:round;stroke-linejoin:round"
           height="20.955601"
           width="5.2344098"
           y="439.819"
           x="97.117401"
           class="fil6 str0"
           id="_629859224" /><rect
           style="fill:#dededd;stroke:#1f1a17;stroke-width:0.28014401;stroke-linecap:round;stroke-linejoin:round"
           height="20.955601"
           width="5.2344098"
           y="439.819"
           x="110.908"
           class="fil6 str0"
           id="_629861072" /><rect
           style="fill:#dededd;stroke:#1f1a17;stroke-width:0.28014401;stroke-linecap:round;stroke-linejoin:round"
           height="20.955601"
           width="5.2344098"
           y="439.819"
           x="124.698"
           class="fil6 str0"
           id="_629858336" /><rect
           style="fill:#dededd;stroke:#1f1a17;stroke-width:0.28014401;stroke-linecap:round;stroke-linejoin:round"
           height="20.955601"
           width="5.2344098"
           y="439.819"
           x="138.489"
           class="fil6 str0"
           id="_629858528" /></g></g><g
       id="_823777968"><rect
         style="fill:#cc3300;stroke:#ffffff;stroke-width:0.70036101"
         y="0"
         x="0"
         height="25.087601"
         width="25.087601"
         transform="matrix(0,-1,1,0,20.0702,27.6228)"
         class="fil7 str1"
         id="_827390936" /><rect
         style="fill:#ffcc00;stroke:#ffffff;stroke-width:0.70036101"
         y="0"
         x="0"
         height="25.087601"
         width="25.087601"
         transform="matrix(0,-1,-1,0,70.2455,27.6228)"
         class="fil8 str1"
         id="_827390432" /><rect
         style="fill:#ff6666;stroke:#ffffff;stroke-width:0.70036101"
         y="0"
         x="0"
         height="25.087601"
         width="25.087601"
         transform="matrix(0,-1,1,0,70.2455,27.6228)"
         class="fil9 str1"
         id="_827388440" /><rect
         style="fill:#e5e5e5;stroke:#ffffff;stroke-width:0.70036101"
         y="0"
         x="0"
         height="25.087601"
         width="25.087601"
         transform="matrix(0,-1,-1,0,120.421,27.6228)"
         class="fil10 str1"
         id="_823771776" /><rect
         style="fill:#000000;stroke:#ffffff;stroke-width:0.70036101"
         y="0"
         x="0"
         height="25.087601"
         width="25.087601"
         transform="matrix(0,-1,-1,0,220.771,27.6228)"
         class="fil11 str1"
         id="_629865080" /><rect
         style="fill:#cc3300;stroke:#ffffff;stroke-width:0.70036101"
         y="0"
         x="0"
         height="25.087601"
         width="25.087601"
         transform="matrix(0,-1,1,0,170.596,27.6228)"
         class="fil7 str1"
         id="_629862776" /><rect
         style="fill:#e5e5e5;stroke:#ffffff;stroke-width:0.70036101"
         y="0"
         x="0"
         height="25.087601"
         width="25.087601"
         transform="matrix(0,-1,-1,0,170.596,27.6228)"
         class="fil10 str1"
         id="_629859296" /><rect
         style="fill:#cccccc;stroke:#ffffff;stroke-width:0.70036101"
         y="0"
         x="0"
         height="25.087601"
         width="25.087601"
         transform="matrix(0,-1,1,0,120.421,27.6228)"
         class="fil12 str1"
         id="_629861816" /></g></g></svg>