<?xml version="1.0" encoding="UTF-8" standalone="no"?>
<!-- Creator: CorelDRAW -->

<svg
   xmlns:dc="http://purl.org/dc/elements/1.1/"
   xmlns:cc="http://creativecommons.org/ns#"
   xmlns:rdf="http://www.w3.org/1999/02/22-rdf-syntax-ns#"
   xmlns:svg="http://www.w3.org/2000/svg"
   xmlns="http://www.w3.org/2000/svg"
   xmlns:sodipodi="http://sodipodi.sourceforge.net/DTD/sodipodi-0.dtd"
   xmlns:inkscape="http://www.inkscape.org/namespaces/inkscape"
   xml:space="preserve"
   width="23.2mm"
   height="30.9068mm"
   shape-rendering="geometricPrecision"
   text-rendering="geometricPrecision"
   image-rendering="optimizeQuality"
   fill-rule="evenodd"
   clip-rule="evenodd"
   viewBox="0 0 0.595723 0.793616"
   version="1.1"
   id="svg30"
   sodipodi:docname="TOF.svg"
   inkscape:version="0.92.2 5c3e80d, 2017-08-06"><metadata
     id="metadata36"><rdf:RDF><cc:Work
         rdf:about=""><dc:format>image/svg+xml</dc:format><dc:type
           rdf:resource="http://purl.org/dc/dcmitype/StillImage" /><dc:title></dc:title></cc:Work></rdf:RDF></metadata><defs
     id="defs34" /><sodipodi:namedview
     pagecolor="#ffffff"
     bordercolor="#666666"
     borderopacity="1"
     objecttolerance="10"
     gridtolerance="10"
     guidetolerance="10"
     inkscape:pageopacity="0"
     inkscape:pageshadow="2"
     inkscape:window-width="759"
     inkscape:window-height="480"
     id="namedview32"
     showgrid="false"
     inkscape:zoom="2.0203214"
     inkscape:cx="43.842521"
     inkscape:cy="58.40655"
     inkscape:window-x="504"
     inkscape:window-y="254"
     inkscape:window-maximized="0"
     inkscape:current-layer="svg30" /><g
     id="图层_x0020_1"><metadata
       id="CorelCorpID_0Corel-Layer" /><path
       fill="#F8F3EA"
       stroke="#1F1A17"
       stroke-width="0.00513554"
       stroke-linecap="round"
       stroke-linejoin="round"
       d="M0.0616265 0.00256777l0.47247 0c0.0324797,0 0.0590587,0.0258215 0.0590587,0.0573717l0 0.673745c0,0.0315528 -0.026579,0.057364 -0.0590587,0.057364l-0.47247 0c-0.0324797,0 -0.0590587,-0.0258112 -0.0590587,-0.057364l0 -0.673745c0,-0.0315502 0.026579,-0.0573717 0.0590587,-0.0573717zm0.039405 0.436359c0.0317556,0 0.0575181,0.0257547 0.0575181,0.0575104 0,0.0317556 -0.0257624,0.0575155 -0.0575181,0.0575155 -0.0317556,0 -0.0575078,-0.0257599 -0.0575078,-0.0575155 0,-0.0317556 0.0257522,-0.0575104 0.0575078,-0.0575104zm0.393662 0c0.0317556,0 0.0575078,0.0257547 0.0575078,0.0575104 0,0.0317556 -0.0257522,0.0575155 -0.0575078,0.0575155 -0.0317582,0 -0.0575181,-0.0257599 -0.0575181,-0.0575155 0,-0.0317556 0.0257599,-0.0575104 0.0575181,-0.0575104z"
       id="path3" /><rect
       fill="#EAE6DF"
       x="0.172987"
       y="0.0923383"
       width="0.249752"
       height="0.192067"
       rx="0.0487799"
       ry="0.0487799"
       id="rect5" /><g
       id="_295593952"><path
         id="_295594048"
         fill="#F8F3EA"
         stroke="#1F1A17"
         stroke-width="0.00513554"
         d="M0.00256777 0.416967l0.105725 0c0,0 0.0674117,0.00461428 0.0717435,0.0792363 -0.00433183,0.074622 -0.0717435,0.0792363 -0.0717435,0.0792363l-0.105725 0 0 -0.0792363 0 -0.0792363z" /><path
         id="_295593976"
         fill="#F8F3EA"
         stroke="#1F1A17"
         stroke-width="0.00513554"
         d="M0.593155 0.416967l-0.105725 0c0,0 -0.0674117,0.00461428 -0.0717435,0.0792363 0.00433183,0.074622 0.0717435,0.0792363 0.0717435,0.0792363l0.105725 0 0 -0.0792363 0 -0.0792363z" /><circle
         id="_295594120"
         fill="#ACB192"
         stroke="#1F1A17"
         stroke-width="0.00513554"
         cx="0.101031"
         cy="0.496433"
         r="0.057513" /><circle
         id="_295593520"
         fill="#ACB192"
         stroke="#1F1A17"
         stroke-width="0.00513554"
         cx="0.494692"
         cy="0.496433"
         r="0.057513" /></g><g
       id="_295592656"><rect
         id="_295593640"
         fill="none"
         stroke="#1F1A17"
         stroke-width="0.00513554"
         stroke-linecap="round"
         stroke-linejoin="round"
         x="0.168902"
         y="0.630285"
         width="0.257921"
         height="0.160751" /><rect
         id="_295593880"
         fill="#1F1A17"
         stroke="#1F1A17"
         stroke-width="0.00513554"
         stroke-linecap="round"
         stroke-linejoin="round"
         x="0.168901"
         y="0.630285"
         width="0.0442935"
         height="0.160751" /><rect
         id="_295592704"
         fill="#1F1A17"
         stroke="#1F1A17"
         stroke-width="0.00513554"
         stroke-linecap="round"
         stroke-linejoin="round"
         x="0.382528"
         y="0.630285"
         width="0.0442935"
         height="0.160751" /><rect
         id="_295593400"
         fill="#383431"
         stroke="#1F1A17"
         stroke-width="0.00513554"
         stroke-linecap="round"
         stroke-linejoin="round"
         x="0.213195"
         y="0.630284"
         width="0.169333"
         height="0.0601185" /><rect
         id="_295592824"
         fill="#1F1A17"
         stroke="#1F1A17"
         stroke-width="0.00513554"
         stroke-linecap="round"
         stroke-linejoin="round"
         x="0.213195"
         y="0.690402"
         width="0.169333"
         height="0.0692005" /><rect
         id="_295593304"
         fill="#4D4948"
         stroke="#1F1A17"
         stroke-width="0.00513554"
         stroke-linecap="round"
         stroke-linejoin="round"
         x="0.26262"
         y="0.665193"
         width="0.0704827"
         height="0.0252087" /><g
         id="g22"><rect
           id="_295593256"
           fill="#DEDEDD"
           stroke="#1F1A17"
           stroke-width="0.00513554"
           stroke-linecap="round"
           stroke-linejoin="round"
           x="0.238233"
           y="0.690402"
           width="0.0133938"
           height="0.0536212" /><rect
           id="_295592752"
           fill="#DEDEDD"
           stroke="#1F1A17"
           stroke-width="0.00513554"
           stroke-linecap="round"
           stroke-linejoin="round"
           x="0.27352"
           y="0.690402"
           width="0.0133938"
           height="0.0536212" /><rect
           id="_295593328"
           fill="#DEDEDD"
           stroke="#1F1A17"
           stroke-width="0.00513554"
           stroke-linecap="round"
           stroke-linejoin="round"
           x="0.308807"
           y="0.690402"
           width="0.0133938"
           height="0.0536212" /><rect
           id="_295593112"
           fill="#DEDEDD"
           stroke="#1F1A17"
           stroke-width="0.00513554"
           stroke-linecap="round"
           stroke-linejoin="round"
           x="0.344094"
           y="0.690402"
           width="0.0133938"
           height="0.0536212" /></g></g><rect
       fill="#DAD6CF"
       x="0.177451"
       y="0.0957711"
       width="0.240824"
       height="0.185201"
       rx="0.0487799"
       ry="0.0487799"
       id="rect25" /><rect
       fill="#4D4948"
       x="0.25546"
       y="0.161631"
       width="0.0848041"
       height="0.0534784"
       rx="0.00812956"
       ry="0.00812956"
       id="rect27" /></g></svg>